<?xml version="1.0" encoding="UTF-8"?><svg id="Layer_2" xmlns="http://www.w3.org/2000/svg" viewBox="0 0 1527.37 1666.7"><defs><style>.cls-1{fill:#fef6f4;}.cls-2{fill:#decfe7;}.cls-3{fill:#5c4c96;}.cls-4{fill:#776aa0;}.cls-5{fill:#fef7f5;}.cls-6{fill:#e1acd1;}.cls-7{fill:#cbb4ce;}.cls-8{fill:#b03787;}.cls-9{fill:#91257b;}.cls-10{fill:#8ac3f1;}.cls-11{fill:#a9bee1;}.cls-12{fill:#eb4a92;}.cls-13{fill:#be3988;}.cls-14{fill:#9bb9e4;}.cls-15{fill:#b63587;}.cls-16{fill:#fff7f5;}.cls-17{fill:#893c89;}.cls-18{fill:#8d257d;}.cls-19{fill:#902b80;}.cls-20{fill:#6e69aa;}.cls-21{fill:#8dccf8;}.cls-22{fill:#a52f81;}.cls-23{fill:#b973b0;}.cls-24{fill:#e4dde8;}.cls-25{fill:#8da5d0;}.cls-26{fill:#b13083;}.cls-27{fill:#aabee1;}.cls-28{fill:#87478f;}.cls-29{fill:#e44a94;}.cls-30{fill:#ab2e83;}.cls-31{fill:#801e75;}.cls-32{fill:#b93988;}.cls-33{fill:#7b9dcd;}.cls-34{fill:#bac0e4;}.cls-35{fill:#ca408d;}.cls-36{fill:#e4c7e1;}.cls-37{fill:#babfe4;}.cls-38{fill:#8592c5;}.cls-39{fill:#774c8e;}.cls-40{fill:#7e6ba3;}.cls-41{fill:#571974;}.cls-42{fill:#2d0163;}.cls-43{fill:#5c428d;}.cls-44{fill:#af92ba;}.cls-45{fill:#e8c7e1;}.cls-46{fill:#b9c0e3;}.cls-47{fill:#d4b4d5;}.cls-48{fill:#90cff9;}.cls-49{fill:#ede5f2;}.cls-50{fill:#b83585;}.cls-51{fill:#ece3f1;}.cls-52{fill:#4b3083;}.cls-53{fill:#d5c7e1;}.cls-54{fill:#b83687;}.cls-55{fill:#a63184;}.cls-56{fill:#632d7e;}.cls-57{fill:#d03b8a;}.cls-58{fill:#e25399;}.cls-59{fill:#aeaecf;}.cls-60{fill:#eb4992;}.cls-61{fill:#a9bde0;}.cls-62{fill:#ede6f3;}.cls-63{fill:#b7bde2;}.cls-64{fill:#e64691;}.cls-65{fill:#babde2;}.cls-66{fill:#eee6f3;}.cls-67{fill:#ec4992;}.cls-68{fill:#e84793;}.cls-69{fill:#ede5f3;}.cls-70{fill:#d896c1;}.cls-71{fill:#b03284;}.cls-72{fill:#b9c0e4;}.cls-73{fill:#2e0264;}.cls-74{fill:#c5489b;}.cls-75{fill:#90277c;}.cls-76{fill:#ed4992;}.cls-77{fill:#8f81bd;}.cls-78{fill:#c1d3e3;}.cls-79{fill:#a0d8f7;}.cls-80{fill:#51106e;}.cls-81{fill:#561170;}.cls-82{fill:#5476bb;}.cls-83{fill:#82267b;}.cls-84{fill:#c73d8d;}.cls-85{fill:#7b247c;}.cls-86{fill:#b6dafd;}.cls-87{fill:#9587b8;}.cls-88{fill:#5a2378;}.cls-89{fill:#ac267c;}.cls-90{fill:#78a5dd;}.cls-91{fill:#b33385;}.cls-92{fill:#9dc5f0;}.cls-93{fill:#091466;}.cls-94{fill:#89257c;}.cls-95{fill:#e598c4;}.cls-96{fill:#541372;}.cls-97{fill:#978cb8;}.cls-98{fill:#898ec3;}.cls-99{fill:#e94994;}.cls-100{fill:#c9abd0;}.cls-101{fill:#fefefe;}.cls-102{fill:#ea4993;}.cls-103{fill:#b8b5d4;}.cls-104{fill:#935797;}</style></defs><g id="Layer_1-2"><path class="cls-101" d="M370.34,1326.4c-4.52,2.13-7.79,3.62-11,5.2-20.32,9.94-41.34,18.37-62.9,25.23-3.2,1-6.42,2-9.7,2.73-6.42,1.38-9.9-.09-13.4-5.28-3.06-4.53-3-8.34,.77-13.49,2.94-3.9,6.11-7.62,9.5-11.14,8.46-8.92,15.65-18.8,22.5-29,.46-.87,.84-1.77,1.15-2.7-2.68-2-5.9-1.38-8.78-1.91-4.26-.8-8.37-1.92-12-4.32-6.63-4.41-8.7-11-5.64-18.34,2.93-7.08,6.94-13.67,11.89-19.52,8.11-9.58,16.42-19,24.59-28.51,9.17-10.67,18.3-21.38,27.4-32.14,1.15-1.36,2.13-2.88,3.6-4.87-7.39-2.54-14.57-3.22-21.56-4.64-10.21-1.94-20.3-4.46-30.22-7.55-4.68-1.44-9.16-3.45-13.34-6-6.08-3.7-10.66-9.44-12.91-16.19-2.24-6.73-.67-11.08,5.27-14.94,5.21-3.23,10.91-5.56,16.89-6.9,13-3.26,26.15-6.26,38.8-10.94,15.75-5.82,28.75-15.6,41.41-27.69-4.22-.55-7.46-.91-10.68-1.4-4.92-.67-9.38-3.21-12.47-7.09-4.16-5.16-5.75-10.62-2-16.88,3-5,6.25-9.83,10.61-13.75,4.1-3.68,8.29-7.26,12.61-10.67,17.96-14.32,34.71-30.09,50.1-47.14,.82-.89,1.51-1.9,2.28-2.87-2-1.36-3.55,.2-5.11,.75-10.68,3.74-20.96,8.53-30.69,14.3-7.36,4.35-14.76,8.68-22.71,11.93-4,1.63-7.92,3.26-12.23,3.73-4.33,.64-8.66-1.11-11.33-4.57-5.37-6.41-6.77-13.56-4.6-21.48,1.83-6.48,4.52-12.68,8-18.44,1.06-1.86,2.21-3.67,3.45-5.42,1.93-2.4,2.42-5.64,1.31-8.51-3.12-9.94-1.8-20,.2-30,5.76-28.6,18.18-55.44,36.26-78.33,13.73-17.67,27.92-34.9,44.79-49.73,.9-.79,1.86-1.59,1.92-3,0-.27,0-.66-.2-.84s-.57-.14-.86-.12c-3.35,.24-6.72,.45-10.06,.77-2.13,.2-4.26,.51-6.36,.93-10,2-13.67,.31-18.76-8.33-3.42-5.81-3.66-11.17,.05-17.13,3.93-6.21,8.98-11.64,14.89-16,12.44-9.42,24.91-18.81,37.61-27.88,11.94-8.53,23.77-17.25,36.47-24.68,2.12-1.24,2.2-2.46,.3-4.32-5.14-4.82-9.79-10.14-13.87-15.88-4.52-6.63-3.87-8.09,3.79-9.24,4.23-.64,8.45-1.39,12.62-2.36,7.14-1.66,14.3-3.31,21.3-5.45,2.29-.71,6.48-.06,6.41-3.38,0-2.25-4-2-6.18-2.78-13.7-5.21-25.27-13.52-35.73-23.6-16.69-16.08-30-34.63-40.86-55-.45-.79-.86-1.61-1.22-2.45-.86-1.94,.02-4.21,1.96-5.07,.14-.06,.29-.12,.44-.16,3.21-1.12,6.66-1.36,10-.69,20.46,3.46,40.3,.09,59.75-5.82,37.02-11.13,71.46-29.51,101.3-54.09,5.19-4.26,9.89-9.12,14.74-13.79,1.05-1,2.39-2,2.41-4-.32-1.7-2.22-1.5-3.47-2-10.17-4.26-19.88-9.53-29-15.73-16.84-11.7-34.85-21.62-53.73-29.61-2.83-1.16-5.52-2.64-8-4.43-5-3.68-7.08-12.56-4.68-18.34,.6-1.44,1.89-2.48,3.42-2.77,2.97-.72,5.97-1.26,9-1.62,29.58-2.81,59.29-4.07,89-3.79,4,0,7.92,.75,11.89,1,3.6,.22,4.37-.65,4.08-4.08-.03-.3-.09-.61-.17-.9-1.38-5.1,.84-8.81,4.41-12.2,4.82-4.7,10.24-8.74,16.13-12,9.72-5.22,18.79-11.46,28-17.47,28.46-18.56,59.48-31.24,92.52-38.85,23.91-5.51,48.19-8.43,72.82-7.63,3.53,.11,4.88-.81,4.89-3.83,.05-10.4,.18-20.82-.25-31.21-.28-6.5-3-12.42-6.23-18.06-1.44-2.34-2.73-4.78-3.84-7.3-1.79-4.46-.39-7.48,4-9.82,4.09-2.19,8.33-1.71,12.53-.78,8.38,1.84,16.38,5.13,23.63,9.71,11.32,7.16,20.18,16.76,27.72,27.71,6.06,8.8,12.17,17.55,18.12,26.11,2.52-.27,2.63-2,3.07-3.29,1.74-5.21,3.21-10.53,5.14-15.67s5.31-8.86,10.8-10.41c4.41-1.24,8.51-.87,12.07,2.2,2.58,2.16,5.05,4.45,7.39,6.87,16.9,17.85,35.79,33.39,55.34,48.18,4.88,3.7,9.67,7.52,14.58,11.17,1.74,1.24,3.58,2.34,5.5,3.27,1.91,1.16,4.36,.92,6-.6,.69-.61,1.41-1.18,2.13-1.76,34.2-27.44,72.22-48,113.58-62.38,18.51-6.39,37.6-10.94,57-13.59,7-1,14-1.61,21-.76,4,.47,5.2,1.85,5.78,5.8,1,6.85-.73,12.79-5.95,17.45-3,2.64-6.14,5.05-9.28,7.48-28,21.6-49.2,48.36-62.67,81.13-.6,1.4-1.11,2.84-1.55,4.3-.33,1.14,.47,1.74,1.45,1.59,1.19-.21,2.34-.58,3.44-1.09,8.7-3.77,17.01-8.39,24.81-13.79,16.29-11.42,32.87-22.45,47.52-36,4.74-4.39,10.31-5,16.27-4,3.55,.62,5,2.52,5.39,6.35,.33,3.2-.55,6.55,.7,9.66,2.58-.27,3.16-2.16,4.16-3.56,10.15-14.18,20.21-28.44,30.46-42.55,11.52-15.88,25-30.12,37.63-45.12,29.12-34.67,58.27-69.33,87.45-104,2.15-2.57,4.1-5.33,7.33-6.8,4.26-1.93,10.6,.35,12.44,4.62,.56,1.45,.53,3.05-.08,4.48-2.17,6-4.08,12.19-6.58,18.08-11.23,26.45-22.44,52.91-34,79.2-33.27,75.53-66.64,151.02-100.11,226.46-.62,1.4-1.26,2.78-1.84,4.2-1.05,1.94-.33,4.37,1.61,5.42,.04,.02,.09,.05,.13,.07,4.14,2.61,8.19,5.34,12.36,7.91,41.87,25.84,68.91,63.22,85.63,108.92,14.29,39.06,26.86,78.66,38.77,118.49,.79,2.64,1.74,5.24,2.33,7.92,1.24,5.11,.76,10.48-1.37,15.28-1.47,3.29-3.56,5.69-7.61,5.41-.97,.04-1.94,.18-2.88,.41-.72,8.25-.72,16.5-1.83,24.69-1.72,13.35-4.96,26.46-9.66,39.08-4.57,11.67-9.76,23.1-15.55,34.22-.69,1.36-1.51,2.66-2.31,4-4.62,7.5-7.61,7.85-12.91,1.14-2.23-2.92-4.15-6.05-5.74-9.36-5.54-11.25-10.5-22.75-15.06-34.44-4.22-10.81-8.53-21.61-13.94-31.92-.83-1.57-1.29-3.43-3.27-4.27-1.66,.84-1,2.53-1.19,3.82-1.74,9.95-4.56,19.67-8.42,29-5.25,13.03-8.76,26.7-10.45,40.65-1.8,14.59,1,28,7.24,40.9,5.39,11.38,12.95,21.6,22.25,30.08,5.69,5.11,11.65,9.92,17.56,14.77,3.32,2.72,6.55,5.43,9,9s4.05,4.08,7.68,2.11c9-4.9,18.74-7.46,28.67-9.28,20.54-3.76,39.5-.16,56.35,12.8,6.43,5,11.76,10.78,15.15,18.14,10.67,23.18,18.74,47.08,20.87,72.77,1,12.52,1.93,25,2.36,37.57,.66,19.67-1,39.12-6.42,58.15-5.7,20.06-15.07,38.88-27.61,55.54-3.64,4.95-8.03,9.31-13,12.92-3.74,2.68-6.41,6.61-7.54,11.07-1.82,5.83-3.96,11.56-6.43,17.15-5.49,12.94-10.58,26.1-16.88,38.65-15.25,30.34-38.16,52.82-70.06,65.52-6.87,2.74-14,3.92-21.36,4.94-12.47,1.73-25.06,1.19-37.54,2.63-2.75,.17-5.51,.09-8.24-.26-11.9-.93-23.78-2.06-35.69-2.87-22.88-1.56-44.28-8.44-65.35-17.09-31.85-13.08-59.32-32.76-85.23-55-12.16-10.28-23.75-21.22-34.7-32.78-7-7.49-15.37-11.84-25.12-14.17-10.76-2.57-21.68-4.6-32.7-4.11-24.43,1.07-46.9,7.92-65.54,24.69-5.12,4.41-8.5,10.49-9.55,17.16-1.86,10.83-4.5,21.53-5.93,32.47-4.24,32.41-4.33,64.67,3.29,96.69,4.1,17.25,7.82,34.58,13.43,51.45,2.15,6.37,4.88,12.53,8.14,18.41,4,7.23,7.9,14.49,11.62,21.86,8.33,16.36,17.88,32.07,28.57,47,8.41,11.78,11.27,24.93,11.54,38.92,.22,11.28-4.26,20.84-11.76,29-8.37,9.17-18.48,16-29.52,21.47-5.72,2.91-11.61,5.47-17.64,7.67-18.43,6.53-36.86,13.2-56.2,16.61-7.51,1.33-15.13,2.25-22.74,2.89-34.54,2.88-69.13,2.18-103.72,1.06-12.84-.42-25.65-1-38.44-2.69-52.86-7.17-103.39-21.84-150.92-46.31-11.19-5.69-21.85-12.35-31.87-19.9-11-8.34-22.11-16.45-32.76-25.16-17.41-14.24-32.75-30.37-43.66-50.3-.3-.54-.63-1-1-1.56-1.38-2-2.64-2.48-4.56-1.47-.8,.44-1.59,.93-2.34,1.45-9.31,5.87-19.09,10.98-29.23,15.28-17.67,7.64-35.16,15.71-53.22,22.42-7.46,2.78-15.26,4.54-23.19,5.25-4.94,.63-9.88-1.12-13.33-4.71-3.11-3.13-3.33-4.36-.78-7.82,2.18-3,4.57-5.75,6.7-8.74,5.32-7.48,10.62-15,15.78-22.56,8.95-13.18,15.72-27.72,20.05-43.05,1.34-4.71,2.67-9.41,4.12-14.09,1.33-3.74,.73-7.9-1.6-11.12-19.2-28-30-59.31-35.53-92.58-1.64-9.93-1.69-20.06-1.24-31.67Z"/><path class="cls-76" d="M181.99,808.43c-1.51-.14-3.01-.36-4.49-.66-16.27-4.27-32.52-8.57-48.77-12.9-1.48-.39-2.94-.86-4.43-1.22-2.86-.71-3.62-.39-4.9,2.49-1.87,4.19-3.53,8.47-5.43,12.65-3.8,8.35-7.62,16.69-11.59,25-1.36,2.73-2.92,5.36-4.67,7.86-3.05,4.48-7.59,6.1-12.76,5.62-3.35-.36-6.65-1.06-9.86-2.1-13.15-4.06-26.26-8.24-38.79-14-8.33-3.85-16.83-7.33-25.24-11-1.72-.7-3.37-1.55-4.95-2.52-4.57-3-7.7-9.35-5.25-15.22,2.12-5.08,3.68-10.38,5.83-15.44,14.13-33.23,28.69-66.26,45.91-98,7.87-14.52,16.09-28.86,24.16-43.28,2.39-4.27,4.74-8.56,7.18-12.8,1.18-2.14,2.49-4.2,3.94-6.17,2.63-3.43,4.61-4,8.82-2.64,1.76,.54,3.45,1.25,5.07,2.12,5.61,3.14,11.34,6.1,16.66,9.67,10.42,7,20.61,14.32,30.88,21.53,1.52,1.03,2.97,2.15,4.35,3.36,3.41,3.12,5.07,6.77,3.53,11.5-1.42,4.36-2.56,8.8-3.91,13.19-1.4,4.57-1.43,4.7,3.15,6.83,13.02,6.08,26.06,12.13,39.11,18.16,2.26,.69,2.43,2.74,2.18,4.39-1.61,10.68-2.27,21.61-7.5,31.43-3,2.73-6.37,1.53-9.49,.34-20.59-7.85-41.76-14.12-62-22.87-11.21-4.84-12.43-7.59-8.05-19,2.85-7.43,5.48-15,9-22.13,4.13-8.48-1.87-10.5-7.38-13.51-6.09-3.34-10.23-2.34-13.22,4.13-11.3,24.45-22.27,49.05-33.41,73.56-7.47,16.44-14.26,33.18-21.47,49.73-3.75,8.6-3,10.07,6,13.5,2,.76,4.12,1.24,6.08,2.1,7.1,3.09,11.44,1,14.15-6.35,5.42-14.64,11.77-28.91,17-43.64,3.62-10.21,6.93-11.84,17.37-9.15,24,6.18,47.5,14.23,71.62,20,3.59,.87,7.07,2.16,9,5.8,2.39,9.98,1.18,20.47-3.43,29.64Z"/><path class="cls-34" d="M638.95,253.96c-11.25-11.5-19.21-25.22-26.32-39.45-9.49-18.88-15.87-39.17-18.9-60.09-2.69-17.56-2.27-35.46,1.26-52.87,3.4-16.18,11.29-29.38,24.94-39.26,12.36-8.95,25.7-10.64,40.07-7.38,8.46,1.91,16,5.93,23.1,10.85,10.76,7.62,20.25,16.88,28.12,27.45,15.95,20.92,26.9,44.33,34.3,69.48,.68,2.32,1.08,4.72,1.61,7.08-9.71,10.69-22,18.1-33.64,26.33-1.58,1.01-3.56,1.19-5.3,.48-4.19-2.26-4-6.62-4.7-10.4-3.72-19.64-12.25-38.05-24.81-53.59-5.62-7.05-12.13-14-22.18-11.89-10.26,2.12-12.77,11.26-15,20.08-1.35,5.35-1.57,10.93-.64,16.37,3.82,22.84,11.88,43.62,28.79,60.21,2.38,2.34,4.85,4.75,5,8.46-10.69,10.88-22.17,20.83-35.7,28.14Z"/><path class="cls-34" d="M531.95,111.89c2.09,3.36,4.28,6.67,6.24,10.11,26.1,45.54,50.58,92,75.3,138.27,1.86,3.48,3.49,7.08,5.23,10.63-.79,3.25-2.82,6.07-5.67,7.83-7.73,5.32-13.23,12.94-20.05,19.19-6-10.88-12-21.76-18-32.64-1.31-2.37-2.68-4.71-4.3-7.55-8.46,4-16.14,8.79-24,13.09-7.72,4.21-15.2,8.84-23.15,13.5,2,3.36,3.63,6.25,5.36,9.09,6.93,11.45,13.91,22.87,20.82,34.33,1.09,1.8,2,3.74,2.91,5.61-1.64,6.26-6.9,9.71-11.15,13.79-4.52,4.34-7.83,9.82-13,13.54-2-3-4.09-6-6-9.07-26.92-44.36-53.82-88.73-80.69-133.12-1.1-1.82-2-3.76-3-5.64,4.86-11.17,12-20.31,23.2-25.74,6.82,10.47,13.7,20.9,20.44,31.41,5.1,7.95,10,16,15.06,24,1.12,1.77,1.86,3.87,3.81,5,10.13-4,41.62-21.46,49.36-27.44-5.8-10.94-11.66-21.93-17.45-33-7.93-15.11-15.82-30.23-23.69-45.38-.51-1.1-.96-2.23-1.34-3.38,5.14-11.26,12.44-20.67,23.76-26.43Z"/><path class="cls-34" d="M865.24,61.7c-.79-11.02-3.96-21.75-9.29-31.43-9.87-17.86-24.93-28.1-45.45-30-14.94-1.38-28.44,2.69-41,10.45-2.84,1.76-5.54,3.73-8.2,5.53-2.67-1.42-2.89-4.27-4-6.24-1.11-1.97-2.71-2.51-4.59-1.81-9.14,3.46-18.08,7.43-26.78,11.89-1.96,.98-2.37,2.64-1.7,4.64,.78,2.32,1.67,4.59,2.49,6.9,2.47,6.9,5.1,13.72,7.36,20.72,9.6,29.67,19.04,59.37,28.7,89,1.3,4.01,2.05,8.31,4.71,11.8,2.97,1.61,5.32-.18,7.53-1.6,13.23-8.98,26.84-17.36,40.36-25.89,7.59-6.72,17.01-10.58,25.27-16.23,7.45-5.09,17.14-6.79,22.45-15,1.5-2.78,1.64-5.9,1.92-8.9,.75-7.92,.83-15.89,.22-23.83Zm-48.13,21.88c-1.65,13.41-6.74,25.35-16,35.35-1,1.09-1.91,2.43-3.64,2.42-1.45-.87-1.8-2.38-2.33-3.82-7.19-19.83-14.39-39.65-21.61-59.47-.31-.87-.48-1.78-.81-2.63-.67-1.72-.17-2.85,1.48-3.66,8.19-4,16.62-5.9,25.74-3.63,5.77,1.24,10.64,5.1,13.17,10.44,3.78,7.75,5.18,16.45,4,25Z"/><path class="cls-16" d="M1496.11,1518.91c-8.53-10.32-18.82-18.29-31.53-22.88-2.48-.87-4.98-1.74-8.22-2.87,23.64-15.88,34.05-37.47,31.2-65.23v-.05c-.86-3.83-2.94-5.87-7.04-4.7-7.75,2.4-15.86,4.47-19.87,11.18-1.23,2.05-2.08,4.54-2.41,7.6,.45,.93,1.11,1.78,2.11,2.53,.01-.01,.02-.02,.02-.03-4.82,20.55-19.18,32.66-36.99,41.76-.21,.11-.58-.1-1.5-.28-.77-8.2-1.48-16.59-2.24-24.98,.72-.55,1.28-1.15,1.72-1.78h0c-.48-1.33-.94-2.75-1.58-3.94h0c-1.19-2.28-2.97-3.79-6.48-2.57-7.66,2.67-15.91,4.78-21.08,12v.04c.13,12.81-.05,25.63,.45,38.44,.77,20.45,2.23,40.88,3,61.34,.53,13.77,2.13,27.42,3.43,41.11,.59,6.2,3.02,8.38,9.35,9.11,10.96,1.24,22.05,.7,32.84-1.6,16.09-3.32,29.32-11.83,41.42-22.45,1.39-1.18,2.64-2.52,3.7-4,8.59-12.5,14.86-26.07,17.07-41.13,1.57-9.52-1.13-19.26-7.37-26.62Zm-16.49,31.68c-1.43,5.65-4.17,10.88-8,15.27-9.32,10.94-21,18.45-34.3,23.63-3.53,1.33-7.37,2.72-11.44,1.48-1.29-2.66-.75-5.45-.66-8.14,.65-20.14-.15-40.23-1.31-60.34-.82-14.09-2.42-12.2,11.84-11,12,1,23,5.79,32.78,13,3.5,2.48,6.44,5.66,8.64,9.35,3.04,5.03,3.92,11.06,2.45,16.75Z"/><path class="cls-16" d="M708.72,195.48c2.32,0,3.9-1.44,5.62-2.76,8-6.12,15.93-12.29,24.08-18.18,2.66-1.92,5.08-4.54,8.71-4.77,3.02,9.95,4.85,20.22,5.45,30.6,1,14.31,1.44,28.69-1.38,42.93-1.38,7.83-3.88,15.41-7.44,22.52-1.77,3.55-3.89,6.92-6.32,10.06-10.46,12.92-23.78,18.52-40.49,15.51-7-1.26-13.77-3.09-20-6.46-14.57-7.95-27.7-17.78-38-31,3.85-6,10.17-9.24,15.3-13.82,4.45-4,9.45-7.35,14.15-11.07,1.62-1.36,3.61-2.19,5.71-2.39,5.35-1.46,9,2.71,13.52,4.1,7.89,2.44,11.09,1.2,14.13-6.54,2.45-6.24,3.44-12.84,4.13-19.49,.31-3.28-.18-6.82,2.83-9.24Z"/><path class="cls-76" d="M1035.64,1558.65c-2.19-4.12-2.49-8.75-3.37-13.2-6.09-31.1-7.4-62.53-5.3-94,1.77-26.61,6.29-52.79,16.25-77.76,3.84-10.01,9.14-19.39,15.73-27.84,5.75-7.22,13.47-12.62,22.23-15.54,13.08-4.55,24.68-2,35,6.86,2.29,2.03,4.38,4.26,6.26,6.68,7.56,9.46,12.12,20.49,15.92,31.81,1.92,5.71-.26,9.83-6.21,11.09-8.07,1.73-16.29,2.71-24.54,2.91-1.92,.14-3.63-1.22-3.91-3.13-.29-1.17-.87-2.27-1.28-3.42-4.52-12.68-20.16-14.53-29.16-8.58-4.33,2.91-8.01,6.68-10.84,11.06-4.51,6.94-7.88,14.56-10,22.56-4.47,16-5.9,32.41-6.12,49-.49,25.71,2.61,51.36,9.22,76.21,.17,.9,.27,1.81,.31,2.72-2.1,6.64-7.56,11-11.28,16.52-2.82,2.14-4.11,6.69-8.91,6.05Z"/><path class="cls-16" d="M270.27,748.03c.45-.17,.95,.01,1.2,.42,.76,.65,1.64,1.13,2.59,1.42,14.39,7.42,27.55,17.03,39,28.49,9.22,9.41,16.18,20.79,20.36,33.29,2.58,7.51,2.46,15.67,1.9,23.6-1.27,17.69-6,34.97-13.92,50.84-7.46,15.14-18.86,28-33,37.21-17.58,11.72-37,16.87-57.69,18.39-10.43,.51-13.12-2.56-11.53-13.13,.37-3.61,1.93-6.99,4.44-9.6,7.68-5.19,16.87-5,25.46-6.58,28.8-5.38,46.28-23.48,53.44-50.45,8.59-32.28-2.41-57.4-31.71-75.59-4.1-2.54-9-4.06-11.52-8.72-.63-11.45,3.82-21.03,10.98-29.59Z"/><path class="cls-34" d="M1035.64,1558.65c2.85-2.3,4.17-6,7.44-8,3.56-.88,4.76-4.32,7.1-6.52,2.06-1.93,3.88-5.06,7.45-2.33,1.29,3.43,2.64,6.83,3.84,10.29,3.34,9.84,7.66,19.32,12.92,28.28,3.34,5.86,7.53,11.18,12.45,15.79,2.23,2.09,4.67,3.94,7.29,5.51,6.79,3.9,11.83,3.36,17.47-2,2.68-2.51,5.03-5.36,7-8.46,2.54-4.17,4.78-8.52,6.72-13,3.68-8.3,8.1-11.06,17-10,2.73,.33,5.44,.83,8.11,1.49,4.92,1.23,7,4.41,6.38,9.51-.19,1.51-.71,3-1,4.46-3.34,14.3-8.68,28.05-15.87,40.85-2.65,4.78-6.07,9.15-9.27,13.62-1.26,1.73-2.7,3.33-4.29,4.76-14.58,13.34-28.26,14-43.23,4.14-5.81-3.97-10.96-8.84-15.25-14.43-7.6-9.6-13.92-20.14-18.8-31.37-5.34-12.34-9.65-25.1-12.88-38.15-.3-1.46-.49-2.95-.58-4.44Z"/><path class="cls-16" d="M767.49,153.15c5.31-3.53,10.68-7,15.92-10.6,9.72-6.75,19.93-12.71,30.14-18.66,14.13-8.11,28.14-16.42,42.37-24.34,1.71-1,5.41-4.86,5.88,1.44-5.85,25.08-19.91,44.23-41.74,57.74-2.09,1.27-4.24,2.44-6.44,3.49-1.43,.51-2.18,2.09-1.67,3.53,.02,.06,.05,.13,.08,.19,.94,2.9,2.07,5.74,3,8.64,6.39,19.43,12.71,38.88,19.17,58.28,1.73,5.2,3.87,10.28,5.88,15.38,.5,1.14,.07,2.48-1,3.11-.77,.49-1.59,.9-2.44,1.22-8,3.81-16,7.64-24,11.42-4.85,2.29-5,2.28-7.14-3-3.13-7.94-6.22-15.92-9.1-24-8.96-24.99-17.84-50.01-26.64-75.06-.99-2.81-2.57-5.58-2.27-8.78Z"/><path class="cls-16" d="M1373.97,1475.65c.78,5.2,0,10.38-.37,15.54-1.81,22.57-5.06,44.93-10.81,66.87-3.09,12.47-7.71,24.5-13.75,35.84-2.36,4.64-5.4,8.91-9,12.67-8.1,8-16,8.76-25.62,2.64-3.84-2.51-7.23-5.66-10-9.32-3.83-4.77-7.2-9.89-10.08-15.29-7.89-15.18-14.41-31.04-19.46-47.39-.2-.89-.33-1.8-.38-2.72,2.2-7.19,19.38-20,26.14-19.42,1.65,.15,2.55,1.47,3.21,2.88,3,12.16,5.33,24.46,9.44,36.31,1.5,4.32,3.22,8.56,5,12.79,.78,1.99,1.76,3.9,2.93,5.69,1.33,2,2.31,5,4.9,5,3.07,0,4-3.38,5.18-5.72,1.58-3.29,2.92-6.7,4-10.19,2.41-7.88,4.29-15.92,5.61-24.05,2.68-15.06,3.65-30.28,4.89-45.49,.1-1.2,.41-2.39,.63-3.58,7.49-7.92,15.68-14.29,27.54-13.06Z"/><path class="cls-34" d="M1188.63,1425.7c2.32,4.82,1.85,10.17,2.58,15.25,2.42,16.94,4.34,34,6.39,51,2.23,18.52,4.42,37.04,6.56,55.56,1,9.11,1.8,18.26,2.81,27.38,.42,3.85,.08,8.06,3.8,10.8-8.81,1.93-15.07,7.91-21.8,13.31-4,3.2-7.14,8.5-13.62,7.15-1.39-2.14-1.36-4.63-1.68-7-2.89-22-5.91-44-8.64-66.09-2.25-18.13-4.17-36.29-6.2-54.44-1-9.07-1.93-18.15-2.89-27.22,7.99-12.34,18.51-21.35,32.69-25.7Z"/><path class="cls-76" d="M207.33,665.8c-1.14-.38-2.25-.85-3.31-1.43-28.27-18.65-49.83-43.17-63.86-74-7.83-17.23-11.69-35.34-10.14-54.42,.31-4.89,1.2-9.72,2.66-14.4,10.83-32.53,32.13-53.45,66.58-59.82,21.42-4,42-.51,62.21,6.47,4.86,1.67,9.95,3,14.09,6.39,2.63,5.83,.08,10.5-3.32,15-4.22,1.79-7.73-.65-11.35-2-17.24-6.64-35.98-8.44-54.17-5.21-38.15,6.52-61.24,41.23-54.11,80.34,6,32.85,25.16,57.07,51.13,76.7,3.62,2.73,7.86,4.92,9.11,9.87,.08,6.09-.45,12.06-5.52,16.51Z"/><path class="cls-34" d="M1303.82,1517.93c-1.36-.56-2.71-2-4.21-1.09-8,4.83-16.31,9.36-23.55,15.43-.62,.67-1.15,1.41-1.59,2.21-4.64-13.88-8.21-28.1-10.68-42.52-4.32-23.78-6.15-47.94-5.44-72.1,.17-6.1,.93-12.18,1.39-18.27,.07-1.89,1.32-3.53,3.12-4.1,2.85-1,5.61-2.45,8.76-2.48,4.9,0,9.79-.22,14.68-.18,2.63,0,3.64,1.23,3.84,4,.1,1.22,.12,2.45,.07,3.67-.79,16,1,31.77,3.19,47.51,2.75,19.36,5.81,38.68,8.76,58,.5,3.36,1.1,6.64,1.66,9.92Z"/><path class="cls-76" d="M297.31,433.98c-2.8-1.18-5.67-2.21-8.37-3.58-9.85-4.95-19.25-10.75-28.09-17.33-12.22-9.19-24.26-18.63-36.38-28-.99-.71-1.93-1.49-2.81-2.33-1.45-1.25-1.76-3.38-.73-5,1.14-1.81,2.4-3.54,3.77-5.18,7.68-9.52,15-19.35,23.27-28.38,4.76-5.18,9.09-10.75,13.69-16.08,1.92-2.23,3.07-2.42,5.59-1s4.67,2.92,6.91,4.51c10,7.12,19.74,14.47,29,22.47,7.79,6.91,16.32,12.92,25.45,17.92,2.84,7.83-3.82,12.22-6.53,18-4.31,2.23-7.64-.51-10.95-2.42-12.48-7.03-24.19-15.33-34.95-24.78-8.27-7.41-9.51-7.18-16.16,2l-.53,.74c-7.47,10.48-7.41,11.53,2.92,18.65,12.32,8.46,24.7,16.89,37.6,24.36,2.61,1.51,5.57,2.57,7.22,5.39-.33,8.15-3.83,14.71-9.92,20.04Z"/><path class="cls-34" d="M1487.56,1427.88v.05c-1.67-1.53-2.69-4-5.94-2.39-4.88,2.34-10,4.27-15.06,6.13-3,1.08-4.32,3-4.33,6.06,0,2.37,.06,4.82-1.85,6.71t-.01,.02s-.01,.02-.02,.03c-1-.75-1.66-1.6-2.11-2.53,.33-3.06,1.18-5.55,2.41-7.6,.01-.6,.03-1.2,.04-1.81,.11-4.84-1.68-8.75-5.06-12.31-10.76-11.3-23.64-14.15-38.29-10.62-1.21,2.65-.81,5.17-.55,7.52,1.37,12.14,.85,24.43,2.85,36.53,.08,.52,.12,1.04,.14,1.56h0c.64,1.2,1.1,2.62,1.58,3.94h0c-.44,.64-1,1.24-1.72,1.79-2.17-1.57-.62-5.2-2.9-6.23-2.71-1.23-5,1.24-7.36,2.29-5.74,2.51-11.44,5.11-17.16,7.69-.01,0-.01,.01-.02,.01-1.58-18.58-1.29-37.2-1.21-55.82,0-6.7,.44-13.41,.81-20.1,.21-3.83,1.15-4.59,4.87-5.34,5.19-1,10.4-.57,15.46,.27,2.94,.58,5.98,.37,8.82-.59,17-5.77,33.09-3.14,48.21,6.15,7.84,4.83,13.33,11.65,15.67,20.64,1.53,5.84,3.32,11.71,2.73,17.95Z"/><path class="cls-34" d="M297.31,433.98c0-3.17,1.92-5.59,3.18-8.28,1.78-3.78,3.57-7.56,5.36-11.34,5.12-3.22,9.33,.49,13.65,2.05,17.83,6.43,35.89,9.36,54.78,5.59,17.51-3.49,24.52-11.7,24.81-29.53,.11-6.43-1.07-12.76-1.21-19.14-.16-7.34,3.45-9.66,8.77-5.24,21.51,17.86,40,38.36,52.52,63.68,1.2,2.16,1.6,4.67,1.12,7.09-3.37,4.69-6.34,9.7-10.7,13.61-2.44-5.2-4.94-10.39-7.32-15.63-5.49-12.08-13.38-22.54-21.94-32.55-.14-.17-.58-.1-1.4-.21-.6,3.11-1.34,6.26-1.82,9.44-1,6.3-4,11.44-8.28,16-8.06,8.53-18.06,13.38-29.41,15.7-12.71,2.59-25.55,2.5-38.36,1.39-15.35-1.34-29.88-5.96-43.75-12.63Z"/><path class="cls-16" d="M485.22,406.45c9,13.85,17.06,28.35,21.49,44.25,9.13,32.7-1,65.42-28.15,85.74-2.7,2-5.66,3.62-8.8,4.81-15.45,5.89-31.25,8.12-47.47,3.4-10.81-3.15-21.83-5.77-31.73-11.46-4-7.28-1.81-11.31,7.91-14.88,7.69,.77,14.57,4.38,22,6.23,20.85,5.19,39.91,2.43,54.45-14.39,13.49-15.59,17.45-33.93,10.86-53.94-3-9-7.46-17.4-11.76-25.85-1.65-3.23-3.93-6.27-3.45-10.24,3.79-5.71,5.65-13.47,14.65-13.67Z"/><path class="cls-76" d="M340.93,353.53c-.66-.61-1.27-1.28-1.81-2-7.46-12.06-16.92-22.44-27.05-32.26-5.49-5.32-11-10.59-16.5-15.94-1.74-1.71-3.31-3.59-5-5.38s-1.56-3.77,0-5.68c1-1.16,1.86-2.42,2.81-3.62l33.53-42.51c.38-.48,.72-1,1.11-1.45,2.41-2.87,3.24-3,6-1,1.95,1.48,3.86,3,5.7,4.62,13.33,11.66,26.68,23.33,40.05,35,1.14,1,2.22,2.08,3.32,3.13-1.09,8-5.71,13.55-12,18-3.86,.43-6.19-2.17-8.61-4.45-4-3.77-7.79-7.78-11.73-11.62-11.33-11-12.69-10.78-22.92,.68-5,5.65-5.32,9.74,.3,15.44,6.41,6.49,12.13,13.71,18.67,20.14,3.07,3,6,6.19,5.9,11-2.05,7.21-5.27,13.64-11.77,17.9Z"/><path class="cls-34" d="M371.31,303.99c3.49-6.14,7.12-12.2,11.84-17.51,16.12,15.79,32.61,31.22,48.26,47.46,20.39,21.16,37.64,44.84,52.88,70,.39,.82,.7,1.67,.93,2.55-2.92,1.27-4.61,3.74-6.38,6.22-1.91,2.69-3.89,5.4-7.07,6.8-4.33,.58-5.68-3.08-7.47-5.64-25.19-35.89-54.67-67.88-86.14-98.22-3.24-3.07-8.29-5.6-6.85-11.66Z"/><path class="cls-76" d="M1188.63,1425.7c-11.34,7.96-22.25,16.51-32.69,25.62-2.11-19.7-4.21-39.39-6.32-59.08-1.04-10-2-20-2.87-30-.36-3.94-.58-7.91-.66-11.87-.1-4.88,1.3-6.52,6.34-7,6.67-.61,13.37-1,20.07-1.31,3-.15,4.32,.65,4.84,4.06,1.53,9.94,3.36,19.83,4.86,29.77,2.09,13.86,4,27.75,5.93,41.64,.37,2.68,.34,5.43,.5,8.17Z"/><path class="cls-34" d="M225.94,919.32c-4.46,5.39-4,11.83-3.85,18.19-.1,1.85,1.31,3.43,3.15,3.53,.06,0,.12,0,.19,0,1.79,.19,3.56,.45,5.33,.68-.53,.29-1,.81-1.57,.84-13,.89-26.06,1.57-39.08,0-1.78-.35-3.53-.84-5.24-1.45-6.19-5.22-4.66-13-5.4-19.48-1.44-12.53-3.41-25.16-2.39-37.9-.39-9.2,.49-18.41,2.63-27.37,.81-5.05,4.09-7.29,8.9-7.53,7.96-.34,15.93,.08,23.8,1.27,4.23,.59,8.52,.8,12.78,1.17,4.64,.4,9.1-.59,13.53-1.79-.2,12.61-2.41,24.71-8.93,35.74-6.37,3.45-13.06,2.05-19.55,.75-7.05-1.4-10.33,.41-11.61,8.11-3.49,21-3.85,21,17.39,22,3.56,.14,7.41-.27,9.92,3.23Z"/><path class="cls-16" d="M1175.35,1606.1c7.43-5.84,14.87-11.68,22.3-17.51,1.44-1.13,3.06-2,4.4-3.27,2.21-2,4.1-2.15,6.18,.18,.4,.45,1.67,.11,2.54,.14,12.1-1.69,24.32-1.38,36.48-2.09,7.91-.46,15.82-.83,23.73-1.1,3.06-.1,3.79,.65,3.81,3.7,0,8.84,0,17.68-.09,26.52-.16,.99-.44,1.96-.83,2.88-2.67,.34-5.36,.84-8.08,1-17.64,1-35.3,1.94-52.94,3-9.42,.58-18.83,1.4-28.24,2.2-7.66,.66-8.25,.27-9-7.51-.26-2.67-.18-5.41-.26-8.14Z"/><path class="cls-16" d="M593,297.92c-.21-3.32,1.44-5.65,3.71-7.92,6.83-6.92,14.19-13.31,22-19.1,2.41,4.21,4.92,8.36,7.23,12.63,10.17,18.74,20.17,37.54,30.39,56.25,1.79,3.17,3.11,6.59,3.91,10.15,.42,1.82-.27,3.71-1.77,4.83-.66,.64-1.4,1.18-2.22,1.6-7.25,3.11-14.52,6.18-21.83,9.19-1.9,.78-3.56-.25-5.08-1.31-1.81-1.26-2.76-3.17-3.77-5.06-10.67-19.85-21.33-39.69-32-59.53-.25-.56-.44-1.14-.57-1.73Z"/><path class="cls-34" d="M270.27,748.03c-.93,6-4,11.28-6,16.9-1.45,3.94-3.13,7.79-3.8,12-3.33,2.85-6.41,.55-9.19-.83-17.99-8.93-36.31-17.08-54.96-24.45-2.79-1.11-5.76-2.15-6.86-5.46,.38-7.92,2.67-15.51,3.9-23.29,.67-4.18,1.48-8.34,2.22-12.5,2.57,.9,5.18,1.69,7.7,2.71,22.63,9.14,43.94,20.9,65,33.08,.73,.54,1.4,1.15,1.99,1.84Z"/><path class="cls-5" d="M365.48,568.24c8.9,20,12.81,40.75,8.81,62.44-5.57,30.21-26.17,51.83-58.07,58.74-6.84,1.48-13.77,2.83-20.86,1.9-.16-10.74,4.95-18.07,14.54-22.52,1.65-.77,3.35-1.47,5.07-2.07,30.42-11.39,42.66-31.15,39.26-67.65-.34-3.63-1.28-7.2-.92-10.9,.99-13.15,3.8-17.69,12.17-19.94Z"/><path class="cls-46" d="M1373.97,1475.65c-8.24,2.21-15.27,6.93-22.68,10.86-1.59,.85-3,2-4.89,2.17,.06-7.34,.2-14.67,.18-22,0-20.49,0-41-1.3-61.44-.79-12.66-.54-12.8,12-13.33,1.53-.06,3.06-.13,4.59-.15,8.35-.1,9,.45,10.78,9,.44,2.09,.78,4.21,1,6.34,2,20.73,1.66,41.53,1.4,62.32-.19,2.1-.55,4.19-1.08,6.23Z"/><path class="cls-16" d="M229.18,884.21c1.88-7.92,4-15.79,5.51-23.79,.67-3.86,2.03-7.57,4-10.95,9-6.53,9.86-9.85,5.06-20.48-3.44-11.41,1.83-24.81,10.85-27.63,18.89,5.84,29.25,27.23,26.85,43-3.15,20.68-14,34.8-34.1,41.2-6.02,1.96-12.46,3.62-18.17-1.35Z"/><path class="cls-16" d="M528.44,360.65c.43-2,.4-4.29,2-5.89,7.34-7.17,13.8-15.24,22.08-21.44,5.91,9.56,11.87,19.09,17.71,28.69,4.11,6.76,8,13.65,12.13,20.39,1.09,1.81,1.91,3.78,2.42,5.83,.54,2,0,3.85-1.59,4.82-6.52,3.9-13,7.8-19.79,11.27-4,2.06-6.48,1-9.42-2.69-.59-.7-1.13-1.44-1.62-2.21-7.97-12.9-15.94-25.82-23.92-38.77Z"/><path class="cls-76" d="M462.04,187.11l-23.2,25.74c-.99-1.15-1.91-2.36-2.74-3.62-10.33-18-20.65-36-30.94-54-.91-1.59-.85-3,.52-4,5.72-4.58,12.2-8.15,19.13-10.53,4.54-1.48,5.71-1.06,8.43,2.93,8.06,11.85,16,23.79,24,35.71,1.65,2.56,3.19,5.19,4.8,7.77Z"/><path class="cls-72" d="M398.61,520.43c-4.82,.3-5.86,4.69-8.23,7.63-1.4,1.72-.19,3.43,.19,5.13-3.89-1.1-7-3.59-10.11-5.94-8.74-6.66-17.31-13.52-25.94-20.31-1-.76-1.88-1.57-2.78-2.39-4.51-4.12-5-5.34-1.55-9.95,8.63-11.41,15.58-24.06,25.54-34.49,2.61-2.73,3.33-3.06,6.08-1.1,4,2.83,7.79,5.88,11.71,8.79,5.13,3.82,10.3,7.61,15.45,11.41s11.3,5.82,17.25,8.09c-4.14,3.6-8.3,7.19-12.75,10.43-8.59,1.24-14.08-4.76-20.17-9-5-3.47-8.92-6.06-13.43,.88-5.6,8.62-5.47,9.49,1.47,15.78,5.66,5.14,14.35,6.81,17.27,15.04Z"/><path class="cls-46" d="M365.48,568.24c-6.39,5.27-9.91,11.89-9.64,20.32-4.1-.37-4.24-4-5.12-6.68-12.29-37.41-36.41-65-69.82-85.14-3.52-2.11-8-3.37-9.28-8.18-.12-2.02,.28-4.04,1.15-5.86,1.08-2.66,1.87-5.43,2.79-8.15,1.83-.02,3.63,.51,5.17,1.51,38,20.11,66.43,49.17,83.8,88.72,.41,1.13,.72,2.28,.95,3.46Z"/><path class="cls-34" d="M254.96,803.49c-1.74,.27-4.21-.29-4.74,1.86-1.93,7.94-5.89,15.34-6.45,23.64-4.37-3.37-9.37-5.44-14.57-7.15-15.55-5.12-31.32-9.48-47.21-13.41-.62-4.45-.49-8.97,.4-13.38,1.02-5.58,1.41-11.26,1.16-16.93,3.14-3.5,6.91-1.84,10.23-.83,17.83,5.46,35.56,11.23,52.89,18.13,3.59,1.43,8.71,2.15,8.29,8.07Z"/><path class="cls-34" d="M340.93,353.53c1-3.53,3.22-6.45,5-9.58s4.32-5.84,5.17-9.48c2.81-.23,5.53,1.03,7.17,3.33,10.3,12.89,18.16,26.86,17.33,44.06-.54,11.14-6.72,17.42-17.68,18.49-9.87,1-19.5-.06-28.66-4.12-3.34-1.48-6.88-2.74-8.19-6.7-.09-3.44,1.88-6.07,3.46-8.85s3.69-5.31,4.08-8.64c3.52,.94,7,2,10.55,2.79,5.07,1.15,9-2.93,7.81-8.05-.58-2.05-1.37-4.04-2.34-5.94-1.13-2.48-2.45-4.88-3.7-7.31Z"/><path class="cls-72" d="M310.4,671.24q-6.57,3.51-10.08,10.51c-1.61,3.21-3.3,6.38-5,9.57-10.44,1.49-20.72,0-30.82-2.27-18.52-4.17-36.29-10.48-52.72-20.17-1.56-.92-3-2.05-4.49-3.08-.09-6.09,3.14-11.51,3.56-17.5,3.93-1.87,7.08,.33,10.29,2,25.6,13.38,52.23,22.18,81.69,18.73,2.79-.31,5.58-.3,7.57,2.21Z"/><path class="cls-1" d="M412.72,496.74c.99-1.11,1.86-2.31,2.61-3.6,2.18-4.79,6-6.17,10.89-5.84,6.11,.5,12.24-.62,17.78-3.24,3.41-1.45,5.88-4.5,6.6-8.13,1.45-5.94,1.55-12.14,.27-18.12-.4-1.78-.85-3.55-1.28-5.33,.17-4.12,1.95-8,4.94-10.83,1.2-1.3,2.89-2.03,4.66-2,2.55-.34,4.09,1.29,5.06,3.15,7.21,13.77,10.23,28.19,4.1,43-7.48,18.09-37.84,26.18-53.51,14.73-1.31-.82-2.11-2.25-2.12-3.79Z"/><path class="cls-67" d="M531.95,111.89l-23.72,26.52c-5.47-8.76-9.73-18.14-14-27.48-2.15-4.66-1.51-6.51,2.87-9.05,5.77-3.34,11.74-6.34,17.7-9.35,2.65-1.35,4.68-.89,6.38,1.45,2,2.7,3.7,5.57,5.41,8.43,1.83,3.12,3.57,6.31,5.36,9.48Z"/><path class="cls-12" d="M179.95,940.65c-5.47,0-10.9-1.02-16-3-4.18-1.62-5.24-3.25-4.65-7.69,.71-5.41,1.78-10.77,3-16.1,3.54-16,8.39-31.66,13.25-47.3,.53-1.4,1.14-2.77,1.84-4.1,3.17,7.07,.7,14.53,1.5,21.76-.21,16.57,.61,33.15,2.43,49.62,.28,2.47,.7,4.89-1.37,6.81Z"/><path class="cls-21" d="M179.95,940.65c-2.94-18.74-2.45-37.6-2.13-56.46,.68-1.06,1.32-1,1.94,.05-.26,19.13,2.51,38,5.12,56.85l-4.93-.44Z"/><path class="cls-79" d="M861.8,100.99c-.88-1.43-1.94-2.21-3.66-1.2-5.48,3.21-10.94,6.44-16.47,9.56-7.37,4.16-14.76,8.28-22.21,12.29-1.92,.88-3.89,1.63-5.91,2.24,1-1.11,1.76-2.57,3-3.28,15.42-8.89,30.4-18.59,46.53-26.21,.09,2.26,.62,4.68-1.28,6.6Z"/><path class="cls-14" d="M1057.63,1541.86c-2.58,.1-4.24,1.77-5.94,3.43-2.09,2.06-4.19,4.11-6.4,6-.75,.65-1.63,.17-2.21-.61,3.58-5.46,7.89-10.4,12.81-14.69,1.12,1.81,2.08,3.66,1.74,5.87Z"/><path class="cls-92" d="M179.76,884.25l-1.94-.05c-.14-7.23-.29-14.46-.44-21.69,.6-2.12,.37-4.55,2.33-6.16,.02,9.3,.04,18.6,.05,27.9Z"/><path class="cls-34" d="M274.11,749.87c-1.08,.13-2.12-.44-2.59-1.42,1.1-.29,2.24,.33,2.59,1.42Z"/><path class="cls-42" d="M1261.87,406.65c4.29-5.55,8.67-11,12.84-16.67,45.91-62,93.33-122.77,140.37-183.87,7.28-9.45,15-18.61,22.56-27.8,2.25-2.73,4.23-6,8.29-6.49,3.69,4.22-.31,7.4-1.78,10.6-27.58,60-55.79,119.7-85.09,178.89-23.74,47.94-47.41,95.92-71,143.94-.87,1.6-1.6,3.27-2.19,5-.05,.88,.29,1.74,.93,2.36,.73,.55,1.56,.95,2.45,1.16,17.84,6.45,32.92,17.33,47.31,29.35,22.74,19,39.21,42.66,51.84,69.25,10.12,21.31,17.87,43.52,25.72,65.71,3.06,8.65,6.2,17.26,9.31,25.88,2.47,7.24,5.68,14.22,9.58,20.8,5,8.13,7.93,17.2,12.1,25.7,1,2.09-.24,3.52-2.53,3.41-3.26-.16-5.76-2-8.27-3.66-8.61-5.83-17.15-11.76-25.73-17.63-1.51-1-3.06-2-4.59-3-1.09-.18-2.1-.66-2.93-1.39-.06-.23-.14-.46-.23-.68,0,0-.14,.77-.12,.78,.32,.48,.38,1.09,.15,1.62,4.26,8.46,8.89,16.75,12.71,25.4,12.85,29.07,13.28,58.66,2.72,88.48-1.52,4.3-3.79,8.34-5.68,12.51-.46,1.2-1.54,2.06-2.81,2.25-2.86-2.56-3.42-6.32-4.33-9.75-2-7.68-3.91-15.41-5.45-23.2-3.29-16.72-11.15-30.93-22.8-43.21-7.29-7.85-15.13-15.19-23.45-21.94-2.08-1.65-3.91-3.89-7-4-.58,2.25,.17,4.31,.61,6.38,1.97,9.35,1,19.08-2.78,27.86-3.72,9.05-7.24,18.18-10.92,27.25-5.23,12.87-7.57,26.39-9.39,40.07-1.85,14-2.14,28.06-1.94,42.15,.09,7.1,1.71,13.93,3.22,20.8,.55,3.04,2.43,5.67,5.11,7.19,12.72,7.53,23.46,17.61,34.54,27.23,4.98,4.55,9.51,9.58,13.53,15,3.39,4.34,6.54,8.87,9.86,13.26,4,5.36,4.87,5.55,10.56,2.57,3.79-2,7.45-4.26,11.36-6,15.42-6.85,31.21-8.31,47.31-2.55,14.86,5.31,25.54,14.89,31.78,29.73,9.56,22.75,16.09,46.25,17.82,70.85,1.59,22.6,1.59,45.16-2.14,67.73-3,18.19-10.09,34.6-19,50.32-4.67,8.22-11,15.44-17.87,22-3.54,3.4-7.63,6.18-12.09,8.23-5.47,2.52-8.28,6.81-9.12,12.8-.86,5.13-1.38,10.3-1.57,15.5-.25,18.31-7.08,33.87-19.43,47.23-19.18,20.74-42.87,32-71,34-32.71,2.41-64.73-1.88-96.34-9.94-17.48-4.45-34.71-9.7-51.3-16.95-13.48-5.88-26-13.75-37.13-23.36-11.96-10.05-23-21.15-33-33.15-7.45-9.35-16.29-17.51-26.21-24.19-13.94-9.19-29.05-14-45.87-13.45-16.57,.55-32.87,2.39-48.94,6.79-18.13,5-36.61,7-55.44,4.26-6.05-.9-11.95-2.6-17.54-5.07-2-.89-3.65-.25-4.37,1.84-1.5,4.33-3,8.68-4.13,13.11-6.19,23.99-10.67,48.38-13.41,73-2,18.65-1.54,37.3-2,55.94-.37,13.78,2.31,27.39,5.49,40.83,1.69,7.14,3,14.37,4.6,21.53,3.09,14.35,7.75,28.31,13.91,41.63,.85,1.61,1.59,3.29,2.21,5,6.11,19.63,17,36.49,30.19,52,11.8,13.88,20.46,29.65,28.19,46,3.53,7.48,2.4,14.22-2.44,20.63-2.92,3.94-6.43,7.41-10.41,10.28-3,2.13-6.08,4.12-9.18,6.07-20.7,13-43.21,21.39-67,26.43-21.86,4.62-44.1,7.18-66.44,7.64-58.75,1.24-115.73-8.6-171.47-26.54-36.12-11.58-70.97-26.81-104-45.47-20.79-11.82-39.72-26.65-56.18-44-8.84-9.26-13.93-20-14.27-32.84-.07-2.63,.42-5.49-1.86-7.55-2.2,0-3.34,1.6-4.74,2.69-25.47,19.7-52.8,36.53-80.79,52.33-6.93,3.91-14.21,7.18-22.31,7.95-1.51,.21-3.03,.31-4.56,.31-3.1-.12-5.19-2.79-4.22-5.66,.85-2.29,1.91-4.49,3.16-6.58,8.61-15.51,17.24-31,25.91-46.48,10.74-19.26,16.33-40,18.75-61.88,1.61-14.67,1.62-29.32,1.4-44,0-1.83-.18-3.66-.29-5.5-.08-1.27-.44-2.59-1.73-2.87-.6-.12-1.6,.75-2.13,1.41-1.13,1.44-2.18,2.95-3.15,4.51-4.5,7-7.67,14.6-10.62,22.32-.55,1.43-.89,2.94-1.52,4.32-1,2.1-.45,5.68-3.45,5.81-2.48,.1-3.79-2.84-5.09-4.87-7.05-11.05-12.44-23.07-16.01-35.68-4.4-15.51-4.47-31.44-4.26-47.36,.1-7.28,.6-14.54,.92-21.63-1.75-1-2.62,.12-3.52,.81-10.77,8.11-22.57,14.73-35.1,19.7-13.84,5.69-27.9,10.86-41.87,16.25-2.81,1.22-5.84,1.83-8.9,1.81-1.28-.02-2.29-1.07-2.28-2.34,0-.31,.07-.61,.2-.9,1.3-2.42,2.7-4.8,4.16-7.12,6.2-9.87,13.54-18.9,20.72-28,10.24-13,19.78-26.49,27-41.45,1.06-2.21,4.17-4.9,1.7-7.19-1.66-1.55-4.49,.84-6.6,1.83-10,4.65-20,9.13-29.44,14.9-2.34,1.43-4.59,3.27-7.47,3.2-2.2,0-5.16,1.59-6.44-1.1-1-2.07,2.18-2.43,3.08-4,13.17-22.58,31-41.72,46.57-62.51,8.08-10.78,16-21.68,22.64-33.4,.74-1.29,1.37-2.64,2-3.86-1.6-2.21-3.5-1.35-5.1-1.16-23.34,2.68-45.66-2-67.57-9.4-7.23-2.28-13.84-6.19-19.32-11.43,1-2.34,2.82-1.55,4.12-1.53,14,.19,27.36-2.64,40.4-7.36,15.24-5.53,30.31-11.42,44.35-19.69,10.5-6.31,20.22-13.83,28.95-22.42,3.92-3.78,6.46-8,7.1-13.46,.31-2.72,1.05-5.4,1.48-8.11,.24-.89-.29-1.81-1.19-2.04-.33-.09-.68-.07-.99,.04-11.31,3-23,2.9-34.52,4.52-3.34,.39-6.71,.56-10.07,.51-1.89,.12-3.66-.94-4.45-2.66-.64-1.53,.44-2.93,1.51-4.06,7.37-7.77,14.07-16.14,22-23.38,14.93-13.61,29.74-27.35,44.43-41.21,15.96-15.21,31.05-31.31,45.2-48.21,1.15-1.36,2.77-2.49,2.72-4.62-2.08-1.24-4.06-.23-6.06,.28-40.38,10.28-78.71,27.38-113.33,50.57-1.93,1.29-3.9,5.18-6.71,2.28-2.06-2.12,.71-4.46,1.87-6.47,11.08-19.41,23.97-37.72,38.51-54.69,.47-.41,.68-1.04,.54-1.64-.05-.22-.4-.31-.83-.31-6.66,3-13.31,6.11-20,9.11-2.61,1.17-4.35-.07-3.9-2.81,.39-2.1,.89-4.18,1.5-6.22,8-29.27,22-55.63,39.46-80.25,11.39-16,24.14-30.81,39.47-43.28,8.3-6.76,16.2-14,24.37-20.94,7.24-6.13,14.9-11.75,22.92-16.83,1.5-.9,2.93-1.9,4.28-3-2.16-2.3-4.4-1.58-6.38-1.64-19-.56-37.87,1.55-56.53,5.27-3.29,.66-6.57,1.38-9.87,2-1,.19-1.66-.49-2.19-1.29-.5-.8-.36-1.85,.32-2.5,1.02-1.13,2.18-2.11,3.46-2.94,4.66-2.92,9.25-6,14.14-8.52,15.1-7.72,28.53-17.78,41.31-28.79,8.58-7.39,17-15,25.58-22.36,5.11-4.36,10.48-8.42,15.71-12.59-.95-2-2.85-2.28-4.37-3.2-6-3.61-12-7.31-18-11-.76-.5-.97-1.53-.46-2.29,.18-.27,.44-.49,.74-.61,10.65-4.64,21.3-9.33,33-10.9,8.34-1.14,15.51-5,22.68-8.85-.28-1.32-1.35-2.33-2.68-2.54-24.4-7.39-45.8-20.08-65.08-36.6-9.07-7.77-18.38-15.25-26.59-24-2.09-2.23-4.06-4.56-5.9-7-.38-.8-.34-1.73,.1-2.49,.56-.7,1.43-1.07,2.32-1,16.95,6.36,34.74,9.31,52.36,12.89,5.06,1,10.34,1,15.52,1.37,1,.06,2.45,.41,3.24-1.79l-20.8-10.4c.83-2.74,3.2-3,5.1-3.76,27.44-10.51,53.47-24.12,80-36.55,12.77-6,24.84-13.38,36-22,8.33-6.25,15.48-13.93,21.11-22.69,2.71-4.31,2.68-4.85-1.22-8.52-24.17-22.8-50.38-42.71-80.7-56.8-5.81-2.7-11.48-5.73-17.19-8.66-.84-.43-1.22-1.42-.9-2.3,.2-.91,1.09-1.49,2.01-1.3,.02,0,.05,.01,.07,.02,17.49,3.39,35.43,.75,53,4.33,9.22,1.88,18.87,1.85,28.34,2.33,13.75,.7,27.52,1.32,41.29,1.51,8.24,.12,16.49-.65,24.74-1.05,.85,0,1.81,0,2.27-1,.49-1.17,.12-2.53-.89-3.3-1.32-1.26-2.77-2.36-4.34-3.29-7.51-4.35-15.49-7.25-24.27-7.54-3.07-.09-6.11-.19-8.77-2.11-2-1.45-2.4-3.95-.33-5.33,5.94-3.92,10.56-9.27,15.78-14,7.56-6.8,16.11-12.12,25-16.92,35.26-19.14,73.35-32.55,112.82-39.73,14.46-2.6,29-4.52,43.79-4,3,.09,6,0,9,1.14s4.36,.37,5.18-3.08c1-4.08,2.5-7.94,2-12.5-.42-3.77,.95-7.87,2.08-11.66,3.44-11.56,2.75-23-.77-34.32-.54-1.74-1.5-3.53,.23-5.06s4.1-1.35,6-.23c5.24,3.17,10.11,6.92,14.51,11.19,12.77,12.35,23.86,26.32,33,41.55,8.2,13.64,15.55,27.77,22,42.32,.75,1.65,1.57,3.27,2.38,4.95,2.34-.59,1.49-2.44,1.48-3.65,0-7,0-14.09-.38-21.11-.88-12.81-.82-25.67,.2-38.47,.07-.84,.11-1.86,1.38-2,.9-.16,1.81,.21,2.34,.95,2.64,3.38,5.29,6.75,7.91,10.14,11.33,14.47,24.48,27.41,39.12,38.5,5.37,4.06,10.99,7.77,16.83,11.11,7.24,4.22,15.09,6.58,23.21,8.26,4.56,.94,8.08,.13,11.38-3.68,7.93-8.93,16.7-17.09,26.19-24.35,19.1-15,39.63-27.61,62.21-36.71,21.03-8.49,43.3-13.49,65.94-14.8,8.51-.5,17.11,.32,25.67,.61,.83,0,1.86,.35,1.89,1.55,.04,.92-.51,1.77-1.37,2.1-13.12,6-23.13,15.82-32.7,26.23-7,7.66-14.14,15.26-20,23.92-9.74,14.39-16.59,29.9-18.78,47.29-.34,2.73-1,5.41-1.41,8.13-.69,4.9,.21,5.84,4.58,4.37,4.66-1.48,9.22-3.23,13.67-5.26,8-3.8,15.9-7.84,23.72-12,13.23-7.06,25.93-15,38.45-23.27,6.12-4.05,12.52-7.67,19.14-10.83,1.34-.63,2.6-1.9,4-.5,1,1,.57,2.27,.26,3.46-1.91,7.4-3.86,14.78-5.73,22.19-.52,2.06-.78,4.19-1.15,6.29-.93,1.66-.72,3.46-.67,5.22-.07,.63,.29,1.23,.88,1.47,.67-.18,1.32-.45,1.92-.8Z"/><path class="cls-24" d="M1261.87,406.65c-.68,1.16-1.35,2.33-2,3.5-3.48,.23-2.56-1.85-2-3.75,.31-2,.23-4.12,1.91-5.65,.59,2.02-.04,4.46,2.09,5.9Z"/><path class="cls-78" d="M1399.59,726.14c1.92,.42,3.54,1.72,4.38,3.5l-3.12,.33c-1.06-.08-1.24-.92-1.48-1.71-.53-.56-.51-1.45,.05-1.98,.05-.05,.11-.1,.17-.14Z"/><path class="cls-4" d="M383.64,946.59c.15-.93,.68-1.56,1.63-1.31s1,1.2,.52,1.87c-.55,.55-1.18,1.02-1.86,1.39-.09-.65-.19-1.3-.29-1.95Z"/><path class="cls-93" d="M1460.69,1432.55c-.01,.61-.03,1.21-.04,1.81-1.23,2.05-2.08,4.54-2.41,7.6-1.1-2.27-.92-4.96-1.17-7.47-1.35-13.83-17.25-25.59-31-23-4.92,.92-6.56,3.71-5.8,8.5,1.61,10.28,.34,20.75,2.12,31,.44,2.76,.64,5.74-1.03,8.18-.48-1.32-.94-2.74-1.58-3.93h0c-.02-.53-.06-1.05-.14-1.57-2-12.1-1.48-24.39-2.85-36.53-.26-2.35-.66-4.87,.55-7.52,14.65-3.53,27.53-.68,38.29,10.62,3.38,3.56,5.17,7.47,5.06,12.31Z"/><path class="cls-16" d="M864.86,1127.78c-5.43-9.43-7.69-20.27-13.06-30.59-2.58,3.99-3.91,8.66-3.81,13.41,0,.9-.12,1.85-1.17,2.15-1.58,.44-2.18-.78-2.64-1.86-.94-2.24-1.78-4.53-2.58-6.83-8.93-25.4-11.76-52.54-8.26-79.23,.37-2.71,.6-5.44,.69-8.17-.13-.87-.68-1.61-1.47-2-.87-.21-1.78,0-2.47,.56-1.23,1.33-2.37,2.74-3.42,4.22-8.36,22.75-13.62,46.11-13.95,70.44-4.26,25.68-6.42,51.38-4,77.5,5.91,64.25,19.15,127.1,37.88,188.61,13.11,43.08,31.42,84.27,59.21,120.45,7.09,9.23,13.35,19,19.77,28.68,9.68,14.48,18.24,29.67,25.62,45.44,2.02,4.11,3.67,8.39,4.91,12.8,3.2,12.46-1.53,22.24-13.1,28.06-6.9,3.46-14.32,5.33-21.8,6.85-37.09,7.53-74.52,9.48-112.25,6.84-14.65-1-29.26-2.1-43.82-4.1-25.12-3.48-49.97-8.72-74.36-15.68-3.81-1.08-7.56-2.39-11.34-3.59-21.45-27.83-37.3-58.78-51.17-90.9-21.16-49-35-99.85-39.35-153.12-2.92-34.44-3.3-69.04-1.11-103.53,2.07-31.42,3.14-63,8-94.07,7.7-49,22.95-95.61,47.33-139.16,24.61-44.1,51.75-86.74,81.3-127.7,26.71-37,56.65-71.41,86.79-105.63,9.9-11.24,19.36-22.89,29.85-33.61,31.36-32.05,67-59,102.47-86.16,9.38-7.32,19.45-13.72,30.06-19.1l8.43-3.8c6.27-2.27,8.28,1.29,9,6.59,1,7.69-.87,15.2-1.49,22.78-3.64,44.14-9.72,87.87-22.73,130.39-1.42,4.66-3.06,9.25-4.94,13.74-.24,.88-.39,1.79-.45,2.7-.02,1.56,.96,2.95,2.43,3.46,12.39,5.39,21.84,14.33,30,24.85,6.23,8.05,14.91,13.54,21.94,20.72,38.86,39.68,77.87,79.26,108.9,125.73,3.57,5.34,7.18,10.64,9.94,16.44,2,4.26,1.39,6.71-4.32,6.79-9.34,.12-18.76-1.29-28,.88-2.82,1.12-5.68,2.18-8.48,3.36-11.24,4.72-18.15,13.18-21.14,24.88-1.17,4.44-1.76,9.02-1.74,13.62,.18,14.21,2.42,27.94,8,41.14,7.12,16.78,16.45,32.11,28.85,45.48,17.33,18.69,35.65,36.42,57.69,49.41,29.83,17.59,61,32.4,94.8,41,1.15,.38,2.27,.86,3.34,1.42,21.85,5.91,37.46,20.62,52,36.88,1.46,1.58,2.53,3.49,3.12,5.56,4.22,16.25,8.08,32.49,5.2,49.55-1.18,7-4.26,9.74-11.16,7.56-13-.11-25.38-3.38-37.63-7.19-15.43-4.8-30.92-9.4-46.08-15.12-16.93-6.39-32.88-14.66-48.45-23.74-3.11-1.95-5.97-4.26-8.52-6.89-11.38-11.08-22.61-22.33-34-33.44-5.24-5.13-10.48-10.28-16-15.09-13.56-12.07-30.49-19.7-48.52-21.86-3.94-.48-7.82-1.41-11.76-1.82-11.57-1.31-23.28-.29-34.45,3-13.2,3.87-26.84,6.07-40.59,6.53-30.62,1.19-56.06-9.75-76.85-32-9.6-10.27-18.81-20.85-26.36-32.77-3.47-1.34-2.6,1.44-2.92,3.08,.12,1.48-.41,3.1,.93,4.32,.31,.44,.44,.98,.35,1.51,.72,1.79-.26,2.49-1.8,2.83-8.36-5.73-10.78-15.28-15.29-23.46Z"/><path class="cls-66" d="M958.8,801.65c.14-1.5-.13-3.21,.5-4.47,5.19-10.51,6.74-22.07,9.7-33.2,3.2-12,5.74-24.23,8.52-36.36,1.96-7.96,3.08-16.09,3.36-24.28,.29-6.96,.98-13.91,2.07-20.79,1.41-10.2,3.26-20.34,3.36-30.69-.08-1.83,.14-3.65,.63-5.41,1.76-5.07,1.11-10.26,1.1-15.41,0-4.6-.19-4.6-6-6.08,1.88-2.2,4.58-2.8,7.13-3.79,7-2.74,8.19-4.63,8.15-12.45,0-8.57-.14-17.14-.09-25.7,0-4,1.44-4.79,5.09-2.59,8.63,5.23,17.66,9.76,27,13.56,11.66,4.73,23.76,7.9,36,10.64,6.26,1.4,12.59,2.6,18.72,4.46,8.18,2.48,16.59,3.79,24.77,5.39,.62,2.46-.85,3.84-1.78,5.34-3.53,5.73-7.18,11.39-10.73,17.1-1.34,2.05-2.56,4.17-3.65,6.36-2.65,5.34-2.27,11.68,1,16.66,2.78,4.42,6.37,8.27,10.58,11.35,4.64,3.51,9.74,6.38,15.16,8.51,16.13,6.64,32.92,11.55,50.08,14.65,6.07,1,12.2,.72,18.32,.45,5.63-.25,9.83-2.83,13-7.44,5.15-7.26,9.1-15.3,11.69-23.81,.77-2.63,1.69-5.22,2.75-7.75,.54-1.31,1.8-1.47,3.08-1,.29,.11,.56,.25,.81,.43,16,11.78,34.33,18.58,52.65,25.48,1.14,.43,2.27,.93,3.42,1.34,3.76,1.35,6.94,3.95,9,7.37,7.93,12.37,16.74,24.16,26.37,35.26,1,1.15,2.07,2.26,2,4.48-8.35-2-16.69-3.6-25.24-3.64-11,0-22.06-.55-32.82,2.53-3.52,1-7,2.32-10.46,3.37-3.03,.79-5.38,3.16-6.14,6.2-5.43,18.23-10.09,36.48-8,55.89,1.19,11,1.92,21.92,4.19,32.73,1.68,8.41,4.42,16.57,8.14,24.29,13.83,28.1,32,52.74,57.3,71.76,13.65,10.38,26.56,21.7,38.64,33.87,6.43,6.56,12.29,13.66,17.5,21.22,.42,.73,.75,1.5,1,2.3-1.06,1.49-2.27,.78-3.35,.64-36.91-4.61-71.84,2.07-105.09,18.39-6.86,3.37-13.73,6.75-20.75,9.79-9.92,4.3-20.54,5.89-31.17,7.28-3.37,.43-6.79,.09-10-1-7.27-2.37-14.68-4.36-21.82-7.07-18.4-6.93-38.11-9.66-57.7-8-1.52,.12-3,.06-4.57,.08,1.74-2.37,4.33-2,6.71-2,7.33-.06,14.66,0,22,0,2.41,0,3.28-1.56,2.1-3.62-5.03-8.7-10.6-17.08-16.68-25.08-6.62-8.74-12.93-17.69-19.38-26.55-5.62-7.96-11.83-15.49-18.58-22.52-6.4-6.51-12.23-13.57-18.53-20.18s-13.56-12.49-19.22-19.62c-8.41-10.58-18.41-19.52-27.72-29.17-5.71-5.92-12.84-10.26-18.34-16.48-4.43-5-8.2-10.56-13.11-15.22-4.72-4.48-10.33-7.54-15.5-11.3-1.86-1.35-4.1-1-6.16-1.4-2.77-.57-3-1.84-1.06-5.25,5.36-1.34,7.81-6.37,11.82-9.44,27.57-21,58.82-32.58,93.08-35.5,27.4-2.35,54.84-4.85,82.41-4.2,3.36,.07,6.87-.5,10.07,.38,19.22,5.26,28.6-8.58,41.29-20.4-8.95-1.74-16.09-2.84-23.38-3.06-49.81-1.5-98.86,5.71-147.82,13.43-14.74,2.24-28.04,10.11-37.11,21.94-7.44,9.33-15.2,18.35-21.39,28.63-2.06,3.43-4.18,7.45-8.92,8.37Z"/><path class="cls-34" d="M973.62,628.75c-.86,1.22-1.87,2.33-3,3.31-21.38,14.24-41.22,30.57-61.6,46.13-13.33,10.19-25.54,21.83-38.64,32.35-9.83,7.89-18.38,17.05-27.31,25.83-8.3,8.15-15.47,17.3-23,26.12-1.4,1.63-2.84,3.22-4.33,4.75-7.87,8.14-14.81,17.07-22.23,25.58-7,8.07-14,16.18-20.69,24.52-6.5,8.09-13.3,15.95-19.87,24-6.19,7.57-12.4,15.12-18.33,22.88-14.14,18.47-26.67,38.06-39.62,57.35-15.17,22.6-29.33,45.84-42.93,69.41-11.3,19.27-21.14,39.36-29.44,60.1-6.82,17.4-11.75,35.35-16.57,53.36-3.83,14.77-6.76,29.77-8.76,44.9-1.23,8.75-1.07,17.7-2.44,26.42-1.91,12.11-.73,24.42-3.1,36.47-.58,3-.25,6.11-.36,9.16-.23,6.71,.25,13.45-1.44,20.09-.58,2.32-.31,4.87-.31,7.32,0,19.29-.61,38.6,.23,57.85,.52,11.83,.88,23.77,2.86,35.55,1,6,1.25,12.12,2,18.18,3.6,30.05,10.48,59.61,20.52,88.16,6.77,19.33,14.63,38.24,22.93,57,10.19,23,22.91,44.56,36.89,65.42,2.21,3.31,4.73,6.46,4.43,10.78-20.41-5.75-40.29-13.25-59.4-22.43-4.88-2.38-9.79-4.79-14-8.27-4.6-3.32-7.38-8-9.94-12.93-23.41-45.28-33.8-94.14-41.1-144.1-7.43-50.9-6.95-102.09-4.82-153,3.25-77.55,14.49-154.25,39.56-228.12,20.72-61.24,52.3-116.4,94.1-165.95,41-48.62,85.72-93.24,135.29-133,9.79-7.85,20.57-14.35,30.89-21.46,10.47-6.43,20.87-13,31.22-19.67,22.5-14.32,45.93-26.84,70.86-36.45,4.85-1.87,9.63-3.92,14.43-5.89,2.26-.94,4.44-2.15,7.02-1.72Z"/><path class="cls-16" d="M1374.11,1198.04c-2.74,.11-5.5,.43-8.23,.3-11.36-.54-22.7,1.4-33.24,5.68-11.93,4.82-24.21,6-36.89,5.77-21.46-.34-42.66-4.76-62.46-13.05-15.5-6.51-31.06-12.91-46.12-20.4-10.2-4.92-19.6-11.37-27.86-19.12-18.7-17.82-34.61-38-50.15-58.46-6.9-9.11-11.56-19.46-15.36-30.14-1.34-4.07-2.12-8.3-2.31-12.58-.37-5.79-.11-11.62-.06-17.43,.06-7.47,4.11-11.91,11-14,9.95-3.23,20.54-3.93,30.83-2.06,4.81,.9,9.57,2.1,14.4,2.82,3.33,.45,6.56,1.51,9.5,3.14,17.84,10,36.25,9.89,54.9,2.85,18.3-6.9,36.59-13.85,53.94-23,10.82-5.7,22.01-10.66,33.51-14.83,4.33-1.57,8.67-3.06,13.37-2.79,20.38-1.77,35.45,8.3,46.5,23.6,9.77,13.52,14.38,29.64,14,46.65-.36,15.64,1.36,31.07,3.63,46.48,1.4,9.48,3.86,18.49,10,26.19,5,6.26,5.11,13.08,.76,19.57-7.73,11.55-12.24,23.82-10.34,38,.3,2.74-.32,5.42-3.32,6.81Z"/><path class="cls-76" d="M852.19,693.12c-5.87,4.4-11.64,8.91-17.61,13.15-14.23,10.13-27.23,21.76-40.66,32.87-22.69,18.77-43.44,39.55-63.89,60.65-19.17,19.78-37,40.79-54.13,62.35-8,10.05-15.78,20.26-23.35,30.65-7.2,9.91-13.29,20.55-19.16,31.29-18.23,33.34-35,67.3-45.68,104-6.6,22.57-11.82,45.57-16.6,68.57-4.12,19.75-7.32,39.66-10.37,59.59-1.2,7.85-1.77,15.79-2.56,23.7-1.07,10.64-2.23,21.27-3.09,31.93-.94,11.58-2.12,23.17-2.24,34.77-.33,29.68-.23,59.37-.08,89.06,.06,12.54,1.66,25,3.2,37.43,1.34,10.92,2.56,21.85,4.07,32.75,2.87,20.91,7.06,41.62,12.55,62,7.34,27.84,18.09,54.67,32,79.88,.6,1.07,1,2.21,1.55,3.32-3.21-.34-5.6-2.41-8.09-4.11-18.83-12.66-35.72-27.98-50.14-45.5-4.62-5.72-8.11-12.27-10.28-19.3-5.51-17.51-9.6-35.44-12.24-53.61-2.1-13.59-4.59-27.13-6.39-40.77-2.08-15.75-4.61-31.46-5-47.42-.29-11-1.66-21.94-2.85-32.9-1.33-12.17-2-24.41-2-36.65,0-10.41-.06-20.82-.32-31.22-.39-16,1.25-31.76,3.12-47.58,3-25.51,7.39-50.84,13.14-75.88,8.22-36.11,19.95-71.34,35.02-105.17,22.29-49.78,50.63-96.62,84.39-139.46,16.47-20.94,33.51-41.4,53.05-59.63,2-1.88,3.95-3.85,5.85-5.85,32.22-33.84,68.47-62.92,106.59-89.75,10.76-7.57,21.84-14.68,32.82-21.94,1.83-1.1,3.72-2.1,5.66-3,2.18-1.38,3.64-1.21,3.72,1.78Z"/><path class="cls-27" d="M1408.75,821.79c-.48-1.46-1.09-2.88-1.42-4.36-4.11-18.77-13.47-34.64-26.62-48.44-8.29-8.6-17.32-16.44-27-23.44-23.52-17.25-42.3-38.93-58.55-62.85-4.74-7-10.22-11.93-18.32-14.16-5.3-1.45-10.47-3.38-15.75-4.93-12.58-3.84-24.81-8.76-36.54-14.71-1.11-.52-2.17-1.14-3.17-1.85-1.08-.65-1.57-1.97-1.16-3.17,.3-.87,.66-1.71,1.07-2.53,15.01-30.45,30.03-60.89,45.06-91.32,.12-.26,.45-.41,.68-.61,13.18,4.65,24.16,12.79,34.17,22.22,23,21.64,41.53,47.06,60.22,72.3,18.16,24.52,33.77,50.8,51.65,75.51,1.77,2.44,5.07,4.89,2.63,8.78-4.27-1.41-6.82-5-9.85-7.94-10.55-10.22-21-20.53-31.53-30.78-1.31-1.27-2.72-2.45-4.2-3.52-.74-.57-1.8-.43-2.37,.31-.02,.02-.03,.05-.05,.07-.28,.48-.33,1.07-.11,1.58,1,1.87,2.22,3.66,3.34,5.48,13.65,22.19,25.74,45.17,34.85,69.63,7.07,18.72,8.72,39.05,4.76,58.66-.58,.98-1.16,1-1.79,.07Z"/><path class="cls-66" d="M1400.11,1087.52c-.28-13.76-.53-27.51-.86-41.26-.16-6.72-.44-13.44-.73-20.16-.14-5.83-1.33-11.59-3.51-17-1.8-4.31-1.48-4.86,2.77-7.13,6.93-3.88,14.14-7.26,21.56-10.1,4.56-1.76,9.36-2.8,14.24-3.07,7.41-.36,14.67,2.17,20.25,7.07,8.72,7.24,16.09,15.97,21.77,25.78,9.61,16.93,16.48,35,18.6,54.25,2.24,20.31,4,40.81,.78,61.27-3.65,23.55-12.92,44.48-29.3,62-3.54,3.77-7.69,7-11.53,10.46-7.71,7-16,8-25.23,3-6.16-3.35-12.65-6.09-19-9-5.23-2.43-10.2-5.53-16.26-5.78-2-.09-3-1.81-3.12-3.89-.4-5.21,.69-10.43,3.13-15.06,2-3.78,4.36-7.34,6.62-11,1.62-2.58,3.52-5,5-7.68,5-9.21,5.2-18.61,.87-28.17-1.89-4.17-3.58-8.42-5.28-12.67-1.16-2.52-1.51-5.33-1-8.06,.63-.52,1.35-.92,2.12-1.19,5.49-2.43,4.83-8.78,8.1-12.72,4.66-5.65,10.75-9.89,14.9-15.89-5.25-3.67-8.08,1.1-11.47,3.34-2.26,1.49-3.92,3.8-5.88,5.7-1.51,1.46-3,3.67-5.22,3.17-3.41-.78-.98-4.32-2.32-6.21Z"/><path class="cls-66" d="M925.56,1505.11c-6-3.16-8.87-9.27-12.74-14.22-8-10.33-16.26-20.6-23.26-31.74-7.49-11.92-14.44-24.1-19.52-37.29-1.32-3.42-3.16-6.63-4.78-9.93-7.53-15.38-14.63-31-19.73-47.34-6.8-21.85-13.21-43.84-17.5-66.37-.34-1.8-1.06-3.52-1.43-5.31-3.13-15.22-6.27-30.44-9.3-45.68-2.32-11.64-4.76-23.28-6.62-35-1-6.3-1.73-12.72-2.89-18.94-1.91-10.26-.55-20.71-3-30.91-1-4.35-.46-9.14-.34-13.73,.24-9.13-.32-18.22,1.4-27.4,1.22-6.48,1.17-13.3,2-20,.56-3.9,1.31-7.77,2.26-11.6,4.63,.81,4.15,4.7,4.49,7.83,3.49,32.84,16.24,61.4,38.48,85.92,6,6.66,13.32,12.63,16.29,21.69,4.25,41.35,9.34,82.54,17.61,123.32,1.85,9.08,3.81,18.53,2.28,28.06-.92,16.56,1.28,32.9,4,49.14,5.66,33.56,15.46,65.82,31.19,96.13,.46,1.09,.83,2.22,1.11,3.37Z"/><path class="cls-66" d="M1312.73,1319.87c1.21-.16,2.42-.37,3.63-.46,2.51-.17,4-1.38,4.11-4,.05-3.66,.57-7.3,1.55-10.83,.56-2.07,.66-4.24,.3-6.36-1.53-9.91-3.44-19.75-4.86-29.67-.68-4.81-3.09-8.65-6-12.1-3.33-3.99-7.01-7.67-11-11-11.53-9.45-23.54-18.24-36.79-25.2,2.73,.18,5.49,.19,8.19,.56,15.16,2.03,30.53,1.92,45.66-.3,6.33-1.02,12.52-2.8,18.44-5.28,9.95-3.92,20.5-6.13,31.19-6.51,8.17-.33,16.5,0,24.43-2.92,2.45-.92,4.77,.4,6.83,1.85,4.74,3.34,9.46,6.71,14.24,10,5.71,4.09,11.69,7.79,17.89,11.09,2.61,1.32,6.65,.36,7.74,3.94,.81,2.67-.86,5.33-1.48,8-1.46,6.24-2.78,12.51-4.23,18.76-2.73,12.31-8.96,23.56-17.94,32.41-6.54,6.45-13.28,12.62-21.11,17.52-11.67,7.39-25.05,11.63-38.85,12.28-12.22,.62-24.44,.08-36.65-.54-1.86-.04-3.73-.05-5.29-1.24Z"/><path class="cls-16" d="M883.43,531.5c1.76,1.89,2.22,3.71-.43,5.18s-2.88,3.34-2,6.15c3.35,11.52,9.88,21.85,18.84,29.82,.91,.82,1.75,1.72,2.71,2.47,3.28,2.57,3.91,5.87,3.26,9.82-1.84,11.19-5,22.05-8,32.93-.26,1.12-1.37,1.82-2.49,1.57-.43-.1-.82-.33-1.11-.67-4.24-4.82-7.96-10.09-11.08-15.7-1.83-3.17-3.7-6.32-5.67-9.42-.8-1.4-2.47-2.04-4-1.52-1.56,.36-2.65,1.76-2.63,3.36,.11,5.49,.34,10.98,.7,16.46,.22,3.6,.32,3.57-3.67,4.48-4.9,1.11-6.49,3-6,8.49,.77,9.11,1.36,18.3,5.64,26.73,1.55,3.07,1.33,3.58-1.38,5.09-3.73,2.09-7.54,4-11.35,6-30.4,15.76-59.6,33.73-87.36,53.77-2.21,1.59-4.61,2.92-6.93,4.38-6.78-1.38-3.37-6.19-2.52-9.19,5.55-19.7,12.48-38.98,20.72-57.71,15.18-34.24,34.11-66.16,59.23-94.21,10.33-11.66,22.09-21.98,35-30.7,4.2-2.8,8.38-4.34,10.52,2.42Z"/><path class="cls-34" d="M756.32,721.13c-3.11-21.21-4.49-42.44-1.82-63.85,3-24.39,8.65-48.07,18.58-70.62,5.47-12.29,11.77-24.19,18.86-35.62,17.46-28.39,33.25-57.7,47.95-87.6,9.3-18.92,18.49-37.9,27.17-57.1,7.69-17,13.79-34.64,17-53.08,1.38-7.8,1.88-15.76,2.75-23.66,.39-3.6,.7-7.2,1-10.73,2.56-.67,2.68,1.26,3.24,2.5,5.22,12.06,9.32,24.58,12.24,37.39,3.18,13.69,5.62,27.54,7.32,41.49,.44,3.31,.31,6.69,.44,10-.94,7.44-4.73,13.68-8.22,20.1-20.1,36.93-45.25,70.45-70,104.23-23.72,32.42-44.72,66.45-60.13,103.71-8.14,19.69-13.07,40.07-13.14,61.49-.02,7.27-.74,14.45-3.24,21.35Z"/><path class="cls-76" d="M588.11,779.1c-6.64-.93-13.27-1.92-19.92-2.79-4-.52-5.83,1.28-5.36,5.19,.29,2.41,1.18,4.75,.68,7.24-1.41,4.76-5.89,5.87-9.56,7.85-28.72,15.52-57.23,31.34-82.55,52.24-25.94,21.4-50,44.63-71,70.94-2.08,2.6-4,5.42-6.7,7.44-.79,1.07-2.56,1.37-2.49,3.14-6.57,4.07-13.11,8.21-20.31,11.13-.79-.56-.98-1.66-.42-2.45,0-.01,.02-.02,.03-.04,1.8-3.53,3.46-7.14,5.42-10.59,8.88-15.7,18.39-31.01,28.54-45.94,15.64-22.81,34.5-42.81,55.64-60.64,33.84-28.63,70.92-52,112.16-68.58,15.64-6.16,31.68-11.27,48-15.28,9.48-2.5,19.36-3.13,29.09-1.86,4.85,.63,9.74,.93,14.63,.87,16.51-.07,33.02-.13,49.53-.16,1.51,0,3,.24,4.53,.37,.1,5-4.18,4.7-7,5.41-38.6,9.49-76.91,19.88-113.92,34.59-2.95,1.14-6.16,.66-9.02,1.92Z"/><path class="cls-27" d="M569.32,803.28c2.87,5.36,5.67,10.76,8.63,16.08,6.27,11.26,14.66,21.2,24.69,29.29,3.09,2.51,6.2,5,9.19,7.62,3.37,2.93,3.28,3.86,.62,7.63-2.94,4.15-7,5.55-11.87,5.77-6.11,.27-12.21,.66-18.31,1.17-45.77,3.92-89.61,15.68-132.15,32.67-14.49,5.79-28.87,11.78-42.87,18.68-2.15,1.06-4.15,2.7-6.79,2.52-1.83-4.52,1.82-6.79,4.19-9.23,43.51-44.77,93.11-80.83,151.06-104.83,4.72-2.09,9.28-4.56,13.61-7.37Z"/><path class="cls-76" d="M1263.72,520.46c-.22,3.8-2.29,6.93-3.88,10.19-21.24,43.41-42.51,86.81-63.82,130.18-.98,2.24-2.13,4.41-3.42,6.49-5.65,8.22-13.39,12.9-23.48,11.07-17.49-3.18-34.69-7.54-50-17.22-1-.65-2.1-1.27-3.11-2-7-4.81-7.85-7-4.07-14.4,2.81-5.78,6.41-11.14,10.69-15.93,6.26-6.33,15.22-8,22.29-12.91,10.88-6.17,21.33-13,31.62-20.13,27.03-17.56,51.52-38.76,72.77-63,4.15-4.65,6.6-11.72,14.41-12.34Z"/><path class="cls-66" d="M756.32,721.13c1.26-7.31,.09-14.65,.2-22,.36-22.32,5.6-43.45,14.32-63.9,4.44-10.43,9.47-20.54,14.46-30.7,9.46-19.26,21.11-37.21,33.31-54.79,11.13-16,22.85-31.69,34.35-47.49,13-17.79,25.49-35.85,36.66-54.83,6.35-10.79,12.79-21.55,18.22-32.86,.79-1.64,1.61-3.32,3.29-4.31,2.3,9.24,2.52,18.74,3,28.14,.84,17.67,.9,35.38,1.29,53.08,.05,.61,.05,1.22,0,1.83-.17,1.14,0,2.65-1.58,2.86-.87,.09-1.74-.14-2.46-.63-6.6-4.93-13.08-10-18-16.8-1.78-2.47-3.58-4.94-5.5-7.31-1.2-1.39-3.3-1.55-4.7-.35-.28,.24-.52,.53-.7,.85-.89,1.6-1.37,3.39-1.39,5.22-.62,6.13,.11,12.19,1,18.24,.21,1.5,.66,3,.93,4.48,.33,1.89,.28,3.68-1.84,4.6-3.58,1.56-3.85,4.5-3,7.68,1.25,4.71,2.77,9.35,4.11,14,.5,1.74,.82,3.53,1.22,5.29q-4-3.25-7.52-1c-12.66,8-24.1,17.77-34,29-12.35,13.9-23.89,28.51-33.64,44.42-3.66,6-7.31,12-10.51,18.23-4.6,8.94-9.83,17.56-13.6,26.94-2.61,6.51-6,12.71-8.44,19.29-5.53,15.21-10.62,30.58-16,45.86-.83,2.39-1.77,4.66,.72,6.63-2,2.57-2.41,2.59-4.2,.33Z"/><path class="cls-66" d="M1415.68,728.23c-5.73-8.25-11.56-16.44-17.18-24.76-8.73-12.92-17.25-26-26-38.88-13.21-19.47-27.26-38.32-42.15-56.53-8.13-9.94-16.49-19.61-25.33-28.94-9.38-9.91-20.33-17.53-31.92-24.41-2.38-1.42-5-2.5-6.09-5.29,4.4-9.37,8.77-18.76,13.22-28.1,.91-1.92,2.43-2.52,4.49-1.42,5.38,2.87,11.16,5.13,16.15,8.55,26.75,18.3,49.79,40.26,66.27,68.54,8.39,14.54,15.55,29.75,21.39,45.49,4.93,13.13,9.72,26.31,14.28,39.57,5.84,17,12.18,33.84,20.58,49.81,1,1.81,.08,2.06-1.48,1.74l-6.23-5.37Z"/><path class="cls-16" d="M1263.72,520.46c-3.42,3.87-7,7.57-10.22,11.63-13.45,17.2-29.54,31.66-46.6,45.08-9.58,7.53-19,15.33-29.74,21.25-3.14-5.54,1.19-9.32,3.56-13.2,12.91-21.14,26.71-41.72,40.21-62.47,47.66-73.24,96.47-145.7,145.22-218.21,2.06-3.07,2.83-9.95,9.77-6.82-3.59,7.42-7.08,14.88-10.78,22.24-31.29,62.29-62.62,124.57-94,186.82-2.29,4.64-4.93,9.12-7.42,13.68Z"/><path class="cls-76" d="M799.11,500.47c-6.33,11.15-12.67,22.31-19,33.46-3.76,6.64-7.62,13.23-11.22,20-2.77,5.45-6.27,10.49-10.39,15-16,16.82-31.94,33.73-49.84,48.62-9.14,7.66-18.72,14.77-28.69,21.31-11.04,7.12-21.63,14.91-31.72,23.33-1,2.29-.36,5.1-2.27,7.11-8.65,6.62-18.88,9.88-28.89,13.56-23,8.44-46.09,16.22-70.52,19.58-7.15,1-13.91-.92-20.87-.57-5.47-1.89-11-3.75-16.41-5.71-.4-.14-.66-.93-.81-1.47s.25-1.09,1-1.16c18.49-1.59,35.66-7.93,52.69-14.75,2.55-1,5.13-2,7.76-2.77,23.43-6.75,44.63-18.18,65.13-31,25.19-15.79,48.33-34.27,70.36-54.16,28.16-25.42,54-53.1,79.94-80.74,3.76-4,7.76-7.77,11.65-11.65,1.78-.46,2.63,.05,2.1,2.01Z"/><path class="cls-76" d="M909.43,325.53c3.42,3.53,5.69,7.86,8.1,12,10,17.33,19.37,35,26.64,53.74,2.41,6.21,5.38,12.21,7,18.71,1.73,1.73,.73,4.06,1.33,6,3.8,22.24,9.6,44.06,13.71,66.25,3.96,21.65,4.14,43.83,.53,65.54-3.65,22.57-8.55,44.94-13.92,67.19-.7,2.34-1.71,4.57-3,6.64-16.9,7.74-27.42,11.45-34.3,12,.2-4.07,2.13-7.55,3.53-11.13,5.56-13.91,9.82-28.3,12.73-43,3.41-18.31,5.63-36.82,6.67-55.41,1-16.49,.6-33-.18-49.42-1.69-36.28-7.44-72.26-17.16-107.25-3.73-12.91-8.41-25.52-14-37.74-1.06-2.39-1-4.17,2.32-4.12Z"/><path class="cls-27" d="M1156.86,393.94c-.12,4-1.61,7.72-2.8,11.48-3.64,11.45-4.71,23.32-5.92,35.17-.88,8.62,1.11,17,2.52,25.89-5.12,1.55-10.33,.63-15.35,1.39s-10.32,1.19-15.44,2c-5.41,.9-10.83,1.94-16.15,3.28-5,1.25-10,2.84-14.89,4.52s-9.68,3.73-14.54,5.54-9,4.68-14.24,6.22c.11-3.61,2.25-5,3.76-6.79,7.23-8.37,15.88-15.2,24.4-22.16,7.09-5.8,14.26-11.5,21.4-17.25,.41-2.3-.78-2.6-2.62-2.08-18.28,7.54-34.33,18.54-48.74,31.93-12.78,11.87-24.5,24.7-33.92,39.5-1.32,2.05-2.96,3.87-4.85,5.4-6.18,5-12.52,9.76-18.83,14.57-.41,.31-1.12,.21-1.68,.31-.61-.71-.71-1.72-.25-2.53,.78-2.63,1.73-5.21,2.84-7.72,18.33-36.58,41.93-68.86,76.79-91.45,10-6.48,19.23-14,29.36-20.23,1.31-.81,2.11-2.25,2.1-3.79,15.63-4.56,30.72-11.08,47.05-13.2Z"/><path class="cls-34" d="M685.05,471.27c.07,2.07,.78,3.47,3.2,3.41,7.36-.18,14.64,.76,21.94,1.52,17.45,1.82,34.34,5.84,50.33,13.09,7.48,3.38,14.6,7.57,21.91,11.41-3.73,5.64-18.92,21.61-26.49,27.93-1.59-.41-2.35-1.74-3.23-2.94-7.61-10.31-17.42-17.91-28.87-23.51-7.15-3.48-14.58-6.33-22.22-8.53-2.05-.56-4.16-.9-6.29-1-.86,.03-1.66,.47-2.15,1.18-.32,.81,.08,1.73,.89,2.05,.08,.03,.16,.05,.24,.07,15.45,4.47,26.11,15.37,36.26,27,4.23,4.82,8.31,9.77,12.45,14.68,1.14,1.35,1.2,2.77-.14,4-7.43,6.83-14.87,13.64-22.34,20.43-1.39,1.25-2.95,.81-4-.42-2.24-2.5-4.4-5.09-6.43-7.77-24.67-32.48-55.16-58.73-88.1-82.37-.93-.75-1.82-1.54-2.66-2.39,1.47-1.63,3.68-2.39,5.84-2,19.84,2.66,39.75,4.78,59.86,4.16Z"/><path class="cls-76" d="M1073.24,419.55c-3.83,3-7.58,6-11.51,8.85-25.33,18.23-46,40.56-60.82,68.19-1.8,.43-2.66-.11-2.11-2.07,3.8-15.47,9.62-30.38,17.31-44.33,23.48-43.83,55.89-79.39,98.85-104.86,26.9-15.95,56-25.82,86.88-30.58,3.93-.61,7.87-1.12,11.81-1.63,.61,0,1.21,.07,1.8,.22-2.36,4.24-5.83,7.47-14.08,13.07-3.77,1.14-6,4.53-9.2,6.45-25.47,15.17-50.89,30.31-74.35,48.63-15.48,12.05-29.1,26.16-44.58,38.06Z"/><path class="cls-76" d="M840.22,419.91c-2.43,7.27-6,14-9.68,20.68-1.37,2.5-3.31,3.47-6,2.95-19.67-3.8-39.54-2.31-59.33-1.82-14,.34-28,1.86-42,2.86-1.52,.1-3,.21-4.56,.35-3,.29-5.42-.69-6.82-3.51-6.2-12.47-17.74-16.91-30.14-20-1.47-.37-3-.62-4.39-1.09-.23-.08-.41-1.13-.21-1.52,.36-.47,.86-.82,1.42-1,12.74-5.19,24.54-12.28,36.84-18.34,.9-.5,1.88-.84,2.89-1,35.8-13.48,70.73-10.25,104.72,6,7.01,3.27,14.35,7.18,17.26,15.44Z"/><path class="cls-34" d="M401.86,1391.44c-2-3.22-2.09-7-2.71-10.56-1.84-10.51-3.16-21.11-4.86-31.65-1.47-9.67-1.84-19.48-1.12-29.23,1.22-19.21,3.32-38.32,9.13-56.79,2.84-9,6.06-17.89,11.42-25.86,2.41-3.9,6.23-6.73,10.67-7.89,8.25-2.2,16.38-4.83,24.54-7.32,10.46-3.35,20.63-7.55,30.4-12.57,2.73-1.35,4.08-.48,4.26,2.4,.11,1.22,.14,2.44,.06,3.66-1.52,16.15-.67,32.33-.69,48.5-.04,.61-.14,1.21-.28,1.8-.41,.67-1.29,.88-1.95,.46-.14-.09-.26-.2-.37-.32-4.26-7-.89-15-2.67-22.41-37.31,39.76-65.25,84.3-73,139.44-.43,2.82,.19,6.28-2.83,8.34Z"/><path class="cls-66" d="M1241.75,759.34c2.3-3.39,6.17-4,9.61-4.72,20.22-4.42,40.53-6,60.92-.85,6.22,1.54,12.25,3.74,18,6.57,2.85,1.3,4.74,4.07,4.94,7.19,.73,6.72-.34,13.51-3.08,19.68-3.94,9.28-7.79,18.62-11.16,28.11-4,11.24-7.42,22.67-8.27,34.7-.31,2.42-.78,4.83-1.4,7.19-4.79,2.07-7.59-1.42-10.12-4.18-23-25-42.82-52.18-57.22-83.08-1.6-3.3-2.36-6.94-2.22-10.61Z"/><path class="cls-34" d="M348.35,1229.45c.82-3.43,3.47-5.7,5.45-8.36,17.81-24,32.14-49.79,42.07-78,6.25-18.22,10.66-37.03,13.15-56.13,.45-3.34,.6-6.71,.45-10.07-.15-3.64,1.51-5.66,4.7-6.94,12.19-4.89,24.25-10.11,36.55-14.7,11.73-4.36,23.72-8,35.55-12.12,9.8-3.41,19.54-7,29.31-10.55,1.08-.39,2.1-1.2,3.4-.63,1.06,1,.71,2.27,.38,3.39-.8,2.63-2,5.16-2.58,7.83-.77,4.28-3.75,7.84-7.83,9.35-3.64,1.59-7.17,3.43-10.57,5.48-35.95,20.73-62.85,50.16-82.62,86.36-2,3.74-3.35,7.86-5.12,11.75-1.58,3.36-1.86,7.18-.8,10.73-14.45,15.66-27.37,32.67-42.29,47.93-3.82,3.91-7.19,8.3-11.31,11.93-2.13,1.95-4.28,4.71-7.89,2.75Z"/><path class="cls-27" d="M659.03,687.88h7.93c1.71,1,3.37,1.38,4.91-.3,6.58-1,13.14-2.19,19.74-3.09,14-1.92,27.69-4.82,40.76-10.31,.83-.37,1.7-.65,2.59-.85,1.34-.24,2.52,.22,2.72,1.66,.2,1.82,.28,3.64,.24,5.47,.05,9.79,0,19.59,1.5,29.31,.19,1.52,.26,3.04,.2,4.57,0,1.59-1.04,2.99-2.57,3.42-1.74,.56-3.54,.93-5.36,1.08-22.27,1.84-44.58,2.73-66.93,2.55-12.85-.1-25.7-.38-38.54-.77-27.84-.96-55.45-5.26-82.26-12.82-.83-.34-1.62-.78-2.34-1.31,2.35-3.68,6.22-3.4,9.79-3.6,35.5-2.05,70.81-6.52,105.7-13.4,.93-.04,1.72-.7,1.92-1.61Z"/><path class="cls-27" d="M405.51,1042.3c1.19-3,3.9-4.62,6.07-6.7,20.8-19.82,40.18-41.07,58-63.61,9.66-12.23,18.33-25.2,25.94-38.8,4.69-8.22,8.62-16.86,11.73-25.8,2-6.12,2.16-6.23,8.76-7.53,7.48-1.47,15-2.79,22.55-3.87,12.69-1.8,25.42-3.39,38.14-5,2.37-.3,4.84-1,7.14,.43,1.74,4.05-1.63,6.09-3.48,8.66-10.61,14.8-25.43,25.39-38.38,37.81-33.5,32.13-69.8,61-107.47,88-6.43,4.63-12.86,9.27-19.14,14.12-2.77,2.18-5.82,4.99-9.86,2.29Z"/><path class="cls-76" d="M1241.75,759.34c2,1.28,2.31,3.54,3.07,5.45,4.01,9.87,8.89,19.36,14.6,28.36,10.69,17,22,33.58,35.43,48.64,3.63,4.09,7.48,8,11.26,12,1.48,1.54,3,3,5.25,3.47-.17,3.35,0,6.77-.57,10-2.08,10.95-1.39,21.85-.17,32.8,.44,3.94,.68,7.9,.91,11.86-.07,.84-.24,1.66-.52,2.45-.76,0-1.52,.31-1.88,0-16.53-12.13-32.29-25.16-44.28-42-14.41-20.24-23.64-42.48-25.47-67.61-.75-10.35-1.55-20.68-1.43-31.06-.04-3.97,.47-7.93,1.54-11.76,.24-1.2,1.1-2.19,2.26-2.6Z"/><path class="cls-66" d="M659.03,687.88l4.48,2.9c-6.36,1.44-12.08,2.86-17.85,4-9.54,1.87-19.08,3.79-28.69,5.26-7.5,1.14-15.21,1.08-22.63,2.54-11.12,2.19-22.51,.68-33.59,3.1-2.63,.57-5.47,.17-8.21,.27-3.64,.14-7.28,.34-10.92,.51-5.52-.81-10.75-2.68-16-4.58,1.12-.42,2.23-1.18,3.37-1.2,24.33-.62,47.47-6.89,70.29-14.71,14.4-4.93,28.77-9.93,42.47-16.63,1.63-.8,3.12-1.85,4.68-2.79-.15-3.21,2.31-1.49,3.64-1.92,2.88-.93,5.73-2,8.66-2.78,14-3.6,26.47-10.26,38.46-18.18,14-9.23,27-19.67,39.71-30.48,2.75-2.34,5.18-5.13,8.61-6.6,1.08,1.08,1.17,2.81,.21,4-2.44,12.21-5.72,24.27-6.53,36.77-.35,5.39-3.17,9.08-8.09,11.14-5.6,2.35-11.16,4.84-16.88,6.86-12.27,4.48-24.78,8.28-37.46,11.39-6.53,1.42-12.82,3.74-18.71,6.9-2.42,1.38-2.35,1.66,.98,4.23Z"/><path class="cls-76" d="M867.11,1204.13c-5.17-6-10.13-12.23-15.55-18-20.89-22.28-33.25-48.74-38.93-78.52-.57-3-.64-6.06-.94-9.09s.24-6.16-1.59-8.89c-.67-18.97,2.44-37.89,9.16-55.64,1.94-5.08,3.55-10.42,7.44-14.54-1.42,8.4-2.85,16.8-4.28,25.2-2.57,14.16-2.45,28.67,.34,42.78,3.45,16.76,7.12,33.44,14.68,49,3.45,7.15,7.57,13.96,12.31,20.33,3.29,4.39,6.25,9,9.38,13.55,.67,1.02,1.42,1.98,2.25,2.87,.45,.37,1.03,.54,1.61,.47,.91-.07,1.58-.87,1.51-1.78,0-.05-.01-.1-.02-.15-.38-2.7-.91-5.38-1.38-8.07-1.5-1.59,0-4.16-1.8-5.65h0c-1.18-2.38-1.1-4.1,2.18-4.1v.09c.16,1,1,1.41,1.5,2.14v.08c1.19,.87,.8,2.66,2,3.5,5.15,6.41,9.76,13.24,15.61,19.1,6.13,6.39,13.21,11.78,21,16,9,4.66,16.54,11.34,25,17.26-2.9,4.68-5.71,9-8.3,13.43-2.45,4.2-4.67,8.54-7,12.82-2.68,.56-4.74-.84-6.77-2.21-11.14-7.53-22.24-15.11-32.79-23.49-2.82-2.29-5.08-5.2-6.62-8.49Z"/><path class="cls-76" d="M414.51,1187.38c.42,1.5,1,3.34,2.93,2.09,2.51-1.71,4.86-3.66,7-5.82,18.33-17.79,38.81-32.73,60.64-45.89,1.83-1.1,3.75-2.07,5.67-3,1-.31,2.06,.25,2.37,1.24,.06,.2,.09,.41,.08,.62-.1,1.21-.27,2.41-.49,3.6-2.37,13.25-5.14,26.43-6,39.89-.39,5.83-3.81,9.62-8.59,12.19-5.09,2.81-10.34,5.32-15.72,7.51-10.81,4.27-21.68,8.44-32.68,12.16-32.49,11-64.68,22.65-95.35,38.17-1.9,.44-2.5-.35-2-2.15l3.21-3.56c.83-.61,1.59-1.33,2.24-2.13l-.09,.09c1.51-.74,2.87-1.75,4-3,4.46-5.56,10.57-9.09,16.28-13.08,15.49-10.79,30.54-22.14,45.47-33.69,3.16-2.45,6.09-6.13,11.03-5.24Z"/><path class="cls-66" d="M405.51,1042.3c4-.09,6.59-3.08,9.46-5.16,11.8-8.59,23.43-17.43,35.07-26.24,13.59-10.28,27.37-20.33,40.61-31,6.84-5.53,13.27-11.68,20-17.29,9.63-8,17.68-17.68,27.87-25,1.44-1.14,2.78-2.39,4-3.76,7.74-7.77,15.85-15.14,24.08-22.4,6.6-5.84,11.9-12.94,17.21-20h.08c2.63-.93,5.3-1.95,6.23,2.13-7.82,12.67-15.64,25.36-23.45,38.08-4.12,6.74-7.5,13.93-12.33,20.25-5.13,10.57-14.65,17.13-23.23,24.27-37.91,31.57-78.81,58.65-123.39,80-5.93,2.83-11.74,6.73-18.93,5.65-1.29-.73-2.22-1.65-1.6-3.3,5.49-6.14,12.33-10.71,18.32-16.23Z"/><path class="cls-34" d="M840.22,419.91c-1.37-.61-2.67-1.38-3.87-2.28-13.41-12.53-29.77-18.59-47.44-21.75-12.01-2.02-24.2-2.84-36.37-2.43-11.65,.28-22.83,3.27-34.14,5.55-.65-.2-.9-.47-.74-.79s.36-.52,.56-.52c4.58-2.41,9-5.07,13.75-7.2,33.21-15,67.62-26.41,103.56-32.83,8.7-1.55,17.49-2.89,26.42-2.29,3.34,.22,4.36,1.59,3.48,4.71-.41,1.46-1,2.89-1.5,4.31-6.23,16.58-13,32.92-20.23,49.09-.98,2.22-2.31,4.29-3.48,6.43Z"/><path class="cls-76" d="M1129.62,507.58c-8.58-1.78-16.93-.47-25.36,1.42-32.82,7.32-63.39,20.23-92.58,36.67-2.08,1.28-4.23,2.44-6.44,3.49-2.56,1.18-5.57,.86-7.82-.84-1.72-1.21-2-3.19-.56-4.66,.86-.87,1.79-1.66,2.77-2.39,15.22-11.3,30.41-22.6,46.53-32.65,23.37-14.73,49.63-24.27,77-28,25-3.4,50-3.15,74.7,2.85,1.19,.24,2.37,.55,3.53,.94,1.15,.38,1.77,1.62,1.39,2.77-.03,.08-.06,.16-.09,.23-.59,1.76-1.79,3.24-3.39,4.18-4.75,2.69-9.96,4.47-15.36,5.24-18.28,2.75-35.83,8.99-54.32,10.75Z"/><path class="cls-16" d="M949.85,621.65c-1.51-1.12-1.14-2.58-.8-4.1,2.15-9.83,4.31-19.66,6.39-29.5,2.32-11,4.76-22.06,6.8-33.15,4.9-26.68,5.09-53.37-.67-80-2.13-9.83-4.23-19.67-6.59-29.45-2.49-9.77-3.65-19.82-3.44-29.9,.29-.53,.96-.73,1.49-.44,.18,.1,.34,.25,.44,.44,6,14.44,10.12,29.5,14.2,44.54,8.51,31.31,14.53,63.24,18,95.49,1.59,14.9,2.1,29.92,3,44.89,.06,1.83-.03,3.67-.27,5.49-.14,2.2-1.56,4.11-3.62,4.9-1.96,.86-3.96,1.62-6,2.26-9.57,2.91-19.25,5.72-28.93,8.53Z"/><path class="cls-66" d="M1129.62,507.58c1.51-2.81,4.44-2.89,7-3.57,16.82-4.44,33.87-7.81,51-11,3.85-.72,7.62-2.53,11.7-1.42-8.66,12.54-17,25.32-27.4,36.56-7.42,3.77-16.05,4.36-23.92,1.65l-.31-.24c-.76-.85-1.91-.78-2.85-1.21-8.84-.87-17.77,.19-26.16,3.1-23.12,7.81-45.91,16.46-66.94,29.08-5,3-9.73,6.27-14.63,9.37-3,1.91-6.14,2.45-9.52,.72-4.49-2.29-5.14-4.73-1.62-8.3,3.98-4.22,8.23-8.17,12.71-11.85,21.16-16.57,44.57-28.56,71-34.28,7.44-1.61,14.8-3.61,22.19-5.44,.21-1.79-1.23-2.27-2.38-3l.13-.17Z"/><path class="cls-62" d="M685.05,471.27c-3.86,2.72-8.16,3.31-12.82,3.43-12.44,.31-24.65-1.34-36.86-3.36-5.33-.88-10.72-1.48-16.07-2.21l-15.85-9.2c1.71-2.49,3.63-1.41,5.15-1.33,18.63,.95,37.25,2.18,55.91,1.37,22-1,43.93-2.37,65.82-4.91,22.76-2.65,45.62-4.46,68.43-6.68,7.66-.74,15.28-.09,22.89,.62,2.77,.26,3.72,1.82,2.56,4.37-3.42,7.52-7.08,14.94-12.59,21.2-3.42,3.89-7.09,7.59-10.79,11.23-2.35,2.32-4.39,2.37-6.06-.26-3-4.74-7.78-6.79-12.49-8.87-11.23-4.88-23.17-7.95-35.36-9.11-18.62-1.92-37.25-1.61-55.7,2-2.11,.39-4.11,1.09-6.17,1.71Z"/><path class="cls-11" d="M1146.11,617.87c-7.1,5.04-15.04,8.77-23.46,11,.84-3.37,3.1-5.89,5.11-8.55,77.5-102.73,153.57-206.51,228.2-311.34,11.35-15.91,22.82-31.75,34.23-47.62,1.37-.68,.91-2.57,2.21-3.29l.1-.17c.49-.68,1-1.35,1.5-2v-.05c3.09,0,3.2,1.6,2,3.86h0c-1.21,.87-.73,2.66-1.92,3.54-2.06,4.59-3.91,9.29-7.14,13.25-13.48,18.05-26.09,36.72-38.62,55.43-57.15,85.41-116.45,169.31-177.12,252.24-8.28,11.32-16.41,22.72-25.09,33.7Z"/><path class="cls-76" d="M389.3,1060.71c5.95-1.53,11.39-4.33,16.88-7,47.44-22.77,91.53-51.93,131.06-86.67,5.73-5,11.41-10.1,17.12-15.16,.14,1.53-.21,3.06-1,4.37-8.74,16.78-16.62,33.99-23.62,51.57-1.33,3.73-4.27,6.67-8,8-6.22,2.55-12.29,5.43-18.2,8.62-30.5,16.49-63,28-96.05,37.89-9.63,2.88-19.27,5.8-29.21,7.52-2.19,.92-4.11,1.35-3.91-2.12l8.34-5.32c2.08-1.08,4.4-1.16,6.59-1.7Z"/><path class="cls-27" d="M1147.97,529.82c2.63-1.49,5.64-2.16,8.65-1.95,5.09,.09,10.18,.2,15.27,.3-1.41,2.33-2.67,4.77-4.25,7-14.43,20.14-29,40.18-43.31,60.38-3.24,4.56-7.2,6.43-12.55,5.51-6.32-1.09-12.63-2.26-18.94-3.47-1.64-.31-2.08-2.09-.91-3.57s2.36-2.82,3.62-4.14c13.16-13.76,27.21-26.43,44-35.67,2.43-1.29,4.54-3.12,6.14-5.36,.29-.53,.31-1.16,.06-1.7-.42-.44-1.02-.66-1.63-.6-6.65,1.08-13.01,3.53-18.68,7.18-12.79,7.81-25.45,15.83-37.1,25.32-3.55,2.9-7.14,5.78-10.44,9-3.09,3-6.22,3.41-10,1.58-4.9-2.38-10.43-3.44-14.81-6.91,.57-2.9,2.86-4.09,4.69-5.49,22.21-17.06,46.06-31.14,72.8-40,4.64-1.54,9.26-3.14,13.87-4.76,1.43-.52,2.94-1,3.52-2.65Z"/><path class="cls-27" d="M1023.74,421.49c-3.85,7-7.81,13.85-11.51,20.88-9.3,17.66-16.74,36-20.86,55.64-.4,1.79-.9,3.56-1.51,5.29-.15,.44-.76,.73-1.41,1.31-2.59-6.33-2.81-13.13-3.77-19.71-1.59-10.89-2.53-21.88-4-32.78-.68-4.53-1.7-9-3.06-13.38-5.68-19.06-9.57-38.6-11.63-58.38-.83-7.88-2.84-15.66-2-23.68,4.75-.6,6,3.49,8,6.27,5.66,7.93,10.92,16.14,16.73,24,7.88,10.65,16.77,20.08,28.54,26.54,3.14,1.7,6.71,3.42,6.48,8Z"/><path class="cls-62" d="M414.51,1187.38c-22.88,18.19-46.29,35.66-70.66,51.83-.76,.5-1.55,.94-2.33,1.41-.42,.65-1.29,.83-1.94,.4-.2-.13-.36-.31-.47-.52,2.69-3.97,5.79-7.66,9.24-11,6.88-3.73,11.31-10.08,16.48-15.62,2.07-2.22,3.76-4.82,5.93-6.94,11.84-11.55,22.25-24.3,32.14-37.51,1.83-2.44,3.81-3.91,6.94-2.53,2.54-.91,3.43-3.38,4.86-5.28,21.82-28.88,48.19-52.57,79.9-70.17,2.13-1.18,4.3-2.28,6.51-3.29,.84-.34,1.81,.06,2.15,.91,.13,.33,.16,.69,.07,1.03-1.24,5.65-2.54,11.29-3.91,16.92-.55,2.29-2.62,3.29-4.39,4.44-8.96,5.82-17.65,12.03-26.06,18.63-12,9.41-23.36,19.63-34.41,30.18-8.27,7.83-14.37,17.32-20.05,27.11Z"/><path class="cls-86" d="M1146.11,617.87c-1.5-1.17-1.5-2.55-.42-4,3-3.87,6.12-7.62,9-11.57,18.25-25.22,36.4-50.5,54.67-75.71,16.67-22.99,33.14-46.11,49.43-69.35,11.56-16.5,23.37-32.83,34.72-49.48,12.56-18.42,25.34-36.69,38-55.08,16.75-24.44,33.47-48.9,50.15-73.39,.86-1.25,1.87-2.39,3-3.39,.8-.7,1.68-.15,2.34,.57-2.85,7.5-6.22,14.73-11,21.2-1.89-.77-2.76,.48-3.63,1.8-4.72,7.13-9.44,14.25-14.17,21.37-14,21.11-28.04,42.21-42.13,63.3-8.5,12.67-17.36,25.09-25.76,37.82-23.19,35.18-46.28,70.42-69.29,105.71-12.18,18.67-24.24,37.41-36.17,56.23-2.9,4.58-6.54,8.87-7.59,14.47-10.15,7.09-20,14.28-31.15,19.5Z"/><path class="cls-27" d="M867.11,1204.13c13.83,10.54,27.66,21.09,42.33,30.48,1.44,1.11,2.78,2.36,4,3.71-5.37,13.91-11,27.78-13.74,42.5-3.63,19.43-7.76,38.8-9.17,58.57-.28,3.94-.1,7.91-.08,11.86,0,1.84,.06,3.66-1.21,5.19-.57-5.14-1.58-10.22-3-15.19-1.95-7.65-3.09-15.5-4.51-23.28-3-16.75-6.37-33.46-8.9-50.29-1.3-7.81-2.16-15.68-2.55-23.59-.29-9.08-2-18.1-2.87-27.17-.41-4.27-.24-8.52-.3-12.79Z"/><path class="cls-34" d="M684.78,548.33c7.91,8.08,14.62,17.14,21.63,25.45-.76,2.56-2.37,3.53-3.75,4.68-13.39,11.18-27,22.07-41,32.52-3.78,2.83-7.52,4.75-12.52,4.61-3.89-.1-7.79,1.62-11.73,1.89-20.22,1.37-40.31,.39-60.14-4.17-.27-.06-.48-.36-.72-.55-.25-6.17,5.09-5.12,8.32-5.84,20.59-4.66,40.32-12.55,58.44-23.38,13.8-8.15,26.46-17.59,35.85-30.89,1.41-1.95,2.95-3.89,5.62-4.32Z"/><path class="cls-27" d="M1374.11,1198.04c.81-1.96,1.01-4.12,.57-6.2-1.81-8.74-.98-17.82,2.36-26.09,1.42-3.46,3.54-6.4,5.36-9.57s3.71-6.32,5.35-9.59c1.34-2.51,1.05-5.58-.74-7.79-.98-1.55-2.05-3.04-3.2-4.47-4.54-4.88-6.78-10.81-8.18-17.17-1.79-8-2.73-16.21-3.83-24.38-1.7-12.5-1.34-25-1.62-37.5-.18-8-2.62-15.63-5.14-23.16-1.32-3.75-2.9-7.4-4.74-10.92-3.17-6.33-7.18-11.9-13.3-15.93-6.62-4.4-13.58-8.27-20.8-11.59-4.25-1.93-8.81-2.39-13.35-3,1.85-1.22,4-1.26,6.08-1.37,10.87-.58,21.63,.93,32.43,1.68,3.63,.25,6.9,2,10.08,3.76,4.57,2.19,7.68,5.77,10.1,10.16,9.1,16.53,13.65,34.2,14.95,53,1.25,18.09,.5,36.24,2.17,54.29,1,3.52,2.24,7,3,10.56,1,4.55,2.43,8.85,5.26,12.56,3.74,4.92,3.5,10.25,1.77,15.69-1.59,5-3.87,9.78-7.65,13.42-6.45,6.21-8.69,13.77-8.43,22.4,.06,1.83,0,3.67,0,5.5-.2,5.46-.64,5.85-6.7,6-.61-.03-1.21-.13-1.8-.29Z"/><path class="cls-66" d="M588.11,779.1c2.45-3,6.16-3.85,9.49-5.24,21.14-8.83,43-15.49,65-21.8,17.57-5,35.2-9.91,53.17-13.4,.8-.16,1.48-1,2.22-1.48,6.37-.88,12.73-1.8,19.1-2.6,.87-.09,1.74,.17,2.42,.71,.86,.77,.18,1.78-.46,2.35-14.66,13-29.07,26.24-48.11,32.91-10.96,3.81-22.17,6.85-33.56,9.1-19.71,3.93-39.56,3.65-59.42,1.64-3.32-.32-6.56-1.44-9.85-2.19Z"/><path class="cls-66" d="M1073.24,419.55c.71-3.58,3.69-5.46,6-7.79,15.51-15.61,32.51-29.47,50.25-42.45,18.79-13.57,38.45-25.87,58.87-36.83,1.09-.53,2.21-1,3.35-1.42,2.21-.42,2.91,.51,2.32,2.59-2,2.33-3.84,4.72-5.89,7-14.17,15.58-25.21,33-31.29,53.31-2.68,1.96-5.67,3.46-8.85,4.44-9.85,2.93-19.69,5.95-29.45,9.17-2.86,1-5.99,.88-8.76-.35-6-1.16-11.44,.06-16.8,2.81-6.5,3.31-13.16,6.35-19.75,9.52Z"/><path class="cls-66" d="M569.32,803.28c.23,3.52-1.38,5.72-4.7,6.86-9.55,3.27-18.53,7.85-27.72,12-12.56,5.64-24.3,12.71-36.17,19.58-16.41,9.5-31.51,20.89-46.51,32.39-6.52,5-12.28,11-18.76,16-10.89,8.49-20.11,18.7-30,28.25-1.94,1.87-4.35,3.45-5,6.35l-.16,.12c-.57,.41-1.15,.8-1.74,1.18l-3.77,2.18c-1.21,1.24-2.47,1.13-3.75,.13,6.13-10.28,14-19.3,22-28.06,27.47-30.1,57.62-57.18,92.19-79,18.85-11.9,38.44-22.49,58.33-32.52,2.46,4.62,4.39,9.49,5.76,14.54Z"/><path class="cls-67" d="M528.64,601.2c11-3.68,22.14-7,33-11.12,24.74-9.44,47.49-22.38,67.59-39.79,9.4-8.14,16.89-17.61,21.43-29.27,.55-1.41,1.35-2.7,2.19-4.34,5.95,2.21,8.83,7.6,13,11.36s8.26,7.28,11.09,12.11c.52,5.12-3.2,7.76-6.48,10.34-32.7,25.9-70.7,44.28-111.3,53.86-3.56,.89-7.26,1.12-10.9,.68-2.59,.13-5.2-.35-7.8,0-4,.46-7.73-1-11.52-1.92-.71-.31-1-.7-.84-1.15s.34-.76,.54-.76Z"/><path class="cls-34" d="M451.32,1466.26c14.47-21,24.6-44.19,33.76-68,2.28,.61,1.65,2.39,2,3.55,.36,1.17,.62,2.37,.78,3.58,2.47,15.38,4.94,30.76,7.39,46.14,.05,.31,.06,.62,.12,.91,1.6,7.19-.31,12.88-6,17.91-8,7.08-16.14,14-24.7,20.47-9.54,7.16-19.1,14.28-28.68,21.36-1.28,.81-2.62,1.53-4,2.15-3.26-2.38-2-5.59-.88-8.14,4.72-10.42,7.34-21.63,12.28-32,.89-1.5,1.87-2.95,2.94-4.33,1.22-1.77,3.17-2.6,4.99-3.6Z"/><path class="cls-67" d="M445.96,1473.84c-4.06,11.5-7.35,23.29-12.66,34.34-.9,1.88-1.92,3.88-1.3,6.15-10.71,9.49-22.06,18-35.06,24.22-2,.51-2.6-.42-2.26-2.26,23.32-25,35.46-55.12,40.76-88.4,2.15-13.26,2.87-26.72,2.13-40.13-.64-11.25,0-22.63-3.54-33.58-1-3.21,.36-6,2.41-8.43,2.35-2.79,4.82-5.48,7.24-8.21,4.68,1.74,5.49,6.18,6.9,10.1,7.3,20.26,7.73,41,3.63,61.89-2.3,6.92-1.44,14.24-2.69,21.28-1.64,4.07-2.52,8.41-2.59,12.8,.13,1.4,.13,2.81,0,4.21-1.82,1.61-1.31,4.34-2.97,6.02Z"/><path class="cls-27" d="M1186.01,468.65c-6.01-.91-12.08-1.42-18.16-1.51-4.88-.14-6.32-1.7-7.32-6.54-.37-1.79-1-3.71-.67-5.42,1.23-7,.79-14,1-21.07,.11-4.18,.65-4.93,4.56-5.39,9.24-1.1,17.78-4.39,26.17-8.16,18.75-8.3,36.75-18.2,53.79-29.61,1.77-1.19,3.41-2.64,5.64-2.93,1,9.94-6.18,16.12-10.77,23.5-3.84,3.3-6.57,7.53-9.49,11.6-13.82,16.23-29.47,30.68-44.75,45.53Z"/><path class="cls-67" d="M582.56,631.23c12.21,2.56,24.7,3.27,36.94,5,.12,2.31-1.31,3-2.63,3.69-9.44,5-18.87,9.94-28.35,14.82-4.95,2.56-10.28,3.43-15.86,3.75-20.55,1.28-40.98-4.01-58.33-15.09-13.43-8.38-27-16.57-38.8-27.29-.37-1.83,.13-2.76,2.17-2.16l8.31,2.18c1.77,1.07,3.91,.75,5.77,1.54,26.57,8.65,54.12,11.16,81.77,13,2.99,.19,5.94,1.6,9.01,.56Z"/><path class="cls-67" d="M362.9,988.9l13.85-16.38c11.51-11.79,26.87-17.72,40.4-26.43,15.61-10,33-17.37,46.7-30.32,2.04-1.87,4.5-3.22,7.18-3.94,9.35-3.84,19.18-6,29-8.2,2.35-.52,3.68,.92,2.72,3-2.18,4.7-4.3,9.46-6.92,13.91-4,6.83-8.5,13.39-12.66,20.13-2.05,3.45-5.56,5.78-9.53,6.35-7.78,1.44-15.62,2.8-23.25,4.87-28.15,7.64-54.43,19.67-79.4,34.65-1.3,.78-2.63,1.53-4,2.29-1.07,1.15-2.87,1.21-4.01,.14-.03-.02-.05-.05-.08-.07Z"/><path class="cls-66" d="M547.38,603.38c15.42-2.06,30.51-6.09,44.9-12,20.69-8.3,40.69-18,59.34-30.33,9.19-6.07,17.87-12.76,25.34-20.9,3.04,2.28,5.68,5.04,7.82,8.18-4.4,10.08-11.87,17.87-20.32,24.32-25,19.1-52.84,32.4-84.06,38-1.53,.11-2.93,.9-3.82,2.15-10.05-.31-19.52-3.45-29.11-6-1.36-1.15-1.36-2.26-.09-3.42Z"/><path class="cls-67" d="M562.22,724.93l36.41,7.4c-.34,2.52-2,2.66-3.41,3.17-32,11.73-113.66,31.37-135.89,32.69-1.06-1.41,.15-2.11,1-2.8,6.82-5.65,13.66-11.27,20.51-16.88,1.51-1.16,3.09-2.23,4.74-3.2,5.27-3.91,11.62-5,17.72-6.76,14.3-4,28.53-8.26,42.87-12.12,5.32-1.44,10.56-2.36,16.05-1.5Z"/><path class="cls-27" d="M690.2,777.98c-1.6,3.75-3.87,5.4-5.81,7.32-11.06,10.95-22.13,21.89-33.22,32.82-.67,.63-1.3,1.3-1.9,2-2.65,3.16-5.89,3.85-9.87,2.93-9.84-2.15-19.36-5.61-28.29-10.27-11.33-6.06-21.22-13.93-31.17-23.94,8.46-.54,15.32,2.13,22.43,2.42,7.31,.31,14.62,1.19,21.93,.7,7.6-.51,15.23-1.15,22.75-2.34,7.22-1.2,14.36-2.79,21.41-4.75,7.01-1.9,13.86-4.37,21.74-6.89Z"/><path class="cls-37" d="M374.51,1246.24c8-4.86,17-6.6,25.74-9.38,1.93-.62,3.83-2.16,6.38-.91-.39,1.07-.86,2.11-1.39,3.12-7.79,12.65-12.62,26.47-15.85,40.86-1.03,5.09-3.87,9.64-8,12.79-14.84,11.84-31.27,21.53-48.8,28.8-1.72,1-2.47-.07-3.08-1.43-.46-2.69,.92-4.73,2.47-6.65,15.8-19.61,29.7-40.41,39.66-63.66,.74-1.34,1.72-2.54,2.87-3.54Z"/><path class="cls-69" d="M401.86,1391.44c-.71-14.58,3.66-28.27,7.8-41.91,3.04-10.52,6.74-20.83,11.09-30.88,5.77-12.76,12.95-24.84,21.41-36,11-14.57,22.42-28.76,33.67-43.11,.58-.72,1.23-1.39,1.93-2,.67-.58,1.43-1.29,2.37-.63,.44,.37,.72,.89,.78,1.46,.13,1.51,.11,3,.11,4.56v22.86c-.18,2.74-2,4.34-4,5.8-18.47,13.69-32.45,31.22-43.59,51.13-7.56,13.55-14.39,27.5-20.46,41.79-4.09,9.8-5.66,20.34-8.89,30.39-.67,.86-1.29,.82-1.86-.12l-.36-3.34Z"/><path class="cls-67" d="M1023.74,421.49c-1.16-1.91-3-2.93-4.92-3.92-12.98-6.83-24.07-16.75-32.3-28.89-6.39-9.25-12.72-18.54-19.12-27.78-1-1.48-2.26-2.82-3.4-4.22-.51-3.63-1.08-7.24-1.49-10.88-.03-1.17,.06-2.34,.25-3.5,2.65-.49,3.34,1.57,4.4,2.9,6.65,8.38,14.09,16.1,22.23,23.05,12.82,10.93,27.55,19.39,43.46,24.94,2.57,.91,5.08,2,7.61,3,.2,.08,.29,.46,.72,1.18-5.31,8.39-11.13,16.45-17.44,24.12Z"/><path class="cls-67" d="M412.99,1364.55c-.35-2.13-.05-4.31,.87-6.26,10.4-26.65,23.31-51.8,43.06-72.94,7.04-7.68,15.2-14.26,24.19-19.52,.53,.11,1.08,.15,1.62,.1-.07,9.17-.33,18.33-.14,27.49,.1,4.87-1.33,7.83-6.17,9.82-25.7,10.57-43.14,30.32-57.92,52.93-1.87,2.79-2.87,6.13-5.51,8.38Z"/><path class="cls-49" d="M451.48,1429.45c.05-3.34,.29-6.68,.72-10,2.89-16,1.26-31.66-3.71-47-1.6-4.94-3.2-9.88-4.81-14.82,8.17-10.24,16.31-17.84,23.63-22.05,1.07,.4,1,1.38,1,2.22,.43,7.9,1.54,15.84,1.07,23.68-.84,14-1.83,27.94-4.91,41.64s-6.23,27.25-9.4,40.87c-.44,1.45-.98,2.86-1.61,4.24-5.65-5.78-1.92-12.49-1.98-18.78Z"/><path class="cls-67" d="M335.82,1163.1c-11.11-.64-22.12-2.41-32.86-5.3-.93-.64-1.16-1.92-.52-2.85,.14-.2,.32-.38,.52-.52,14.94-3,29.55-7.42,43.64-13.22,17.09-7,32.13-17.27,45.9-29.47,3.41-.09,3.44,1.71,2.33,4.15-1.33,7.81-4.5,15-7.89,22-11.43,12.7-27.2,17.27-42.51,22.64-2.77,1.03-5.85,1.27-8.61,2.57Z"/><path class="cls-60" d="M1238.34,410.32c4.49-7.29,9.34-14.37,12.65-22.34,.67-.57,1.29-1.55,2-1.64,1.72-.19,1.8,1.23,1.59,2.42-.9,5.11-1.89,10.19-2.86,15.28-.11,.6-.36,1.17-.5,1.76-3.93,16.79-9.65,32.63-21.57,45.76-5.11,5.61-9.22,12.15-13.61,18.39-2.21,3.15-4.62,4.39-8.52,3.12-4.6-1.51-9.37-2.47-14.07-3.67,13.31-14.58,22.79-32.13,36.21-46.63,3.45-3.73,5.37-8.59,8.68-12.45Z"/><path class="cls-61" d="M471.03,911.83c-7.11,8.43-15.64,15.54-25.22,21-21.6,12.67-43.24,25.26-64.92,37.77-1.31,.76-2.76,1.28-4.14,1.92,.3-2.92,2.19-5,3.91-7.1,5.42-6.62,10.84-13.25,16.43-19.74,6.25-7.21,14.17-12.76,23.07-16.18,15.35-6,30.87-11.63,46.35-17.3,1.37-.5,3.01-.27,4.52-.37Z"/><path class="cls-61" d="M562.22,724.93l-62.4,17.82c-5,1.42-10,2.8-15,4.19-.69-.39-.93-1.26-.55-1.95,.1-.17,.23-.32,.39-.44,10.61-10.83,21.8-21.07,33.54-30.67,2.79-2.33,5.56-3.34,9.17-2,10.53,3.82,21.13,7.46,31.69,11.23,1.11,.5,2.17,1.11,3.16,1.82Z"/><path class="cls-60" d="M374.51,1246.24c0,7-3.67,12.78-6.82,18.61-10.59,19.59-22.56,38.25-37.53,54.85-.63,1.88-2.06,3.2-3.22,4.71-3.51,1.83-7,3.68-10.53,5.49-1.32,.79-2.9,1.02-4.39,.63l.1,.1c.15-2.7,2.31-4.18,3.82-6,8.32-10.09,15.91-20.75,22.73-31.91,6.27-10.13,11.67-20.69,15-32.15,1.77-6.2,5-10.14,11.35-11.66,3.16-.76,5.95-3.04,9.49-2.67Z"/><path class="cls-102" d="M1388.63,1112.25c-.56-1.06-1.47-2.09-1.6-3.2-.82-7-1.66-14-2.13-21-.79-11.89-.88-23.84-2-35.68-1.89-19.11-7.34-37.12-18.49-53.08-1-1.49-2-3.06-3-4.59,11.55,1.11,20,6.7,25,17.27,1.33,2.76,2.11,5.74,2.3,8.8,.36,6.4,.92,12.79,1.13,19.19,.37,11.29,.5,22.59,.78,33.88,.37,12.89-.72,25.66-1.99,38.41Z"/><path class="cls-48" d="M904.16,507.37c1.6,1.41,3,3.15,4.84,4.18,4.64,2.62,5.79,6.33,5.12,11.47-1.38,10.6-2.22,21.27-3.41,31.9-.37,3.33-1.11,6.62-1.75,9.91-.35,.94-1.4,1.41-2.33,1.05-.21-.08-.41-.2-.58-.35-3.54-4.12-7-8.28-10.6-12.54,1.07-.49,1.6-.94,2.11-.93,2,.05,4.4,1.73,5.77-.85,1-2,.5-4.23-.55-6.17-1.16-2.14-2.58-4.15-3.8-6.26-3.06-5.29-6.09-10.59-9.08-15.9-.56-1-1.3-2.12-.16-3.47,2.79-.21,4.69,2.2,7.25,2.83,1.17,.29,2.39,.65,3.42-.34,.81-.77,.28-1.66,.07-2.49-.82-3.25-1.68-6.49-2.52-9.73-1.47-1.61,0-4.15-1.76-5.65h0c-1.16-2.21-1.3-3.9,2-3.83h0c.5,.7,1.05,1.37,1.64,2l.06,.08c1.6,1.51,2.06,4.03,4.26,5.09Z"/><path class="cls-63" d="M582.56,631.23c-2.05,.47-4.13,.81-6.23,1-20.38,.57-40.63-.35-60.59-5.06-8.88-1.97-17.48-5.01-25.63-9.05,1.93-1.78,4-1.28,6.15-.44,3.63,.3,7.29,.37,10.88,1,8.41,1.46,17.04,.99,25.24-1.37,3.17-1.07,6.63-.88,9.66,.53,13.01,5.85,26.59,10.34,40.52,13.39Z"/><path class="cls-65" d="M335.82,1163.1c1.35-2.79,4.18-3.4,6.68-4.4,5.08-2,10.22-4,15.33-5.91,8.29-3.08,16.18-7.14,23.5-12.11,1.74-1.21,3.38-2.63,5.66-2.74-1.78,6.52-5,12.41-7.77,18.53-1.38,3.11-3.56,4.58-6.9,5.17-12.05,2.04-24.32,2.53-36.5,1.46Z"/><path class="cls-64" d="M584.28,807.03c-.37-.39-.63-.86-.78-1.38-.5-1.82,.39-2.27,2-2l.17,.16c.74,.26,1.32,.83,1.61,1.56l.25,.23c.73,.32,1.33,.87,1.72,1.56,3.84,3,7.63,6,11.54,8.92,9.39,6.78,19.94,11.81,31.12,14.83,1.73,.49,3.65,.55,4.72,2.56-.29,.81-.67,1.58-1.12,2.31-5,6.74-5.38,6.85-12.58,3.24-14.59-7.31-27.65-16.53-37.17-30.09-.58-.56-1.08-1.2-1.48-1.9Z"/><path class="cls-51" d="M1230.77,423.37l-22.94,32.53c-2.26,3.21-4.78,6.26-6.77,9.63-1.81,3.07-4.55,3.6-7.6,3.87l-7.44-.79c-.5-1.4-3.59-2.55-.61-4.29,3.75-2.2,6.61-5.38,9.71-8.31,2.87-2.73,5.47-5.75,8.92-7.84,1.06-.62,1.99-1.43,2.75-2.4,6.48-8.93,15.26-15.79,22-24.45,1.68-.27,2.57,.18,1.98,2.05Z"/><path class="cls-10" d="M871.02,629.05c4.84,1.05,6.58,4.85,9.88,6.35,1.03,.4,2.19-.12,2.58-1.15,.04-.09,.06-.19,.09-.28,.44-2.73-.23-5.52-1.84-7.76-2.54-3.76-3.79-8.25-3.58-12.78,1.37-.08,2.67,.59,3.41,1.75,3.19,4.05,6.34,8.13,9.57,12.15,1.22,1.52,2,3.27,1.46,5.05-2.13,6.72-4.87,13.12-11.43,16.87-1.94,1.11-3.82,.74-4.47-1.16-2.06-5.97-4.47-11.84-5.67-19.04Z"/><path class="cls-29" d="M1400.11,1087.52c.52,1.35,1,2.7,1.59,4.16,1.54,.84,1.91-.78,2.51-1.57,2.33-3.15,5.03-6.01,8.05-8.5,4.21-3.52,9.69-5.16,15.15-4.52,2.75,.29,3.17,1.37,1.82,5-10.6,4.35-17.61,12.26-22.48,22.39-1.34,2.79-1.16,7-5.87,7.07l-.59,.19-.47-.39c-.31-.5-.9-1-.88-1.48,.34-7.48,.76-14.91,1.17-22.35Z"/><path class="cls-74" d="M852.19,693.12c-.87-1.37-2.28-1.6-3.72-1.75,9.02-6.55,18.58-12.33,28.58-17.27,1.38-.56,2.8-.99,4.26-1.3-.25,.53-.35,1.26-.77,1.57-9.15,6.7-17.85,14.09-28.35,18.75Z"/><path class="cls-13" d="M864.86,1127.78c2.69,1.68,3.54,4.68,5,7.19,3.04,5.46,6.47,10.7,10.25,15.68,1.67,.79,2.38,2.52,3.65,3.7,1.32,2.15,4.35,4.77,1.47,6.72-2,1.34-3.79-2.25-5.18-4-5.66-7.43-10.44-15.48-14.27-24-.91-1.6-1.24-3.47-.92-5.29Z"/><path class="cls-36" d="M451.48,1429.45c.09,4.26,.2,8.53,.25,12.8,0,2.14-.08,4.3,1.77,5.88,.5,3.33-1.21,6.13-2.21,9.09-4-.9-1.89-3.66-1.75-5.83,.24-5.61,.5-11.22,.72-16.84-.07-1.78,.35-3.55,1.22-5.1Z"/><path class="cls-15" d="M909.43,325.53c-1.64,.89-2,2.5-2.31,4.13-2.9-3.14-4-7.2-5.6-11-.55-2,.36-2.45,2.11-2.07,1.86,3.06,5.04,5.19,5.8,8.94Z"/><path class="cls-20" d="M1397.59,250.36c.36-3,2.6-4.87,4.12-7.18,.43-.68,.98-1.28,1.62-1.76h0c1.64-.45,2.54-.15,1.8,1.79-1.69,3.2-3.38,6.4-5.06,9.59-1.31-.09-2.37-1.13-2.48-2.44Z"/><path class="cls-81" d="M897.83,313.09c-1.35-1.91-2.73-3.8-4-5.72-.62-.68-.58-1.72,.09-2.35,1.14-.89,2.27-.29,3,.72,1.15,1.68,2.12,3.49,3.17,5.25-.09,1.18-1.08,2.09-2.26,2.1Z"/><path class="cls-96" d="M800.71,492.94c1.26-2.78,3.58-4.48,6.16-6.54-.48,4.83-.44,4.85-3.84,8.51-1.4,.09-1.72-1.1-2.32-1.97Z"/><path class="cls-98" d="M1397.59,250.36l2.52,2.42c-.88,2.61-1.92,5.11-4.11,6.93-.32-1.47-.6-2.95-2-3.86,.39-2.35,2.11-3.82,3.59-5.49Z"/><path class="cls-6" d="M449.54,1451.39c.41,2,.05,4.23,1.75,5.83-.58,2.4-1.17,4.79-1.75,7.18-.25,1.12-.73,1.17-1.39,.3-.25-4.51-.96-9.05,1.39-13.31Z"/><path class="cls-45" d="M1194.04,333.65l-2.32-2.59c2.93-2.12,5.56-4.84,9.6-4.66-1.87,2.92-4.35,5.39-7.28,7.25Z"/><path class="cls-84" d="M863.46,1153.89c-1.47,1-1.89,2.5-2.18,4.1-1.65-1.42-1.82-3.4-2-5.36-.62-2-1.48-4,2-3.8,.89,1.61,2.17,3.06,2.18,5.06Z"/><path class="cls-94" d="M897.83,313.09l2.17-2.1c1.65,1.54,2.9,3.46,3.63,5.59l-2.11,2.07-3.69-5.56Z"/><path class="cls-95" d="M547.38,603.38c0,1.12,.05,2.25,.09,3.37-2.47,.37-4.99-.27-7-1.76,1.8-2.65,4.45-1.71,6.91-1.61Z"/><path class="cls-54" d="M374.42,1067.78c.84,1.55,2.44,1.73,3.91,2.12-.98,.61-2.01,1.12-3.1,1.51-1.68,.41-4.48,1.12-4.86-.31-.66-2.51,2-2.97,4.05-3.32Z"/><path class="cls-100" d="M402.24,1394.82l1.86,.12c1.27,2.13,1.41,4.42,1.21,7.11-3.2-1.78-3.33-4.4-3.07-7.23Z"/><path class="cls-27" d="M590.11,893.58c-1.59-2.13-4.07-1.65-6.23-2.13,1.5-1.81,3.57-1.85,5.67-1.82,.9,0,1.89,.13,2.08,1.16,.31,1.19-.36,2.41-1.52,2.79Z"/><path class="cls-19" d="M861.27,1148.83c-1.49,.84-1.64,2.38-2,3.8-.6-1.02-1.08-2.11-1.44-3.24-.32-1.44-.71-4,.4-4.18,2.16-.46,2.45,1.99,3.04,3.62Z"/><path class="cls-39" d="M880,1142.98c-.17-.88-.35-1.76-.5-2.64-.24-1.44-.77-3.46,.76-4,2.14-.69,3,1.12,3.29,3.09-1.57,.79-1.72,2.38-2.14,3.82-.67,.87-1.16,.81-1.41-.27Z"/><path class="cls-32" d="M800.71,492.94l2.32,2c-1.33,1.86-2.67,3.71-4,5.56l-2.06-2,3.74-5.56Z"/><path class="cls-50" d="M394.68,1536.29l2.26,2.26c-1.38,1.5-3.2,2.51-5.2,2.91-.55,.09-1.11-.1-1.49-.51-.11-.53,.04-1.07,.42-1.46,1.27-1.14,2.66-2.15,4.01-3.2Z"/><path class="cls-52" d="M1405.3,237.79c.24-.55,.52-1.09,.84-1.6,.73-1,1.84-2.15,3-1.42,1.87,1.23,.41,2.6-.45,3.77-.41,.44-.86,.84-1.36,1.18-1.33,0-1.6-1.07-2.03-1.93Z"/><path class="cls-8" d="M585.49,803.65l-2,2-3.38-4c-.51-1.89,.27-2.42,2-1.94,1.39,1.1,2.84,2.13,3.38,3.94Z"/><path class="cls-71" d="M998.8,494.52l2.11,2.07c.15,2.1-1.21,3.66-2,5.43-1.71,.35-2.69,0-2-2,.2-2.01,.2-4.03,1.89-5.5Z"/><path class="cls-22" d="M332.33,1247.99l2,2.15c-1.1,.88-2.26,1.69-3.47,2.41-.71,.39-1.55,.45-2.3,.15-.86-.62-.17-1.56,.4-2.08,1.07-.97,2.25-1.76,3.37-2.63Z"/><path class="cls-26" d="M362.9,988.9l4.14-.06c-.81,.87-1.7,1.65-2.68,2.32-1.08,.59-2.51,2.39-3.51,.26-.47-.99,.84-2.07,2.05-2.52Z"/><path class="cls-90" d="M898.18,500.19c-1.3,1-1.6,2.41-2,3.83-1.75-1.37-1.79-3.41-2.11-5.34s.26-2.54,2.11-2l2,3.51Z"/><path class="cls-33" d="M496.28,617.65l-6.16,.43c-1.59-.07-3.08-.79-4.11-2,3.55-.29,7.1-.43,10.27,1.57Z"/><path class="cls-44" d="M1257.88,406.42c.5,1.33,.29,3,2,3.75-.15,.54-.38,1.05-.69,1.51-.57,.56-1.3,1.3-2,1.31-1,0-1-1-1-1.87-.04-1.72,.56-3.4,1.69-4.7Z"/><path class="cls-35" d="M394.88,1115.89c-.31-1.65-.72-3.24-2.33-4.15,.47-.71,1-1.38,1.59-2,.41-.39,.96-.59,1.52-.55,1,.19,1.1,1.1,1,2,.02,1.73-.62,3.41-1.78,4.7Z"/><path class="cls-23" d="M326.94,1324.41c-.05-2.1,1.24-4,3.22-4.71l2.42,1.82c-1.4,1.89-3.56,2.32-5.64,2.89Z"/><path class="cls-9" d="M996.95,499.98l2,2c-.42,1.07-.89,2.12-1.42,3.14-.24,.44-.84,.67-1.28,1-.27-.44-.7-.86-.76-1.32-.21-1.74,.32-3.49,1.46-4.82Z"/><path class="cls-75" d="M303.01,1154.43v3.37c-1.11-.12-2.21-.33-3.29-.62-.47-.31-.77-.81-.82-1.37-.1-1.05,.73-1.43,1.61-1.48,.83,0,1.67,.02,2.5,.1Z"/><path class="cls-57" d="M477.7,613.94l-2.17,2.16-3.57-2c-.43-1.73,.1-2.55,2-2.11,1.39,.36,2.81,.66,3.74,1.95Z"/><path class="cls-17" d="M650.11,664.65c-.78,1.47-2.3,1.52-3.64,1.92-1.51-2.56-1.44-2.72,1.74-4.35l1.9,2.43Z"/><path class="cls-7" d="M883.73,1154.3c-1.79-.5-3.18-1.91-3.65-3.71l1.83-2.21c1.94,1.57,1.63,3.82,1.82,5.92Z"/><path class="cls-3" d="M1405.3,237.79l2,1.93c-.22,1.39-.97,2.64-2.11,3.47l-1.8-1.79,1.91-3.61Z"/><path class="cls-53" d="M389.3,1060.71c-1.84,1.88-4.13,2-6.54,1.75,.92-1.85,2.51-3.29,4.45-4,.69,.78,1.39,1.51,2.09,2.25Z"/><path class="cls-90" d="M904.16,507.37c-2.79-.56-4.12-2.35-4.28-5.12,2.05,1.07,3.59,2.91,4.28,5.12Z"/><path class="cls-31" d="M1129.47,507.79c1.39-.31,2.84,.06,3.91,1,.37,.36,.55,.88,.49,1.39-.33,1-1.2,.9-2,.63-.76-1.03-1.61-2.02-2.4-3.02Z"/><path class="cls-85" d="M582.16,799.65l-2.05,2c-.55-.61-1.04-1.28-1.46-2-.37-.78-.37-1.89,.5-2.18,.55-.18,1.47,.41,2.09,.84,.44,.28,.63,.91,.92,1.34Z"/><path class="cls-83" d="M473.94,611.98l-2,2.12c-.5-.25-1.15-.38-1.44-.78-.39-.66-.7-1.36-.92-2.09,.71-.32,1.48-.49,2.26-.51,.77,.29,1.48,.72,2.1,1.26Z"/><path class="cls-43" d="M448.11,1464.7c.44-.18,.91-.29,1.39-.3l1.78,1.86c-.41,1.89-1.52,3.56-3.11,4.67-.9-.58-1.15-1.77-.57-2.67,.02-.03,.04-.06,.06-.09l.45-3.47Z"/><path class="cls-56" d="M1106.99,441.2c.65-1.01,1.8-1.59,3-1.49,.59-.04,1.18,.14,1.64,.52,.59,.8,.12,1.66-.53,2.26-.47,.34-.99,.6-1.54,.79l-2.57-2.08Z"/><path class="cls-97" d="M953.47,415.57h-1.93c-.11-1.86-.22-3.71-.34-5.57,1.61,1.52,2.68,3.24,2.27,5.57Z"/><path class="cls-70" d="M391.04,928.33l3.75-.13c-.73,1.31-2.11,2.14-3.61,2.15-.85-.62-1.73-1.23-.14-2.02Z"/><path class="cls-90" d="M896.2,504.03c2.05,1.42,2.13,3.46,1.76,5.65-1.49-1.47-2.15-3.59-1.76-5.65Z"/><path class="cls-66" d="M671.87,687.54c-2.25,2.21-2.48,2.23-4.91,.3l4.91-.3Z"/><path class="cls-84" d="M861.27,1157.96c2.06,1.42,2.07,3.49,1.8,5.65-1.41-1.52-2.07-3.59-1.8-5.65Z"/><path class="cls-82" d="M896.2,496.71l-2.11,2c-.21-.18-.4-.39-.56-.62-.51-1-1.14-2.2,.21-2.81,1.13-.54,2.07,.21,2.46,1.43Z"/><path class="cls-103" d="M1421.91,733.65l1.48-1.74c.45,.36,.85,.76,1.21,1.21,.45,.71,.92,1.62-.1,2.19-.35,.19-1.11-.08-1.53-.36-.42-.38-.77-.82-1.06-1.3Z"/><path class="cls-87" d="M745.76,610.65c-.07-1.34-.14-2.68-.2-4,.52-1.14,1.31-1.23,1.64,0,.33,1.5-.23,3.05-1.44,4Z"/><path class="cls-38" d="M484.71,744.55c0,.79,.11,1.59,.16,2.39-1.07,1.03-2.51,1.6-4,1.57,.56-1.87,1.99-3.34,3.84-3.96Z"/><path class="cls-30" d="M370.48,938.99l.39,2.49c-.81,1-1.5,.92-1.71-.36-.09-.93,.45-1.8,1.32-2.13Z"/><path class="cls-98" d="M1392.38,258.08c.11,1.47-.81,2.83-2.21,3.29,0-1.44,.87-2.74,2.21-3.29Z"/><path class="cls-47" d="M339.11,1240.5l2.41,.12c-.74,1.37-2.3,2.1-3.83,1.77-.21-.81,.27-1.63,1.08-1.84,.11-.03,.22-.05,.34-.05Z"/><path class="cls-84" d="M867,1159.7c-1.32-.65-2.11-2.03-2-3.5,1.25,.72,2.01,2.06,2,3.5Z"/><path class="cls-27" d="M1144.81,528.37c1.42-.7,2.27-.06,2.86,1.21-1.12,.28-2.29-.21-2.86-1.21Z"/><path class="cls-40" d="M1399.59,726.14c-.07,.71-.15,1.41-.22,2.12-.51-.56-.95-1.18-1.32-1.84-.12-.27,.33-.8,.52-1.21l1.02,.93Z"/><path class="cls-98" d="M1394.11,263.27c-.19-1.47,.58-2.9,1.92-3.54,.08,1.45-.66,2.82-1.92,3.54Z"/><path class="cls-77" d="M1408.75,821.79l1.77-.07c.25,1.12,.12,2.75-.83,2.77s-1.18-1.57-.94-2.7Z"/><path class="cls-7" d="M880,1142.98c.46,.12,.94,.23,1.41,.31l.15,3.58c-1.31-.82-1.94-2.39-1.56-3.89Z"/><path class="cls-89" d="M528.64,601.2l.3,1.87c-1,.05-2.22,.48-2.32-1.06-.02-.23,1.32-.54,2.02-.81Z"/><path class="cls-25" d="M718.22,397.65c.03,.44,.09,.88,.18,1.31l-3,.4c.55-1.05,1.63-1.71,2.82-1.71Z"/><path class="cls-60" d="M312.02,1330.53c-.19,.42-.39,.83-.59,1.24-1.23-1.26,.12-1,.69-1.14l-.1-.1Z"/><path class="cls-90" d="M899.82,502.17c-.93-.24-1.59-1.05-1.64-2,.98,.15,1.69,1.01,1.64,2Z"/><path class="cls-98" d="M1393.98,255.9c0,.93-.61,1.74-1.5,2-.07-.95,.57-1.8,1.5-2Z"/><path class="cls-59" d="M337.78,1242.3c-.23,1.26-1.16,1.77-2.24,2.13,.29-1.19,.88-2.06,2.24-2.13Z"/><path class="cls-8" d="M589.24,807.15l-1.72-1.56c.85,.1,1.54,.73,1.72,1.56Z"/><path class="cls-8" d="M584.28,807.03l1.47,1.89c-.84-.26-1.42-1.02-1.47-1.89Z"/><path class="cls-84" d="M864.91,1156.12l-1.5-2.14c.92,.3,1.53,1.17,1.5,2.14Z"/><path class="cls-27" d="M398.56,926.02c.06-.74,.71-1.3,1.45-1.24,.1,0,.2,.03,.3,.06-.15,1.04-.76,1.38-1.75,1.18Z"/><path class="cls-3" d="M1403.33,241.42c-.55,.59-1.09,1.18-1.62,1.77l1.62-1.77Z"/><path class="cls-8" d="M587.27,805.36l-1.61-1.56c.82,.1,1.48,.74,1.61,1.56Z"/><path class="cls-34" d="M256.89,517.1c1.52-.14,3.05,.19,4.39,.94,30.5,14.4,50.27,37.94,59.43,70.3,2.18,7.05,2.37,14.57,.56,21.72-2.86,10.59-9.29,17.75-19.94,20.64-7.68,2.13-15.76,2.41-23.57,.81-20.24-4.16-38.06-12.75-52.15-28.24-2.44-6-.59-10.62,4.84-13.93,5.31-.54,8.16,3.58,11.65,6.34,11.72,9.25,24.45,16.36,39.65,17.3,18.7,1.17,24.79-6.29,20.42-24.38-5.77-23.93-21.82-39.6-42-51.92-3.07-1.87-6.85-2.91-8.35-6.76-.71-5.21,.41-9.72,5.07-12.82Z"/><path class="cls-67" d="M230.11,589.43c-1.49,4.62-2.97,9.23-4.46,13.84-.8-.42-1.54-.93-2.22-1.53-7.67-8.31-14.18-17.62-19.35-27.68-3.83-7.34-5.83-15.5-5.81-23.78,.15-20.2,16.23-36.69,36.42-37.34,7.7-.24,15.23,.61,22.24,4.16-.81,2.6-1.53,5.23-2.43,7.8-.61,1.73-1.4,3.38-1.05,5.28-3.82,3.51-8.61,2.28-13,2.55-13.93,.85-20.14,7.29-20.83,21.25-.53,9.17,1.99,18.26,7.18,25.84,1.79,2.83,5.31,5.33,3.31,9.61Z"/><path class="cls-42" d="M958.8,801.65c3.77-5.9,7.61-11.76,11.3-17.72,7.45-12.06,16.94-22.38,27.22-32,2.87-2.79,6.27-4.98,10-6.44,7.42-2.79,14.87-5.42,22.82-6.55,25.71-3.66,51.38-7.61,77.24-10,28.34-2.67,56.71-4.07,85.11-.82,3.43,.4,7.38-.56,10,2.88-.78,3.58-3.82,5.41-6.2,7.64-4.91,4.58-10.12,8.85-15.09,13.38-5.39,4.92-11.57,6.71-18.62,4.85-7.14-1.72-14.51-2.3-21.84-1.72-25,1.42-50.07,2.47-75,4.52-37.22,3.05-70.62,16.14-99.52,40.12-1.57,1.46-3.24,2.81-5,4.05-2.62,1.61-1.73-1.2-2.35-2.11l-.07-.08Z"/><path class="cls-42" d="M1303.72,1115.52c.43,1.14,.73,2.32,.92,3.52,.1,1.82-1.3,3.08-2.83,2.59-1.73-.53-3.4-1.22-5-2.07-5.69-3-11.92-4.85-18.33-5.43-14.88-1.61-29.76-3.28-44.69-4.25-13.16-.86-25.87-5.14-36.87-12.43-8.08-5.25-14.91-11.75-16.78-21.89,.84-13.82,6-19.64,19.58-21.88,6.65-1.01,13.44-.59,19.92,1.24,16.74,4.46,33.41,9.26,47.79,19.57,7.77,5.64,14.26,12.73,21.28,19.22,3,3.45,6.49,6.41,9.3,10,1.81,3.94,4.61,7.48,5.71,11.81Z"/><path class="cls-68" d="M1267.11,1077.29c-12.54-8.51-26.74-13.23-41-17.77-8.78-2.79-17.78-4.48-27-2.88-2.4,.42-4.74,1.09-7,2-5.41,2.17-9.14,5.94-10.5,11.8-.4,1.76-1,3.47-1.51,5.19-3.09-9,.81-15.24,7.82-20.26,8.48-6.07,17.94-7.29,27.8-4.74s19.85,5.65,29.73,8.6c5.24,1.56,10.42,3.3,15.62,5,3.49,1.13,6.87,2.46,9.09,5.65-1.22,1.95,0,4-.24,6-.53,1.16-1.2,2.13-2.81,1.41Z"/><path class="cls-80" d="M1269.11,1075.4c-.68-.55-1.31-1.17-1.88-1.84-1.49-2.06-1.19-2.91,1.21-3.6,.58-.11,1.17-.16,1.76-.16,11.74,6.48,20.22,16.52,28.83,26.41,2.16,2.22,3.2,5.29,2.83,8.36-.81,1.02-2.22,1.35-3.4,.78-3.46-3.59-7.31-6.81-10.16-11-5.74-7.01-13.8-11.65-19.19-18.95Z"/><path class="cls-58" d="M1302.02,1086.29c.68-1.44,2.28-2.2,3.82-1.81,4.44,1.07,7.51,4.05,9.59,7.9s4.85,8,1.81,12.77c-6.75-3.3-8.31-11-13.26-15.75-.72-.99-1.37-2.03-1.96-3.11Z"/><path class="cls-88" d="M1303.69,1087.58c5.75,4.79,10.37,10.79,13.55,17.57-1.63,2.6-2.59,3.07-3.58,1.63-3.36-4.93-6.62-9.94-9.92-14.91-.35-.65-.77-1.26-1.27-1.8-.19-.63-.38-1.26-.58-1.89,.32-.66,1.12-.93,1.78-.61,0,0,.01,0,.02,.01Z"/><path class="cls-55" d="M1298.67,1104.54h3.14c.67,3.66,1.3,7.33,1.91,11-2.62-3.55-5.83-6.68-7.62-10.81,.56-.75,1.62-.91,2.38-.36,.07,.05,.13,.11,.19,.17Z"/><path class="cls-104" d="M1303.69,1087.58l-1.8,.6c-.68-.28-.89-.74-.54-1.33,.19-.22,.42-.41,.67-.56l1.67,1.29Z"/><path class="cls-104" d="M1302.47,1090.07c.82,.19,1.36,.97,1.27,1.8-.85-.15-1.42-.95-1.27-1.8Z"/><path class="cls-73" d="M1484.99,1077.27c8.86,9.63,8.42,15.78-1.86,23.33-10.08,7.4-21.7,11-33.81,13.29-8.1,1.52-16.29,2.61-24,5.67-3.46,1.23-6.81,2.76-10,4.59-2.29,1.43-3.5,.41-4.57-3.28,10.92-22.66,29.75-36.41,52.21-45.8,7.46-3.1,14.97-1.31,22.03,2.2Z"/><path class="cls-99" d="M1484.99,1077.27c-1.5,.05-3.01-.06-4.49-.34-8.11-2.49-15.68-.64-22.83,3.08-12.99,6.66-24.62,15.68-34.31,26.6-4.19,4.75-7.57,10.23-12.58,14.26-1.45-4.12-.4-7.8,2-11.22,10.73-15.23,23.77-27.72,41.36-34.84,5.43-2.19,11-3.69,16.88-3.29,5.31,.36,10.23,1.61,13.97,5.75Z"/><path class="cls-41" d="M1400.87,1111.52c2-2.08,2.4-4.92,3.49-7.42,4.18-9.6,11-16.8,19.76-22.33,1.56-1.08,3.66-.96,5.09,.29-4.95,4.9-10.6,9.08-15,14.57-2.47,3.08-5,6-6,10-.65,2.66-2,5.13-4.68,6.41-1.53,.78-2.1-.39-2.66-1.52Z"/><path class="cls-28" d="M447.7,1468.17l.51,2.76c-.19,1.3-1.04,2.4-2.25,2.91,.02-2.06,.15-4.09,1.74-5.67Z"/><path class="cls-2" d="M1230.77,423.37l-2-2.05c3-3.79,5.08-8.43,9.52-11-1.43,4.96-3.57,9.53-7.52,13.05Z"/><path class="cls-91" d="M1269.11,1075.4c7.71,5,14.7,10.87,20.25,18.29,.69,1.9-.14,2.3-1.83,1.86l-20.42-18.26,2-1.89Z"/><path class="cls-18" d="M1287.48,1095.55l1.83-1.86,9.36,10.85-2.56,.18c-3.33-2.6-6.24-5.69-8.63-9.17Z"/></g></svg>