<?xml version="1.0" encoding="UTF-8"?><svg id="Layer_2" xmlns="http://www.w3.org/2000/svg" viewBox="0 0 476.2 231.88"><defs><style>.cls-1{opacity:.5;}.cls-2{opacity:.2;}.cls-3{opacity:.05;}.cls-4{opacity:.35;}.cls-5{opacity:.8;}.cls-6{opacity:.15;}.cls-7{fill:#aabfe2;}</style></defs><g id="Layer_1-2"><g><g><g><g><path class="cls-7" d="M22.66,86.24l-9.09-9.09V44.06l23.99-23.99h109.64l8.49-8.49h27.22c0,.43-27.04,.43-27.04,.43l-8.48,8.48H37.74L14,44.24v32.73l8.96,8.96-.3,.3Z"/><path class="cls-7" d="M151.5,16.31h-3.88l-3.62-3.62h-44.31c0-.43,44.48-.43,44.48-.43l3.62,3.62h3.7v.43Z"/><path class="cls-7" d="M25.32,123.86c-.43,0-.43-19.26-.43-19.26l-6.02-6.02v-2.56l-8.23-8.23c.3-.3,8.66,8.05,8.66,8.05v2.56l6.02,6.02v19.44Z"/><path class="cls-7" d="M107.97,208.95l-12.56-12.56H27.87l-12.57-12.56v-50.6l5.49-5.49v-20.64c.43,0,.43,20.82,.43,20.82l-5.49,5.49v50.24l12.31,12.31H95.59l12.68,12.68-.3,.31Z"/></g><g><rect class="cls-7" x="98.82" y="11.59" width="1.77" height="1.77"/><rect class="cls-7" x="21.83" y="85.35" width="1.77" height="1.77"/><rect class="cls-7" x="24.22" y="122.97" width="1.77" height="1.77"/><rect class="cls-7" x="20.08" y="106.21" width="1.77" height="1.77"/></g></g><rect class="cls-7" x="104.47" y="11.89" width="8.61" height="1.17"/><rect class="cls-7" x="121.29" y="19.68" width="8.61" height="1.17"/><rect class="cls-7" x="102.4" y="19.68" width="8.61" height="1.17"/><rect class="cls-7" x="11.25" y="148.93" width="8.61" height="1.17" transform="translate(165.08 133.96) rotate(90)"/><rect class="cls-7" x="11.25" y="166.83" width="8.61" height="1.17" transform="translate(182.98 151.86) rotate(90)"/><rect class="cls-7" x="4.36" y="57.63" width="18.85" height="1.17" transform="translate(72 44.42) rotate(90)"/><rect class="cls-7" x="50.86" y="19.68" width="41.26" height="1.17"/></g><g><g><g><path class="cls-7" d="M452.42,86.24l9.09-9.09V44.06l-23.99-23.99h-109.65l-8.48-8.49h-27.22c0,.43,27.04,.43,27.04,.43l8.49,8.48h109.65l23.74,23.74v32.73l-8.96,8.96,.3,.3Z"/><path class="cls-7" d="M323.58,16.31h3.88l3.62-3.62h44.31c0-.43-44.48-.43-44.48-.43l-3.62,3.62h-3.7v.43Z"/><path class="cls-7" d="M449.76,123.86c.43,0,.43-19.26,.43-19.26l6.02-6.02v-2.56l8.23-8.23c-.3-.3-8.66,8.05-8.66,8.05v2.56l-6.02,6.02v19.44Z"/><path class="cls-7" d="M367.11,208.95l12.56-12.56h67.54l12.57-12.56v-50.6l-5.49-5.49v-20.64c-.43,0-.43,20.82-.43,20.82l5.49,5.49v50.24l-12.31,12.31h-67.54l-12.68,12.68,.3,.31Z"/></g><g><rect class="cls-7" x="374.5" y="11.59" width="1.77" height="1.77" transform="translate(750.76 24.94) rotate(180)"/><rect class="cls-7" x="451.49" y="85.35" width="1.77" height="1.77" transform="translate(904.74 172.47) rotate(180)"/><rect class="cls-7" x="449.09" y="122.97" width="1.77" height="1.77" transform="translate(899.94 247.71) rotate(180)"/><rect class="cls-7" x="453.23" y="106.21" width="1.77" height="1.77" transform="translate(908.23 214.19) rotate(180)"/></g></g><rect class="cls-7" x="362" y="11.89" width="8.61" height="1.17" transform="translate(732.6 24.94) rotate(180)"/><rect class="cls-7" x="345.17" y="19.68" width="8.61" height="1.17" transform="translate(698.96 40.54) rotate(180)"/><rect class="cls-7" x="364.07" y="19.68" width="8.61" height="1.17" transform="translate(736.75 40.54) rotate(180)"/><rect class="cls-7" x="455.21" y="148.94" width="8.61" height="1.17" transform="translate(609.04 -310) rotate(90)"/><rect class="cls-7" x="455.21" y="166.83" width="8.61" height="1.17" transform="translate(626.94 -292.1) rotate(90)"/><rect class="cls-7" x="451.87" y="57.62" width="18.85" height="1.17" transform="translate(519.5 -403.08) rotate(90)"/><rect class="cls-7" x="382.96" y="19.68" width="41.26" height="1.17" transform="translate(807.18 40.54) rotate(180)"/></g><g><g><path class="cls-7" d="M467.17,126.93v-30.64c0-.5,0-9.68,0-9.68l6.92-6.92V39.47l-31.18-31.18-5.46,5.46h-42.99l-8.74-8.74H89.8c-.22,.22-.84,.87-.84,.87l-7.56,7.87H38.42l-5.46-5.46L5.91,35.34l-4.14,4.13v40.21l6.92,6.92v24.3s0,16.02,0,16.02L.41,135.21v9.44s8.25-8.26,8.25-8.26v37.55L.41,182.2v9.89l30.94,30.94v-9.68h105.95l18.53,18.54h164.2l18.53-18.54h105.95v9.68l30.81-30.81v-10.14l-8.13-8.13v-37.55l8.32,8.32,.07-9.37-8.41-8.41Zm6.63,13.59l-7.77-7.77-.56-.56s-.02,42.48-.02,42.48l8.13,8.13v8.69l-27.32,27.31v-7.21h-108.42l-18.54,18.54H156.56l-.72-.72-17.82-17.82H29.6v7.21L2.16,191.36v-8.44l8.26-8.25v-42.5l-8.26,8.25v-4.49l8.11-8.11c.17-.18,.17-7.65,.17-7.65v-30.12s0-4.17,0-4.17l-6.92-6.92V40.19L32.95,10.76l4.74,4.74h44.45l8.4-8.74H384.98l8.74,8.74h44.44l4.74-4.74,29.44,29.44v38.77l-6.92,6.92v35s0,6.76,0,6.76l.61,.61,7.8,7.8-.04,4.45h0Z"/><polygon class="cls-7" points="10.26 127.83 10.26 132.32 2.16 140.43 2.16 135.93 10.26 127.83"/></g><g><rect class="cls-7" x="33.33" y="215.16" width="5.36" height="5.36"/><g class="cls-5"><rect class="cls-7" x="41.48" y="215.16" width="5.36" height="5.36"/></g><g class="cls-1"><rect class="cls-7" x="49.64" y="215.16" width="5.36" height="5.36"/></g><g class="cls-4"><rect class="cls-7" x="57.79" y="215.16" width="5.36" height="5.36"/></g><g class="cls-2"><rect class="cls-7" x="65.95" y="215.16" width="5.36" height="5.36"/></g><g class="cls-6"><rect class="cls-7" x="74.11" y="215.16" width="5.36" height="5.36"/></g><g class="cls-3"><rect class="cls-7" x="82.26" y="215.16" width="5.36" height="5.36"/></g></g><g><rect class="cls-7" x="437.32" y="215.16" width="5.36" height="5.36" transform="translate(880 435.68) rotate(180)"/><g class="cls-5"><rect class="cls-7" x="429.17" y="215.16" width="5.36" height="5.36" transform="translate(863.7 435.68) rotate(180)"/></g><g class="cls-1"><rect class="cls-7" x="421.01" y="215.16" width="5.36" height="5.36" transform="translate(847.38 435.68) rotate(180)"/></g><g class="cls-4"><rect class="cls-7" x="412.85" y="215.16" width="5.36" height="5.36" transform="translate(831.07 435.68) rotate(180)"/></g><g class="cls-2"><rect class="cls-7" x="404.7" y="215.16" width="5.36" height="5.36" transform="translate(814.76 435.68) rotate(180)"/></g><g class="cls-6"><rect class="cls-7" x="396.54" y="215.16" width="5.36" height="5.36" transform="translate(798.45 435.68) rotate(180)"/></g><g class="cls-3"><rect class="cls-7" x="388.39" y="215.16" width="5.36" height="5.36" transform="translate(782.14 435.68) rotate(180)"/></g></g><polygon class="cls-7" points="298.93 5.83 175.42 5.83 183.07 13.48 292.81 13.48 300.44 5.85 298.93 5.83"/><polygon class="cls-7" points="192.17 5.85 284.74 5.85 279.41 .51 196.44 .51 191.11 5.83 192.17 5.85"/><g><polygon class="cls-7" points="10.42 132.48 .43 142.47 .43 147.44 10.17 137.69 10.42 132.48"/><polygon class="cls-7" points="10.42 140.32 .43 150.31 .43 155.27 10.17 145.53 10.42 140.32"/><polygon class="cls-7" points="10.42 148.15 .43 158.15 .43 163.11 10.17 153.37 10.42 148.15"/><polygon class="cls-7" points="10.42 155.99 .43 165.99 .43 170.95 10.17 161.21 10.42 155.99"/><polygon class="cls-7" points="10.42 163.83 .43 173.83 .43 178.79 10.17 169.04 10.42 163.83"/></g><g><g><polygon class="cls-7" points="473.83 136.06 473.8 140.51 466.03 132.74 466.03 128.26 473.83 136.06"/><path class="cls-7" d="M475.46,142.17v4.96l-8.26-8.26-1.48-1.48-.25-5.2s.56,.55,.56,.55l7.77,7.77,1.66,1.66Z"/></g><polygon class="cls-7" points="465.46 140.02 475.46 150.01 475.46 154.97 465.71 145.23 465.46 140.02"/><polygon class="cls-7" points="465.46 147.85 475.46 157.85 475.46 162.81 465.71 153.07 465.46 147.85"/><polygon class="cls-7" points="465.46 155.69 475.46 165.69 475.46 170.65 465.71 160.91 465.46 155.69"/><polygon class="cls-7" points="465.46 163.53 475.46 173.53 475.46 178.49 465.71 168.74 465.46 163.53"/></g><g><polygon class="cls-7" points="9.56 89.18 15.56 95.17 15.56 117.8 9.5 123.86 9.56 89.18"/><polygon class="cls-7" points="9 111.21 5.73 107.94 5.73 105.12 9.04 101.82 9 111.21"/></g><g><polygon class="cls-7" points="466.01 123.86 460.02 117.86 460.02 95.24 466.07 89.18 466.01 123.86"/><polygon class="cls-7" points="466.58 101.82 469.84 105.09 469.84 107.91 466.54 111.21 466.58 101.82"/></g><polygon class="cls-7" points="88.93 5.88 94.34 .47 130.39 .47 135.4 5.48 88.93 5.88"/><polygon class="cls-7" points="386.09 5.41 380.68 0 344.63 0 339.62 5.01 386.09 5.41"/><polygon class="cls-7" points="394.08 14.62 396.33 12.37 436.99 12.37 443.48 5.89 469.71 32.13 469.71 36.63 442.75 9.68 437.8 14.62 394.08 14.62"/><polygon class="cls-7" points="81.53 13.93 79.28 11.68 38.62 11.68 32.14 5.2 5.9 31.43 5.9 35.94 32.86 8.98 37.81 13.93 81.53 13.93"/><polygon class="cls-7" points="10.78 90.39 0 79.61 0 51.58 2.49 49.1 2.49 79.32 10.8 87.63 10.78 90.39"/><polygon class="cls-7" points="465.41 91.12 476.2 80.34 476.2 52.31 473.71 49.82 473.71 80.05 465.4 88.36 465.41 91.12"/><polygon class="cls-7" points="440.47 207.58 348.76 207.58 344.91 203.72 335.65 203.72 316.14 223.23 284.54 223.23 279.36 228.41 196.39 228.41 191.21 223.23 159.47 223.23 140.08 203.84 130.82 203.84 126.97 207.69 35.25 207.69 30.48 212.47 137.83 212.31 156 230.48 156.19 231.86 310.33 231.86 311.63 230.57 319.53 230.57 337.91 212.19 445.25 212.35 440.47 207.58"/><polygon class="cls-7" points="474.49 182.44 474.49 191.81 473.58 190.89 463.05 180.36 463.05 120.89 466.03 120.89 466.03 173.97 474.49 182.44"/><polygon class="cls-7" points="13.24 120.17 13.24 179.64 1.79 191.09 1.79 181.72 10.26 173.25 10.26 120.17 13.24 120.17"/></g><g><polygon class="cls-7" points="219.62 218.61 217.01 221.22 217.01 220.17 218.57 218.61 219.62 218.61"/><polygon class="cls-7" points="223.74 218.61 217.01 225.33 217.01 224.28 222.69 218.61 223.74 218.61"/><polygon class="cls-7" points="227.85 218.61 220.14 226.32 219.09 226.32 226.8 218.61 227.85 218.61"/><polygon class="cls-7" points="231.97 218.61 224.26 226.32 223.2 226.32 230.92 218.61 231.97 218.61"/><polygon class="cls-7" points="236.09 218.61 228.37 226.32 227.32 226.32 235.04 218.61 236.09 218.61"/><polygon class="cls-7" points="240.2 218.61 232.49 226.32 231.44 226.32 239.15 218.61 240.2 218.61"/><polygon class="cls-7" points="244.32 218.61 236.61 226.32 235.55 226.32 243.27 218.61 244.32 218.61"/><polygon class="cls-7" points="248.44 218.61 240.72 226.32 239.67 226.32 247.38 218.61 248.44 218.61"/><polygon class="cls-7" points="252.55 218.61 244.84 226.32 243.79 226.32 251.5 218.61 252.55 218.61"/><polygon class="cls-7" points="256.67 218.61 248.96 226.32 247.9 226.32 255.62 218.61 256.67 218.61"/><polygon class="cls-7" points="259.19 219.15 259.19 220.2 253.07 226.32 252.02 226.32 259.19 219.15"/><polygon class="cls-7" points="256.14 226.32 259.19 223.27 259.19 224.32 257.19 226.32 256.14 226.32"/></g><g><g id="lines_2"><polygon class="cls-7" points="202.17 208.95 194.9 215.27 200.5 215.28 207.77 208.96 202.17 208.95"/><polygon class="cls-7" points="212.6 208.97 205.33 215.29 210.93 215.31 218.2 208.99 212.6 208.97"/><polygon class="cls-7" points="223.03 209 215.75 215.32 221.35 215.33 228.62 209.01 223.03 209"/><polygon class="cls-7" points="191.74 208.93 184.47 215.25 190.07 215.26 197.34 208.94 191.74 208.93"/><polygon class="cls-7" points="181.31 208.9 174.04 215.22 179.64 215.23 186.91 208.91 181.31 208.9"/><polygon class="cls-7" points="240.8 211.72 236.61 215.36 240.8 215.37 240.8 211.72"/><polygon class="cls-7" points="172.82 208.88 172.81 212.08 176.48 208.89 172.82 208.88"/><polygon class="cls-7" points="233.45 209.02 226.18 215.34 231.78 215.35 239.05 209.03 233.45 209.02"/></g><g id="lines_2-2"><polygon class="cls-7" points="264.75 209.08 257.48 215.41 263.07 215.42 270.35 209.1 264.75 209.08"/><polygon class="cls-7" points="275.17 209.11 267.9 215.43 273.5 215.44 280.77 209.12 275.17 209.11"/><polygon class="cls-7" points="285.6 209.13 278.33 215.45 283.93 215.47 291.2 209.14 285.6 209.13"/><polygon class="cls-7" points="254.32 209.06 247.05 215.38 252.65 215.39 259.92 209.07 254.32 209.06"/><polygon class="cls-7" points="243.89 209.04 236.62 215.36 242.22 215.37 249.49 209.05 243.89 209.04"/><polygon class="cls-7" points="303.39 211.85 299.19 215.5 303.38 215.51 303.39 211.85"/><polygon class="cls-7" points="235.4 209.02 235.39 212.21 239.05 209.03 235.4 209.02"/><polygon class="cls-7" points="296.03 209.16 288.76 215.48 294.36 215.49 301.63 209.17 296.03 209.16"/></g></g><g><g id="lines_2-3"><polygon class="cls-7" points="202.17 19.86 194.9 26.18 200.5 26.19 207.77 19.87 202.17 19.86"/><polygon class="cls-7" points="212.6 19.88 205.33 26.2 210.93 26.22 218.2 19.9 212.6 19.88"/><polygon class="cls-7" points="223.03 19.91 215.75 26.23 221.35 26.24 228.62 19.92 223.03 19.91"/><polygon class="cls-7" points="191.74 19.84 184.47 26.16 190.07 26.17 197.34 19.85 191.74 19.84"/><polygon class="cls-7" points="181.31 19.81 174.04 26.13 179.64 26.15 186.91 19.82 181.31 19.81"/><polygon class="cls-7" points="240.8 22.63 236.61 26.28 240.8 26.28 240.8 22.63"/><polygon class="cls-7" points="172.82 19.79 172.81 22.99 176.48 19.8 172.82 19.79"/><polygon class="cls-7" points="233.45 19.93 226.18 26.25 231.78 26.26 239.05 19.94 233.45 19.93"/></g><g id="lines_2-4"><polygon class="cls-7" points="264.75 19.99 257.48 26.32 263.07 26.33 270.35 20.01 264.75 19.99"/><polygon class="cls-7" points="275.17 20.02 267.9 26.34 273.5 26.35 280.77 20.03 275.17 20.02"/><polygon class="cls-7" points="285.6 20.04 278.33 26.36 283.93 26.38 291.2 20.05 285.6 20.04"/><polygon class="cls-7" points="254.32 19.97 247.05 26.29 252.65 26.31 259.92 19.98 254.32 19.97"/><polygon class="cls-7" points="243.89 19.95 236.62 26.27 242.22 26.28 249.49 19.96 243.89 19.95"/><polygon class="cls-7" points="303.39 22.76 299.19 26.41 303.38 26.42 303.39 22.76"/><polygon class="cls-7" points="235.4 19.93 235.39 23.12 239.05 19.94 235.4 19.93"/><polygon class="cls-7" points="296.03 20.07 288.76 26.39 294.36 26.4 301.63 20.08 296.03 20.07"/></g></g></g></g></svg>