<?xml version="1.0" encoding="UTF-8"?><svg id="Layer_2" xmlns="http://www.w3.org/2000/svg" xmlns:xlink="http://www.w3.org/1999/xlink" viewBox="0 0 1013.35 158.09"><defs><style>.cls-1,.cls-2{opacity:.15;}.cls-1,.cls-3,.cls-4{fill:#5c56a4;}.cls-2,.cls-5,.cls-6{fill:#ed4992;}.cls-7{clip-path:url(#clippath);}.cls-8{fill:none;}.cls-4,.cls-6{opacity:.66;}</style><clipPath id="clippath"><rect class="cls-8" width="1013.35" height="158.09"/></clipPath></defs><g id="Layer_2-2"><g class="cls-7"><g><g><path class="cls-1" d="M491.2,161.68s24.3-7.28,40.42-88.96c9.18-46.5,25.14-61.59,34.67-8.63,4.29,23.84,10.62,35.2,16.28,40.49,6.01,5.62,13.49,1.36,17.27-8.6,38.97-102.58,37.08,102.11,78.8-13.83,30.98-86.11,56.62,109.46,88.43,33.8,32.82-78.06,22.47,54.72,62.87-84.53,31.18-107.48,50.18,125.69,68.7,76.4,13.55-36.04,22.13-60.13,43.54,11.13,10.44,34.73,39.88,42.82,39.88,42.82l-490.86-.1Z"/><path class="cls-1" d="M491.2,161.69s24.3-6.5,40.42-79.46c9.18-41.53,25.14-55.02,34.67-7.71,4.29,21.29,10.62,31.44,16.28,36.17,6.01,5.02,13.49,1.21,17.27-7.68,38.97-91.62,37.08,91.2,78.8-12.36,30.98-76.91,56.62,97.77,88.43,30.19,32.82-69.73,22.47,48.87,62.87-75.5,31.18-96,50.18,112.26,68.7,68.25,13.55-32.19,22.13-53.71,43.54,9.94,10.44,31.02,39.88,38.24,39.88,38.24l-490.86-.09Z"/><path class="cls-1" d="M491.2,161.7s24.3-5.74,40.42-70.1c9.18-36.64,25.14-48.54,34.67-6.8,4.29,18.78,10.62,27.74,16.28,31.91,6.01,4.43,13.49,1.07,17.27-6.77,38.97-80.83,37.08,80.46,78.8-10.9,30.98-67.85,56.62,86.25,88.43,26.64,32.82-61.52,22.47,43.12,62.87-66.61,31.18-84.69,50.18,99.04,68.7,60.21,13.55-28.4,22.13-47.38,43.54,8.77,10.44,27.37,39.88,33.74,39.88,33.74l-490.86-.08Z"/><path class="cls-1" d="M491.2,161.71s24.3-5.02,40.42-61.32c9.18-32.05,25.14-42.45,34.67-5.95,4.29,16.43,10.62,24.26,16.28,27.91,6.01,3.88,13.49,.94,17.27-5.92,38.97-70.7,37.08,70.38,78.8-9.54,30.98-59.35,56.62,75.45,88.43,23.3,32.82-53.81,22.47,37.72,62.87-58.26,31.18-74.08,50.18,86.63,68.7,52.67,13.55-24.84,22.13-41.45,43.54,7.67,10.44,23.94,39.88,29.51,39.88,29.51l-490.86-.07Z"/><path class="cls-4" d="M491.2,161.72s24.3-4.11,40.42-50.18c9.18-26.23,25.14-34.75,34.67-4.87,4.29,13.45,10.62,19.86,16.28,22.84,6.01,3.17,13.49,.77,17.27-4.85,38.97-57.87,37.08,57.6,78.8-7.8,30.98-48.58,56.62,61.75,88.43,19.07,32.82-44.04,22.47,30.87,62.87-47.68,31.18-60.63,50.18,70.9,68.7,43.1,13.55-20.33,22.13-33.92,43.54,6.28,10.44,19.59,39.88,24.15,39.88,24.15l-490.86-.06Z"/><path class="cls-3" d="M981.9,162.79l.32-2.03c-.29-.04-29.06-4.76-39.13-23.84-9.56-18.11-16.96-26.34-24-26.68-7.73-.29-13.51,8.47-20.91,19.67l-.4,.6c-1.62,2.46-3.31,3.56-4.82,3.48-5.36-.38-11.74-13.89-17.91-26.95-8.5-18-17.3-36.62-28.33-36.78-6.17,0-11.91,5.52-17.7,16.87-12.15,23.83-20.77,35.77-27.12,37.56-3,.85-5.34-.57-8.02-2.21-5.92-3.62-12.62-7.73-27.64,12.61-4.67,6.33-9.34,9.5-14.26,9.7-.16,0-.33,0-.49,0-9.28,0-18.54-10.61-27.51-20.87-9.44-10.81-19.29-21.89-29.47-21.18-5.95,.46-11.42,4.77-16.73,13.17-8.6,13.6-15.85,20.29-22.16,20.45-6.88,0-12.15-7.46-17.26-14.68-5.31-7.54-10.82-15.33-18.32-15.33-6.44,.09-13.28,5.78-21.04,17.42-3.6,5.39-10.59,7.41-15.94,4.55-6.92-3.69-12.23-11.24-15.78-22.45-5.14-16.24-11.59-19.73-16.11-19.79-7.54,0-15.15,9.21-20.51,24.68-15.69,45.25-39.38,49.91-39.63,49.95l.35,2.03c1.01-.17,25.07-4.78,41.22-51.3,4.99-14.38,12.05-23.29,18.45-23.29,5.52,.07,10.55,6.59,14.28,18.35,3.71,11.74,9.36,19.7,16.77,23.65,6.24,3.3,14.42,1.03,18.6-5.23,7.37-11.03,13.66-16.42,19.23-16.49,6.54,0,11.51,7.02,16.75,14.45,5.41,7.65,10.98,15.56,18.7,15.56,7.35-.18,15.15-7.18,24.14-21.4,4.95-7.82,9.9-11.81,15.16-12.22,9.17-.68,18.65,10.06,27.76,20.48,9.27,10.61,18.84,21.57,29.05,21.57,.19,0,.39,0,.58-.01,5.59-.23,10.77-3.67,15.84-10.53,13.9-18.83,19.49-15.4,24.91-12.08,2.84,1.74,5.77,3.54,9.65,2.44,4.74-1.34,12.25-6.94,28.4-38.61,5.33-10.44,10.61-15.74,15.72-15.74,9.86,.15,18.76,18.98,26.61,35.6,7.01,14.84,13.06,27.66,19.62,28.12,2.39,.11,4.65-1.31,6.69-4.4l.4-.6c7.04-10.66,12.69-18.98,19.09-18.75,6.15,.3,13.23,8.43,22.29,25.6,10.55,19.99,39.41,24.71,40.63,24.9Z"/></g><g><path class="cls-1" d="M.18,161.68s24.3-7.28,40.42-88.96c9.18-46.5,25.14-61.59,34.67-8.63,4.29,23.84,10.62,35.2,16.28,40.49,6.01,5.62,13.49,1.36,17.27-8.6,38.97-102.58,37.08,102.11,78.8-13.83,30.98-86.11,56.62,109.46,88.43,33.8,32.82-78.06,22.47,54.72,62.87-84.53,31.18-107.48,50.18,125.69,68.7,76.4,13.55-36.04,22.13-60.13,43.54,11.13,10.44,34.73,39.88,42.82,39.88,42.82L.18,161.68Z"/><path class="cls-1" d="M.18,161.69s24.3-6.5,40.42-79.46c9.18-41.53,25.14-55.02,34.67-7.71,4.29,21.29,10.62,31.44,16.28,36.17,6.01,5.02,13.49,1.21,17.27-7.68,38.97-91.62,37.08,91.2,78.8-12.36,30.98-76.91,56.62,97.77,88.43,30.19,32.82-69.73,22.47,48.87,62.87-75.5,31.18-96,50.18,112.26,68.7,68.25,13.55-32.19,22.13-53.71,43.54,9.94,10.44,31.02,39.88,38.24,39.88,38.24L.18,161.69Z"/><path class="cls-1" d="M.18,161.7s24.3-5.74,40.42-70.1c9.18-36.64,25.14-48.54,34.67-6.8,4.29,18.78,10.62,27.74,16.28,31.91,6.01,4.43,13.49,1.07,17.27-6.77,38.97-80.83,37.08,80.46,78.8-10.9,30.98-67.85,56.62,86.25,88.43,26.64,32.82-61.52,22.47,43.12,62.87-66.61,31.18-84.69,50.18,99.04,68.7,60.21,13.55-28.4,22.13-47.38,43.54,8.77,10.44,27.37,39.88,33.74,39.88,33.74L.18,161.7Z"/><path class="cls-1" d="M.18,161.71s24.3-5.02,40.42-61.32c9.18-32.05,25.14-42.45,34.67-5.95,4.29,16.43,10.62,24.26,16.28,27.91,6.01,3.88,13.49,.94,17.27-5.92,38.97-70.7,37.08,70.38,78.8-9.54,30.98-59.35,56.62,75.45,88.43,23.3,32.82-53.81,22.47,37.72,62.87-58.26,31.18-74.08,50.18,86.63,68.7,52.67,13.55-24.84,22.13-41.45,43.54,7.67,10.44,23.94,39.88,29.51,39.88,29.51L.18,161.71Z"/><path class="cls-4" d="M.18,161.72s24.3-4.11,40.42-50.18c9.18-26.23,25.14-34.75,34.67-4.87,4.29,13.45,10.62,19.86,16.28,22.84,6.01,3.17,13.49,.77,17.27-4.85,38.97-57.87,37.08,57.6,78.8-7.8,30.98-48.58,56.62,61.75,88.43,19.07,32.82-44.04,22.47,30.87,62.87-47.68,31.18-60.63,50.18,70.9,68.7,43.1,13.55-20.33,22.13-33.92,43.54,6.28,10.44,19.59,39.88,24.15,39.88,24.15l-490.86-.06Z"/><path class="cls-3" d="M490.88,162.79l.32-2.03c-.29-.04-29.06-4.76-39.13-23.84-9.56-18.11-16.96-26.34-24-26.68-7.73-.29-13.51,8.47-20.91,19.67l-.4,.6c-1.62,2.46-3.31,3.56-4.82,3.48-5.36-.38-11.74-13.89-17.91-26.95-8.5-18-17.3-36.62-28.33-36.78-6.17,0-11.91,5.52-17.7,16.87-12.15,23.83-20.77,35.77-27.12,37.56-3,.85-5.34-.57-8.02-2.21-5.92-3.62-12.62-7.73-27.64,12.61-4.67,6.33-9.34,9.5-14.26,9.7-.16,0-.33,0-.49,0-9.28,0-18.54-10.61-27.51-20.87-9.44-10.81-19.29-21.89-29.47-21.18-5.95,.46-11.42,4.77-16.73,13.17-8.6,13.6-15.85,20.29-22.16,20.45-6.88,0-12.15-7.46-17.26-14.68-5.31-7.54-10.82-15.33-18.32-15.33-6.44,.09-13.28,5.78-21.04,17.42-3.6,5.39-10.59,7.41-15.94,4.55-6.92-3.69-12.23-11.24-15.78-22.45-5.14-16.24-11.59-19.73-16.11-19.79-7.54,0-15.15,9.21-20.51,24.68C23.93,156,.24,160.66,0,160.71l.35,2.03c1.01-.17,25.07-4.78,41.22-51.3,4.99-14.38,12.05-23.29,18.45-23.29,5.52,.07,10.55,6.59,14.28,18.35,3.71,11.74,9.36,19.7,16.77,23.65,6.24,3.3,14.42,1.03,18.6-5.23,7.37-11.03,13.66-16.42,19.23-16.49,6.54,0,11.51,7.02,16.75,14.45,5.41,7.65,10.98,15.56,18.7,15.56,7.35-.18,15.15-7.18,24.14-21.4,4.95-7.82,9.9-11.81,15.16-12.22,9.17-.68,18.65,10.06,27.76,20.48,9.27,10.61,18.84,21.57,29.05,21.57,.19,0,.39,0,.58-.01,5.59-.23,10.77-3.67,15.84-10.53,13.9-18.83,19.49-15.4,24.91-12.08,2.84,1.74,5.77,3.54,9.65,2.44,4.74-1.34,12.25-6.94,28.4-38.61,5.33-10.44,10.61-15.74,15.72-15.74,9.86,.15,18.76,18.98,26.61,35.6,7.01,14.84,13.06,27.66,19.62,28.12,2.39,.11,4.65-1.31,6.69-4.4l.4-.6c7.04-10.66,12.69-18.98,19.09-18.75,6.15,.3,13.23,8.43,22.29,25.6,10.55,19.99,39.41,24.71,40.63,24.9Z"/></g></g><g><g><path class="cls-2" d="M522.33,161.68s-24.3-7.28-40.42-88.96c-9.18-46.5-25.14-61.59-34.67-8.63-4.29,23.84-10.62,35.2-16.28,40.49-6.01,5.62-13.49,1.36-17.27-8.6-38.97-102.58-37.08,102.11-78.8-13.83-30.98-86.11-56.62,109.46-88.43,33.8-32.82-78.06-22.47,54.72-62.87-84.53-31.18-107.48-50.18,125.69-68.7,76.4-13.55-36.04-22.13-60.13-43.54,11.13-10.44,34.73-39.88,42.82-39.88,42.82l490.86-.1Z"/><path class="cls-2" d="M522.33,161.69s-24.3-6.5-40.42-79.46c-9.18-41.53-25.14-55.02-34.67-7.71-4.29,21.29-10.62,31.44-16.28,36.17-6.01,5.02-13.49,1.21-17.27-7.68-38.97-91.62-37.08,91.2-78.8-12.36-30.98-76.91-56.62,97.77-88.43,30.19-32.82-69.73-22.47,48.87-62.87-75.5-31.18-96-50.18,112.26-68.7,68.25-13.55-32.19-22.13-53.71-43.54,9.94-10.44,31.02-39.88,38.24-39.88,38.24l490.86-.09Z"/><path class="cls-2" d="M522.33,161.7s-24.3-5.74-40.42-70.1c-9.18-36.64-25.14-48.54-34.67-6.8-4.29,18.78-10.62,27.74-16.28,31.91-6.01,4.43-13.49,1.07-17.27-6.77-38.97-80.83-37.08,80.46-78.8-10.9-30.98-67.85-56.62,86.25-88.43,26.64-32.82-61.52-22.47,43.12-62.87-66.61-31.18-84.69-50.18,99.04-68.7,60.21-13.55-28.4-22.13-47.38-43.54,8.77-10.44,27.37-39.88,33.74-39.88,33.74l490.86-.08Z"/><path class="cls-2" d="M522.33,161.71s-24.3-5.02-40.42-61.32c-9.18-32.05-25.14-42.45-34.67-5.95-4.29,16.43-10.62,24.26-16.28,27.91-6.01,3.88-13.49,.94-17.27-5.92-38.97-70.7-37.08,70.38-78.8-9.54-30.98-59.35-56.62,75.45-88.43,23.3-32.82-53.81-22.47,37.72-62.87-58.26-31.18-74.08-50.18,86.63-68.7,52.67-13.55-24.84-22.13-41.45-43.54,7.67-10.44,23.94-39.88,29.51-39.88,29.51l490.86-.07Z"/><path class="cls-6" d="M522.33,161.72s-24.3-4.11-40.42-50.18c-9.18-26.23-25.14-34.75-34.67-4.87-4.29,13.45-10.62,19.86-16.28,22.84-6.01,3.17-13.49,.77-17.27-4.85-38.97-57.87-37.08,57.6-78.8-7.8-30.98-48.58-56.62,61.75-88.43,19.07-32.82-44.04-22.47,30.87-62.87-47.68-31.18-60.63-50.18,70.9-68.7,43.1-13.55-20.33-22.13-33.92-43.54,6.28-10.44,19.59-39.88,24.15-39.88,24.15l490.86-.06Z"/><path class="cls-5" d="M31.63,162.79l-.32-2.03c.29-.04,29.06-4.76,39.13-23.84,9.56-18.11,16.96-26.34,24-26.68,7.73-.29,13.51,8.47,20.91,19.67l.4,.6c1.62,2.46,3.31,3.56,4.82,3.48,5.36-.38,11.74-13.89,17.91-26.95,8.5-18,17.3-36.62,28.33-36.78,6.17,0,11.91,5.52,17.7,16.87,12.15,23.83,20.77,35.77,27.12,37.56,3,.85,5.34-.57,8.02-2.21,5.92-3.62,12.62-7.73,27.64,12.61,4.67,6.33,9.34,9.5,14.26,9.7,.16,0,.33,0,.49,0,9.28,0,18.54-10.61,27.51-20.87,9.44-10.81,19.29-21.89,29.47-21.18,5.95,.46,11.42,4.77,16.73,13.17,8.6,13.6,15.85,20.29,22.16,20.45,6.88,0,12.15-7.46,17.26-14.68,5.31-7.54,10.82-15.33,18.32-15.33,6.44,.09,13.28,5.78,21.04,17.42,3.6,5.39,10.59,7.41,15.94,4.55,6.92-3.69,12.23-11.24,15.78-22.45,5.14-16.24,11.59-19.73,16.11-19.79,7.54,0,15.15,9.21,20.51,24.68,15.69,45.25,39.38,49.91,39.63,49.95l-.35,2.03c-1.01-.17-25.07-4.78-41.22-51.3-4.99-14.38-12.05-23.29-18.45-23.29-5.52,.07-10.55,6.59-14.28,18.35-3.71,11.74-9.36,19.7-16.77,23.65-6.24,3.3-14.42,1.03-18.6-5.23-7.37-11.03-13.66-16.42-19.23-16.49-6.54,0-11.51,7.02-16.75,14.45-5.41,7.65-10.98,15.56-18.7,15.56-7.35-.18-15.15-7.18-24.14-21.4-4.95-7.82-9.9-11.81-15.16-12.22-9.17-.68-18.65,10.06-27.76,20.48-9.27,10.61-18.84,21.57-29.05,21.57-.19,0-.39,0-.58-.01-5.59-.23-10.77-3.67-15.84-10.53-13.9-18.83-19.49-15.4-24.91-12.08-2.84,1.74-5.77,3.54-9.65,2.44-4.74-1.34-12.25-6.94-28.4-38.61-5.33-10.44-10.61-15.74-15.72-15.74-9.86,.15-18.76,18.98-26.61,35.6-7.01,14.84-13.06,27.66-19.62,28.12-2.39,.11-4.65-1.31-6.69-4.4l-.4-.6c-7.04-10.66-12.69-18.98-19.09-18.75-6.15,.3-13.23,8.43-22.29,25.6-10.55,19.99-39.41,24.71-40.63,24.9Z"/></g><g><path class="cls-2" d="M1013.35,161.68s-24.3-7.28-40.42-88.96c-9.18-46.5-25.14-61.59-34.67-8.63-4.29,23.84-10.62,35.2-16.28,40.49-6.01,5.62-13.49,1.36-17.27-8.6-38.97-102.58-37.08,102.11-78.8-13.83-30.98-86.11-56.62,109.46-88.43,33.8-32.82-78.06-22.47,54.72-62.87-84.53-31.18-107.48-50.18,125.69-68.7,76.4-13.55-36.04-22.13-60.13-43.54,11.13-10.44,34.73-39.88,42.82-39.88,42.82l490.86-.1Z"/><path class="cls-2" d="M1013.35,161.69s-24.3-6.5-40.42-79.46c-9.18-41.53-25.14-55.02-34.67-7.71-4.29,21.29-10.62,31.44-16.28,36.17-6.01,5.02-13.49,1.21-17.27-7.68-38.97-91.62-37.08,91.2-78.8-12.36-30.98-76.91-56.62,97.77-88.43,30.19-32.82-69.73-22.47,48.87-62.87-75.5-31.18-96-50.18,112.26-68.7,68.25-13.55-32.19-22.13-53.71-43.54,9.94-10.44,31.02-39.88,38.24-39.88,38.24l490.86-.09Z"/><path class="cls-2" d="M1013.35,161.7s-24.3-5.74-40.42-70.1c-9.18-36.64-25.14-48.54-34.67-6.8-4.29,18.78-10.62,27.74-16.28,31.91-6.01,4.43-13.49,1.07-17.27-6.77-38.97-80.83-37.08,80.46-78.8-10.9-30.98-67.85-56.62,86.25-88.43,26.64-32.82-61.52-22.47,43.12-62.87-66.61-31.18-84.69-50.18,99.04-68.7,60.21-13.55-28.4-22.13-47.38-43.54,8.77-10.44,27.37-39.88,33.74-39.88,33.74l490.86-.08Z"/><path class="cls-2" d="M1013.35,161.71s-24.3-5.02-40.42-61.32c-9.18-32.05-25.14-42.45-34.67-5.95-4.29,16.43-10.62,24.26-16.28,27.91-6.01,3.88-13.49,.94-17.27-5.92-38.97-70.7-37.08,70.38-78.8-9.54-30.98-59.35-56.62,75.45-88.43,23.3-32.82-53.81-22.47,37.72-62.87-58.26-31.18-74.08-50.18,86.63-68.7,52.67-13.55-24.84-22.13-41.45-43.54,7.67-10.44,23.94-39.88,29.51-39.88,29.51l490.86-.07Z"/><path class="cls-6" d="M1013.35,161.72s-24.3-4.11-40.42-50.18c-9.18-26.23-25.14-34.75-34.67-4.87-4.29,13.45-10.62,19.86-16.28,22.84-6.01,3.17-13.49,.77-17.27-4.85-38.97-57.87-37.08,57.6-78.8-7.8-30.98-48.58-56.62,61.75-88.43,19.07-32.82-44.04-22.47,30.87-62.87-47.68-31.18-60.63-50.18,70.9-68.7,43.1-13.55-20.33-22.13-33.92-43.54,6.28-10.44,19.59-39.88,24.15-39.88,24.15l490.86-.06Z"/><path class="cls-5" d="M522.65,162.79l-.32-2.03c.29-.04,29.06-4.76,39.13-23.84,9.56-18.11,16.96-26.34,24-26.68,7.73-.29,13.51,8.47,20.91,19.67l.4,.6c1.62,2.46,3.31,3.56,4.82,3.48,5.36-.38,11.74-13.89,17.91-26.95,8.5-18,17.3-36.62,28.33-36.78,6.17,0,11.91,5.52,17.7,16.87,12.15,23.83,20.77,35.77,27.12,37.56,3,.85,5.34-.57,8.02-2.21,5.92-3.62,12.62-7.73,27.64,12.61,4.67,6.33,9.34,9.5,14.26,9.7,.16,0,.33,0,.49,0,9.28,0,18.54-10.61,27.51-20.87,9.44-10.81,19.29-21.89,29.47-21.18,5.95,.46,11.42,4.77,16.73,13.17,8.6,13.6,15.85,20.29,22.16,20.45,6.88,0,12.15-7.46,17.26-14.68,5.31-7.54,10.82-15.33,18.32-15.33,6.44,.09,13.28,5.78,21.04,17.42,3.6,5.39,10.59,7.41,15.94,4.55,6.92-3.69,12.23-11.24,15.78-22.45,5.14-16.24,11.59-19.73,16.11-19.79,7.54,0,15.15,9.21,20.51,24.68,15.69,45.25,39.38,49.91,39.63,49.95l-.35,2.03c-1.01-.17-25.07-4.78-41.22-51.3-4.99-14.38-12.05-23.29-18.45-23.29-5.52,.07-10.55,6.59-14.28,18.35-3.71,11.74-9.36,19.7-16.77,23.65-6.24,3.3-14.42,1.03-18.6-5.23-7.37-11.03-13.66-16.42-19.23-16.49-6.54,0-11.51,7.02-16.75,14.45-5.41,7.65-10.98,15.56-18.7,15.56-7.35-.18-15.15-7.18-24.14-21.4-4.95-7.82-9.9-11.81-15.16-12.22-9.17-.68-18.65,10.06-27.76,20.48-9.27,10.61-18.84,21.57-29.05,21.57-.19,0-.39,0-.58-.01-5.59-.23-10.77-3.67-15.84-10.53-13.9-18.83-19.49-15.4-24.91-12.08-2.84,1.74-5.77,3.54-9.65,2.44-4.74-1.34-12.25-6.94-28.4-38.61-5.33-10.44-10.61-15.74-15.72-15.74-9.86,.15-18.76,18.98-26.61,35.6-7.01,14.84-13.06,27.66-19.62,28.12-2.39,.11-4.65-1.31-6.69-4.4l-.4-.6c-7.04-10.66-12.69-18.98-19.09-18.75-6.15,.3-13.23,8.43-22.29,25.6-10.55,19.99-39.41,24.71-40.63,24.9Z"/></g></g></g></g></svg>