<?xml version="1.0" encoding="UTF-8"?><svg id="Layer_2" xmlns="http://www.w3.org/2000/svg" viewBox="0 0 309.43 54.38"><defs><style>.cls-1{fill:#fff;}.cls-2{opacity:.15;}</style></defs><g id="Layer_1-2"><g><g><path class="cls-1" d="M43.54,.04h-11.8V5.96h17.68V.04h-5.88Zm-8.87,2.96l-2.88,2.88V.12l2.88,2.88ZM31.82,.09h5.76l-2.88,2.88L31.82,.09Zm2.88,2.95l2.88,2.88h-5.76l2.88-2.88Zm.03-.03L37.61,.12V5.88l-2.88-2.88ZM37.66,.12l2.88,2.88-2.88,2.88V.12Zm.03-.03h5.76l-2.88,2.88L37.69,.09Zm2.88,2.95l2.88,2.88h-5.76l2.88-2.88Zm.03-.03L43.49,.12V5.88l-2.88-2.88ZM43.54,.12l2.88,2.88-2.88,2.88V.12Zm.03-.03h5.76l-2.88,2.88L43.57,.09Zm2.88,2.95l2.88,2.88h-5.76l2.88-2.88Zm.03-.03L49.37,.12V5.88l-2.88-2.88Z"/><path class="cls-1" d="M49.45,6H31.7V0h17.75V6Zm-5.79-.12h5.58l-2.79-2.79-2.79,2.79Zm-5.88,0h5.58l-2.79-2.79-2.79,2.79Zm-5.88,0h5.58l-2.79-2.79-2.79,2.79Zm8.76-2.88l2.79,2.79V.21l-2.79,2.79ZM31.82,.21V5.79l2.79-2.79L31.82,.21ZM43.57,.21V5.79l2.79-2.79L43.57,.21Zm2.96,2.79l2.79,2.79V.21l-2.79,2.79Zm-11.75,0l2.79,2.79V.21l-2.79,2.79ZM37.7,.21V5.79l2.79-2.79L37.7,.21Zm-5.79-.09l2.79,2.79L37.49,.12h-5.58ZM37.78,.12l2.79,2.79L43.37,.12h-5.58ZM43.66,.12l2.79,2.79L49.24,.12h-5.58Z"/></g><g class="cls-2"><path class="cls-1" d="M131.52,33.34l4.91-8.5h-19.62l4.9,8.5,4.9,8.5s4.91-8.5,4.91-8.5Z"/><polygon class="cls-1" points="113.04 24.84 108.14 33.34 103.23 41.84 113.04 41.84 122.85 41.84 117.95 33.34 113.04 24.84"/><polygon class="cls-1" points="109.54 24.84 99.73 24.84 89.92 24.84 94.83 33.34 99.73 41.84 104.63 33.34 109.54 24.84"/><polygon class="cls-1" points="86.15 24.84 81.25 33.34 76.34 41.84 86.15 41.84 95.96 41.84 91.06 33.34 86.15 24.84"/><polygon class="cls-1" points="82.65 24.84 72.84 24.84 63.03 24.84 67.94 33.34 72.84 41.84 77.75 33.34 82.65 24.84"/><polygon class="cls-1" points="59.26 24.84 54.36 33.34 49.45 41.84 59.26 41.84 69.07 41.84 64.17 33.34 59.26 24.84"/><polygon class="cls-1" points="55.76 24.84 45.95 24.84 36.14 24.84 41.05 33.34 45.95 41.84 50.86 33.34 55.76 24.84"/><polygon class="cls-1" points="32.38 24.84 27.47 33.34 22.56 41.84 32.38 41.84 42.18 41.84 37.28 33.34 32.38 24.84"/><polygon class="cls-1" points="28.87 24.84 19.06 24.84 9.25 24.84 14.16 33.34 19.06 41.84 23.97 33.34 28.87 24.84"/><polygon class="cls-1" points="212.19 33.34 217.09 24.84 207.28 24.84 197.47 24.84 202.38 33.34 207.28 41.84 212.19 33.34"/><polygon class="cls-1" points="185.3 33.34 190.2 24.84 180.4 24.84 170.58 24.84 175.49 33.34 180.39 41.84 185.3 33.34"/><polygon class="cls-1" points="166.82 24.84 161.91 33.34 157 41.84 166.82 41.84 176.63 41.84 171.72 33.34 166.82 24.84"/><polygon class="cls-1" points="163.31 24.84 153.5 24.84 143.69 24.84 148.6 33.34 153.5 41.84 158.41 33.34 163.31 24.84"/><polygon class="cls-1" points="139.93 24.84 135.02 33.34 130.11 41.84 139.93 41.84 149.73 41.84 144.83 33.34 139.93 24.84"/><polygon class="cls-1" points="287.95 24.84 278.14 24.84 283.05 33.34 287.95 41.84 292.86 33.34 297.76 24.84 287.95 24.84"/><polygon class="cls-1" points="274.37 24.84 269.47 33.34 264.56 41.84 274.37 41.84 284.18 41.84 279.28 33.34 274.37 24.84"/><polygon class="cls-1" points="270.87 24.84 261.06 24.84 251.25 24.84 256.16 33.34 261.06 41.84 265.97 33.34 270.87 24.84"/><polygon class="cls-1" points="247.48 24.84 242.58 33.34 237.67 41.84 247.48 41.84 257.29 41.84 252.39 33.34 247.48 24.84"/><polygon class="cls-1" points="243.98 24.84 234.17 24.84 224.36 24.84 229.27 33.34 234.17 41.84 239.08 33.34 243.98 24.84"/><polygon class="cls-1" points="220.59 24.84 215.69 33.34 210.78 41.84 220.59 41.84 230.4 41.84 225.5 33.34 220.59 24.84"/><polygon class="cls-1" points="193.71 24.84 188.8 33.34 183.89 41.84 193.71 41.84 203.51 41.84 198.61 33.34 193.71 24.84"/></g><g><rect class="cls-1" x="32.37" y="10.33" width=".61" height="2.6"/><rect class="cls-1" x="37.05" y="10.33" width=".61" height="2.6"/><rect class="cls-1" x="41.72" y="10.33" width=".62" height="2.6"/><rect class="cls-1" x="46.4" y="10.33" width=".61" height="2.6"/><rect class="cls-1" x="51.08" y="10.33" width=".61" height="2.6"/><rect class="cls-1" x="55.75" y="10.33" width=".61" height="2.6"/><rect class="cls-1" x="60.43" y="10.33" width=".61" height="2.6"/><rect class="cls-1" x="65.11" y="10.33" width=".61" height="2.6"/><rect class="cls-1" x="69.78" y="10.33" width=".62" height="2.6"/></g><g><path class="cls-1" d="M88.11,11.31l.12-.13-.12-.13v-.64l.12-.13,.13,.13v.64l-.13,.13,.13,.13v.64l-.13,.13-.12-.13v-.64Zm.27-1.17h.66l.13,.12-.13,.13h-.66l-.12-.13,.12-.12Zm0,1.83h.66l.13,.13-.13,.13h-.66l-.12-.13,.12-.13Zm.48-1.55h.17v.2l-.46,1.32h-.17v-.2l.46-1.32Zm.21,.89l.12-.13-.12-.12v-.65l.12-.13,.12,.13v.64l-.12,.13,.12,.13v.64l-.12,.13-.12-.13v-.64Z"/><path class="cls-1" d="M89.69,12.34l-.13-.13v-.17l.13-.12,.13,.12v.17l-.13,.13Z"/><path class="cls-1" d="M90.52,12.22h-.43l-.12-.13,.12-.13h.42l.12,.13-.12,.13Zm0-1.83h-.19l-.12-.13,.12-.12h.43l-.25,.25Zm.27,.67l-.12,.13,.12,.13v.64l-.12,.13-.13-.13v-.64l.13-.13-.13-.13v-.64l.25-.25v.89Zm-.1,1.04l.12-.13h.42l.12,.13-.12,.13h-.43l-.12-.13Z"/><path class="cls-1" d="M91.51,11.04v-.62l.12-.13,.12,.13v.62l-.12,.13-.12-.13Zm0,.29l.12-.13,.12,.13v.62l-.12,.13-.12-.13v-.62Zm.27-.94l-.12-.13,.12-.12h.66l.12,.12-.12,.13h-.66Zm0,.92l-.12-.13,.12-.13h.66l.12,.13-.12,.13h-.66Zm0,.91l-.12-.13,.12-.13h.66l.12,.13-.12,.13h-.66Zm.68-.27v-.62l.12-.13,.13,.13v.62l-.13,.13-.12-.13Z"/><path class="cls-1" d="M113.97,10.82l-.13,.12,.13,.13v.79l-.13,.12-.13-.12v-.79l.13-.13-.13-.12v-.79l.13-.12,.13,.12v.79Zm.67,0h-.16l-.47-.62v-.17h.17l.47,.63v.16Zm.03-.79l.13-.12,.12,.12v.79l-.12,.12,.12,.13v.79l-.12,.12-.13-.12v-.79l.13-.13-.13-.12v-.79Z"/><path class="cls-1" d="M115.17,10.8v-.77l.13-.12,.13,.12v.77l-.13,.12-.13-.12Zm.93,1.19h-.81l-.13-.12,.13-.13h.81l.12,.13-.12,.12Zm-.66-1.17h.66l.12,.12-.12,.13h-.66l-.12-.13,.12-.12Zm.68-.02v-.77l.13-.12,.12,.12v.77l-.12,.12-.13-.12Zm0,.29l.13-.13,.12,.13v.62l-.12,.12-.13-.12v-.62Z"/><path class="cls-1" d="M117.08,11.99h-.43l-.12-.12,.12-.13h.42l.12,.13-.12,.12Zm0-1.83h-.19l-.13-.12,.13-.12h.43l-.25,.25Zm.27,.67l-.12,.12,.12,.13v.64l-.12,.12-.13-.12v-.64l.13-.13-.13-.12v-.64l.25-.25v.89Zm-.1,1.04l.12-.13h.42l.13,.13-.13,.12h-.43l-.12-.12Z"/><path class="cls-1" d="M118.53,11.99h-.43l-.12-.12,.12-.13h.42l.12,.13-.12,.12Zm0-1.83h-.19l-.12-.12,.12-.12h.43l-.25,.25Zm.27,.67l-.12,.12,.12,.13v.64l-.12,.12-.12-.12v-.64l.12-.13-.12-.12v-.64l.25-.25v.89Zm-.1,1.04l.12-.13h.42l.12,.13-.12,.12h-.43l-.12-.12Z"/><path class="cls-1" d="M119.52,10.82h.94l.13,.12-.13,.13h-.94l-.12-.13,.12-.12Zm.73-.91h.31l-.88,.88h-.16v-.17l.73-.72Zm.23,.12l.13-.12,.13,.12v.77l-.13,.12-.13-.12v-.77Zm0,1.06l.13-.13,.13,.13v.77l-.13,.12-.13-.12v-.77Z"/><path class="cls-1" d="M194.55,11.1l.1-.11,.11,.11v.53l-.21,.21v-.74Zm.23,.55h.69l.1,.1-.1,.11h-.9l.21-.21Zm0-1.56h.56l.11,.11-.11,.11h-.56l-.11-.11,.11-.11Zm0,.78h.56l.11,.11-.11,.1h-.56l-.11-.1,.11-.11Zm.58-.55l.11-.11,.1,.11v.53l-.1,.11-.11-.11v-.53Z"/><path class="cls-1" d="M195.87,11.65h.71l.11,.1-.11,.11h-.71l-.1-.11,.1-.1Zm.94-1.45l-.11,.11h-.79l-.11-.11,.11-.11h.79l.11,.11Zm-.78,.67h.55l.11,.11-.11,.1h-.55l-.11-.1,.11-.11Zm.38-.54h.27l-.51,.51h-.14v-.14l.38-.37Zm.19,.77l.11-.11,.11,.11v.53l-.11,.11-.11-.11v-.53Z"/><path class="cls-1" d="M196.91,12.17l.11-.11h1.56l.11,.11-.11,.1h-1.56l-.11-.1Z"/><path class="cls-1" d="M199.19,11.86h-.36l-.1-.11,.11-.1h.36l.11,.1-.11,.11Zm0-1.56h-.16l-.1-.11,.1-.11h.37l-.21,.21Zm.23,.57l-.1,.11,.1,.1v.55l-.1,.11-.11-.11v-.55l.11-.1-.11-.11v-.55l.21-.21v.76Zm-.09,.89l.1-.1h.36l.1,.1-.1,.11h-.36l-.1-.11Z"/><path class="cls-1" d="M200.03,10.87h.8l.1,.11-.1,.1h-.8l-.11-.1,.11-.11Zm.62-.78h.27l-.75,.75h-.14v-.14l.62-.61Zm.2,.11l.11-.11,.11,.11v.65l-.11,.11-.11-.11v-.65Zm0,.9l.11-.11,.11,.11v.65l-.11,.11-.11-.11v-.65Z"/><path class="cls-1" d="M203.68,11.08l.11-.1-.11-.11v-.55l.11-.11,.1,.11v.55l-.1,.11,.1,.1v.55l-.1,.11-.11-.11v-.55Zm.23-.99h.56l.1,.11-.1,.11h-.56l-.1-.11,.1-.11Zm0,1.56h.56l.1,.1-.1,.11h-.57l-.1-.11,.1-.1Zm.4-1.32h.15v.17l-.4,1.12h-.15v-.17l.4-1.12Zm.18,.75l.11-.1-.11-.1v-.55l.11-.11,.11,.11v.55l-.11,.11,.11,.1v.55l-.11,.11-.11-.11v-.55Z"/><path class="cls-1" d="M205.69,10.3h-.68l-.1-.11,.1-.11h.89l-.21,.21Zm-.39,.8l.11-.11,.11,.11v.65l-.11,.11-.11-.11v-.65Zm.5-.12l-.11,.1h-.16l-.11-.1,.11-.11h.16l.11,.11Zm.02-.02l-.11-.11v-.53l.21-.21v.74l-.11,.11Z"/><path class="cls-1" d="M206.54,11.86h-.37l-.1-.11,.11-.1h.36l.1,.1-.1,.11Zm0-1.56h-.16l-.11-.11,.11-.11h.37l-.21,.21Zm.23,.57l-.11,.11,.11,.1v.55l-.11,.11-.1-.11v-.55l.1-.1-.1-.11v-.55l.21-.21v.76Zm-.09,.89l.1-.1h.36l.11,.1-.11,.11h-.36l-.1-.11Z"/><path class="cls-1" d="M207.77,11.86h-.36l-.1-.11,.11-.1h.36l.1,.1-.1,.11Zm0-1.56h-.16l-.11-.11,.11-.11h.37l-.21,.21Zm.23,.57l-.11,.11,.11,.1v.55l-.11,.11-.11-.11v-.55l.11-.1-.11-.11v-.55l.21-.21v.76Zm-.09,.89l.11-.1h.36l.11,.1-.11,.11h-.36l-.1-.11Z"/><path class="cls-1" d="M208.62,10.87h.8l.11,.11-.11,.1h-.8l-.11-.1,.11-.11Zm.62-.78h.27l-.75,.75h-.14v-.14l.62-.61Zm.2,.11l.11-.11,.1,.11v.65l-.1,.11-.11-.11v-.65Zm0,.9l.11-.11,.1,.11v.65l-.1,.11-.11-.11v-.65Z"/><path class="cls-1" d="M210.85,11.86h-.37l-.1-.11,.11-.1h.36l.1,.1-.1,.11Zm0-1.56h-.16l-.1-.11,.1-.11h.37l-.21,.21Zm.23,.57l-.1,.11,.1,.1v.55l-.1,.11-.11-.11v-.55l.11-.1-.11-.11v-.55l.21-.21v.76Zm-.09,.89l.1-.1h.36l.11,.1-.11,.11h-.37l-.1-.11Z"/><path class="cls-1" d="M211.77,11.65h.71l.11,.1-.11,.11h-.71l-.11-.11,.11-.1Zm.94-1.45l-.11,.11h-.79l-.1-.11,.1-.11h.79l.11,.11Zm-.78,.67h.55l.11,.11-.11,.1h-.55l-.11-.1,.11-.11Zm.38-.54h.27l-.51,.51h-.14v-.14l.38-.37Zm.19,.77l.11-.11,.11,.11v.53l-.11,.11-.11-.11v-.53Z"/><path class="cls-1" d="M223.76,11.08l.11-.1-.11-.11v-.55l.11-.11,.11,.11v.55l-.11,.11,.11,.1v.55l-.11,.11-.11-.11v-.55Zm.23-.99h.56l.1,.11-.1,.11h-.56l-.11-.11,.11-.11Zm0,1.56h.56l.1,.1-.1,.11h-.57l-.1-.11,.11-.1Zm.4-1.32h.15v.17l-.4,1.12h-.15v-.17l.39-1.12Zm.18,.75l.1-.1-.1-.1v-.55l.1-.11,.11,.11v.55l-.11,.11,.11,.1v.55l-.11,.11-.1-.11v-.55Z"/><path class="cls-1" d="M225.1,11.95l-.11-.1v-.14l.11-.11,.1,.11v.14l-.1,.1Z"/><path class="cls-1" d="M225.82,11.86h-.36l-.1-.11,.11-.1h.36l.11,.1-.11,.11Zm0-1.56h-.16l-.11-.11,.11-.11h.37l-.21,.21Zm.23,.57l-.11,.11,.11,.1v.55l-.11,.11-.11-.11v-.55l.11-.1-.11-.11v-.55l.21-.21v.76Zm-.09,.89l.11-.1h.36l.1,.1-.1,.11h-.37l-.1-.11Z"/><path class="cls-1" d="M226.66,10.87h.8l.11,.11-.11,.1h-.8l-.11-.1,.11-.11Zm.62-.78h.27l-.75,.75h-.14v-.14l.62-.61Zm.2,.11l.11-.11,.11,.11v.65l-.11,.11-.11-.11v-.65Zm0,.9l.11-.11,.11,.11v.65l-.11,.11-.11-.11v-.65Z"/><path class="cls-1" d="M246.56,10.11l.21,.21v.53l-.11,.11-.11-.11v-.74Zm0,.99l.11-.11,.11,.11v.65l-.11,.11-.11-.11v-.65Zm.02-1.01h.79l.1,.11-.1,.11h-.58l-.21-.21Zm.21,.78h.58l.1,.11-.1,.1h-.58l-.11-.1,.11-.11Z"/><path class="cls-1" d="M247.82,10.87l-.11,.11,.11,.1v.67l-.11,.11-.11-.11v-.67l.11-.1-.11-.11v-.67l.11-.11,.11,.11v.67Zm.57,0h-.14l-.4-.53v-.14h.14l.4,.53v.14Zm.03-.67l.11-.11,.11,.11v.67l-.11,.11,.11,.1v.67l-.11,.11-.11-.11v-.67l.11-.1-.11-.11v-.67Z"/><path class="cls-1" d="M248.74,12.17l.11-.11h1.56l.11,.11-.11,.1h-1.56l-.11-.1Z"/><path class="cls-1" d="M251.02,11.86h-.37l-.1-.11,.11-.1h.36l.11,.1-.11,.11Zm0-1.56h-.16l-.11-.11,.11-.11h.37l-.21,.21Zm.23,.57l-.11,.11,.11,.1v.55l-.11,.11-.1-.11v-.55l.1-.1-.1-.11v-.55l.21-.21v.76Zm-.09,.89l.11-.1h.36l.1,.1-.1,.11h-.37l-.1-.11Z"/><path class="cls-1" d="M251.94,11.65h.71l.11,.1-.11,.11h-.71l-.11-.11,.11-.1Zm.94-1.45l-.11,.11h-.79l-.1-.11,.1-.11h.79l.11,.11Zm-.79,.67h.55l.11,.11-.11,.1h-.55l-.1-.1,.1-.11Zm.38-.54h.27l-.51,.51h-.14v-.14l.38-.37Zm.2,.77l.1-.11,.11,.11v.53l-.11,.11-.1-.11v-.53Z"/><path class="cls-1" d="M253.18,11.65h.71l.11,.1-.11,.11h-.71l-.1-.11,.1-.1Zm.94-1.45l-.11,.11h-.79l-.11-.11,.11-.11h.79l.11,.11Zm-.78,.67h.55l.11,.11-.11,.1h-.55l-.11-.1,.11-.11Zm.38-.54h.27l-.51,.51h-.14v-.14l.38-.37Zm.19,.77l.11-.11,.11,.11v.53l-.11,.11-.11-.11v-.53Z"/><path class="cls-1" d="M255.11,10.3h-.67l-.1-.11,.1-.11h.88l-.21,.21Zm-.39,.8l.11-.11,.1,.11v.65l-.1,.11-.11-.11v-.65Zm.5-.12l-.11,.1h-.16l-.1-.1,.1-.11h.16l.11,.11Zm.02-.02l-.11-.11v-.53l.21-.21v.74l-.11,.11Z"/><path class="cls-1" d="M260.38,11.08l.11-.1-.11-.11v-.55l.11-.11,.11,.11v.55l-.11,.11,.11,.1v.55l-.11,.11-.11-.11v-.55Zm.23-.99h.56l.11,.11-.11,.11h-.56l-.11-.11,.11-.11Zm0,1.56h.56l.11,.1-.11,.11h-.56l-.1-.11,.11-.1Zm.4-1.32h.15v.17l-.39,1.12h-.15v-.17l.39-1.12Zm.17,.75l.11-.1-.11-.1v-.55l.11-.11,.11,.11v.55l-.11,.11,.11,.1v.55l-.11,.11-.11-.11v-.55Z"/><path class="cls-1" d="M261.72,11.95l-.11-.1v-.14l.11-.11,.1,.11v.14l-.1,.1Z"/><path class="cls-1" d="M262.43,11.86h-.36l-.1-.11,.1-.1h.36l.11,.1-.11,.11Zm0-1.56h-.16l-.1-.11,.1-.11h.37l-.21,.21Zm.23,.57l-.11,.11,.11,.1v.55l-.11,.11-.1-.11v-.55l.1-.1-.1-.11v-.55l.21-.21v.76Zm-.09,.89l.11-.1h.36l.11,.1-.11,.11h-.36l-.1-.11Z"/><path class="cls-1" d="M263.28,10.85v-.53l.11-.11,.1,.11v.53l-.1,.11-.11-.11Zm0,.25l.11-.11,.1,.11v.53l-.1,.11-.11-.11v-.53Zm.23-.8l-.1-.11,.1-.11h.56l.1,.11-.1,.11h-.56Zm0,.78l-.1-.1,.1-.11h.56l.1,.11-.1,.1h-.56Zm0,.78l-.1-.11,.1-.1h.56l.1,.1-.1,.11h-.56Zm.58-.23v-.53l.11-.11,.1,.11v.53l-.1,.11-.11-.11Z"/><path class="cls-1" d="M268.94,10.87l-.1,.11,.1,.1v.67l-.1,.11-.11-.11v-.67l.11-.1-.11-.11v-.67l.11-.11,.1,.11v.67Zm.57,0h-.14l-.4-.53v-.14h.14l.4,.53v.14Zm.03-.67l.11-.11,.11,.11v.67l-.11,.11,.11,.1v.67l-.11,.11-.11-.11v-.67l.11-.1-.11-.11v-.67Z"/><path class="cls-1" d="M269.96,10.85v-.65l.11-.11,.11,.11v.65l-.11,.11-.11-.11Zm.79,1.01h-.69l-.11-.11,.11-.1h.69l.1,.1-.1,.11Zm-.56-.99h.56l.1,.11-.1,.1h-.56l-.1-.1,.1-.11Zm.58-.02v-.65l.11-.11,.1,.11v.65l-.1,.11-.11-.11Zm0,.25l.11-.11,.1,.11v.53l-.1,.11-.11-.11v-.53Z"/><path class="cls-1" d="M272.19,11.86h-.36l-.1-.11,.11-.1h.36l.11,.1-.11,.11Zm0-1.56h-.16l-.11-.11,.11-.11h.37l-.21,.21Zm.23,.57l-.11,.11,.11,.1v.55l-.11,.11-.1-.11v-.55l.1-.1-.1-.11v-.55l.21-.21v.76Zm-.09,.89l.1-.1h.36l.11,.1-.11,.11h-.37l-.1-.11Z"/><path class="cls-1" d="M273.43,11.86h-.36l-.1-.11,.11-.1h.36l.1,.1-.1,.11Zm0-1.56h-.16l-.11-.11,.11-.11h.37l-.21,.21Zm.23,.57l-.11,.11,.11,.1v.55l-.11,.11-.1-.11v-.55l.1-.1-.1-.11v-.55l.21-.21v.76Zm-.08,.89l.1-.1h.36l.1,.1-.1,.11h-.36l-.1-.11Z"/><path class="cls-1" d="M274.27,10.87h.81l.1,.11-.1,.1h-.81l-.11-.1,.11-.11Zm.62-.78h.27l-.75,.75h-.14v-.14l.62-.61Zm.2,.11l.11-.11,.11,.11v.65l-.11,.11-.11-.11v-.65Zm0,.9l.11-.11,.11,.11v.65l-.11,.11-.11-.11v-.65Z"/></g><g><g><path class="cls-1" d="M54.98,52.88v-.62l.1-.1,.1,.1v.62l-.1,.1-.1-.1Zm0,.24l.1-.1,.1,.1v.62l-.1,.1-.1-.1v-.62Zm.22-.22h.53l.1,.1-.1,.1h-.53l-.1-.1,.1-.1Zm.52-.74h.14v.14l-.51,.58h-.13v-.13l.51-.58Zm.03,.96l.1-.1,.1,.1v.62l-.1,.1-.1-.1v-.62Z"/><path class="cls-1" d="M56.15,53.1l.1-.1-.1-.1v-.52l.1-.1,.1,.1v.52l-.1,.1,.1,.1v.52l-.1,.1-.1-.1v-.52Zm.22-.95h.54l.1,.1-.1,.1h-.54l-.1-.1,.1-.1Zm0,1.48h.54l.1,.1-.1,.1h-.54l-.1-.1,.1-.1Zm.39-1.26h.14v.16l-.38,1.07h-.14v-.16l.38-1.07Zm.17,.72l.1-.1-.1-.1v-.53l.1-.1,.1,.1v.52l-.1,.1,.1,.1v.52l-.1,.1-.1-.1v-.52Z"/><path class="cls-1" d="M57.33,53.1l.1-.1-.1-.1v-.52l.1-.1,.1,.1v.52l-.1,.1,.1,.1v.52l-.1,.1-.1-.1v-.52Zm.22-.95h.54l.1,.1-.1,.1h-.54l-.1-.1,.1-.1Zm0,1.48h.54l.1,.1-.1,.1h-.54l-.1-.1,.1-.1Zm.39-1.26h.14v.16l-.38,1.07h-.14v-.16l.38-1.07Zm.17,.72l.1-.1-.1-.1v-.53l.1-.1,.1,.1v.52l-.1,.1,.1,.1v.52l-.1,.1-.1-.1v-.52Z"/><path class="cls-1" d="M58.5,53.12l.1-.1,.1,.1v.5l-.2,.2v-.71Zm.22,.52h.65l.1,.1-.1,.1h-.85l.2-.2Zm0-1.48h.54l.1,.1-.1,.1h-.54l-.1-.1,.1-.1Zm0,.74h.54l.1,.1-.1,.1h-.54l-.1-.1,.1-.1Zm.55-.52l.1-.1,.1,.1v.5l-.1,.1-.1-.1v-.5Z"/><path class="cls-1" d="M64.26,52.17l.2,.2v.5l-.1,.1-.1-.1v-.71Zm0,.94l.1-.1,.1,.1v.62l-.1,.1-.1-.1v-.62Zm.02-.96h.76l.1,.1-.1,.1h-.56l-.2-.2Zm.2,.74h.56l.1,.1-.1,.1h-.56l-.1-.1,.1-.1Z"/><path class="cls-1" d="M65.64,53.84h-.35l-.09-.1,.1-.1h.34l.1,.1-.1,.1Zm0-1.48h-.15l-.1-.1,.1-.1h.35l-.2,.2Zm.22,.54l-.1,.1,.1,.1v.52l-.1,.1-.1-.1v-.52l.1-.1-.1-.1v-.52l.2-.2v.72Zm-.08,.84l.1-.1h.34l.1,.1-.1,.1h-.35l-.09-.1Z"/><path class="cls-1" d="M66.44,52.88v-.5l.1-.1,.1,.1v.5l-.1,.1-.1-.1Zm0,.24l.1-.1,.1,.1v.5l-.1,.1-.1-.1v-.5Zm.22-.76l-.1-.1,.1-.1h.54l.1,.1-.1,.1h-.54Zm0,.74l-.1-.1,.1-.1h.54l.1,.1-.1,.1h-.54Zm0,.74l-.1-.1,.1-.1h.54l.1,.1-.1,.1h-.54Zm.55-.22v-.5l.1-.1,.1,.1v.5l-.1,.1-.1-.1Z"/><path class="cls-1" d="M67.62,53.1l.1-.1-.1-.1v-.52l.1-.1,.1,.1v.52l-.1,.1,.1,.1v.52l-.1,.1-.1-.1v-.52Zm.22-.95h.54l.1,.1-.1,.1h-.54l-.1-.1,.1-.1Zm0,1.48h.54l.1,.1-.1,.1h-.54l-.1-.1,.1-.1Zm.39-1.26h.14v.16l-.38,1.07h-.14v-.16l.38-1.07Zm.17,.72l.1-.1-.1-.1v-.53l.1-.1,.1,.1v.52l-.1,.1,.1,.1v.52l-.1,.1-.1-.1v-.52Z"/><path class="cls-1" d="M69.17,53.84h-.35l-.09-.1,.1-.1h.34l.1,.1-.1,.1Zm0-1.48h-.15l-.1-.1,.1-.1h.35l-.2,.2Zm.22,.54l-.1,.1,.1,.1v.52l-.1,.1-.1-.1v-.52l.1-.1-.1-.1v-.52l.2-.2v.72Zm-.08,.84l.1-.1h.34l.1,.1-.1,.1h-.35l-.09-.1Z"/><path class="cls-1" d="M75.13,53.12l.1-.1,.1,.1v.5l-.2,.2v-.71Zm.22,.52h.65l.1,.1-.1,.1h-.85l.2-.2Zm0-1.48h.54l.1,.1-.1,.1h-.54l-.1-.1,.1-.1Zm0,.74h.54l.1,.1-.1,.1h-.54l-.1-.1,.1-.1Zm.55-.52l.1-.1,.1,.1v.5l-.1,.1-.1-.1v-.5Z"/><path class="cls-1" d="M76.3,53.12l.1-.1,.1,.1v.5l-.2,.2v-.71Zm.22,.52h.65l.1,.1-.1,.1h-.86l.2-.2Zm0-1.48h.53l.1,.1-.1,.1h-.53l-.1-.1,.1-.1Zm0,.74h.53l.1,.1-.1,.1h-.53l-.1-.1,.1-.1Zm.55-.52l.1-.1,.1,.1v.5l-.1,.1-.1-.1v-.5Z"/><path class="cls-1" d="M77.85,53.84h-.35l-.09-.1,.1-.1h.34l.1,.1-.1,.1Zm0-1.48h-.15l-.1-.1,.1-.1h.35l-.2,.2Zm.22,.54l-.1,.1,.1,.1v.52l-.1,.1-.1-.1v-.52l.1-.1-.1-.1v-.52l.2-.2v.72Zm-.08,.84l.1-.1h.34l.1,.1-.1,.1h-.35l-.09-.1Z"/><path class="cls-1" d="M79.4,52.36h-.64l-.1-.1,.1-.1h.84l-.2,.2Zm-.37,.76l.1-.1,.1,.1v.62l-.1,.1-.1-.1v-.62Zm.47-.12l-.1,.1h-.15l-.1-.1,.1-.1h.15l.1,.1Zm.02-.02l-.1-.1v-.5l.2-.2v.71l-.1,.1Z"/><path class="cls-1" d="M79.83,52.38l.1-.1,.1,.1v.5l-.1,.1-.1-.1v-.5Zm0,.74l.1-.1,.1,.1v.5l-.1,.1-.1-.1v-.5Zm.22-.96h.54l.1,.1-.1,.1h-.54l-.1-.1,.1-.1Zm0,.74h.54l.1,.1-.1,.1h-.54l-.1-.1,.1-.1Zm0,.74h.54l.1,.1-.1,.1h-.54l-.1-.1,.1-.1Zm.55-1.26l.1-.1,.1,.1v.5l-.1,.1-.1-.1v-.5Zm0,.74l.1-.1,.1,.1v.5l-.1,.1-.1-.1v-.5Z"/><path class="cls-1" d="M81,52.88v-.5l.1-.1,.1,.1v.5l-.1,.1-.1-.1Zm.22-.52l-.1-.1,.1-.1h.53l.1,.1-.1,.1h-.53Zm0,.74l-.1-.1,.1-.1h.53l.1,.1-.1,.1h-.53Zm0,.74l-.1-.1,.1-.1h.53l.1,.1-.1,.1h-.53Zm.55-1.47l.1-.1,.1,.1v.5l-.1,.1-.1-.1v-.5Zm0,1.25v-.5l.1-.1,.1,.1v.5l-.1,.1-.1-.1Z"/><path class="cls-1" d="M82.55,53.84h-.35l-.09-.1,.1-.1h.34l.1,.1-.1,.1Zm0-1.48h-.15l-.1-.1,.1-.1h.35l-.2,.2Zm.22,.54l-.1,.1,.1,.1v.52l-.1,.1-.1-.1v-.52l.1-.1-.1-.1v-.52l.2-.2v.72Zm-.08,.84l.1-.1h.34l.1,.1-.1,.1h-.35l-.09-.1Z"/><path class="cls-1" d="M83.36,52.88v-.71l.2,.2v.5l-.1,.1-.1-.1Zm.85,.86l-.1,.1h-.65l-.1-.1,.1-.1h.65l.1,.1Zm-.63-1.38l-.2-.2h.96l-.2,.2h-.55Zm0,.74l-.1-.1,.1-.1h.53l.1,.1-.1,.1h-.53Zm.55,.52v-.5l.1-.1,.1,.1v.5l-.1,.1-.1-.1Z"/><path class="cls-1" d="M84.53,52.38l.1-.1,.1,.1v.5l-.1,.1-.1-.1v-.5Zm0,1.25v-.16l.1-.1,.1,.1v.16l-.1,.1-.1-.1Zm.22-1.47h.54l.1,.1-.1,.1h-.54l-.1-.1,.1-.1Zm0,.74h.54l.1,.1-.1,.1h-.54l-.1-.1,.1-.1Zm0,.74h.54l.1,.1-.1,.1h-.54l-.1-.1,.1-.1Zm.55-1.1v-.16l.1-.1,.1,.1v.16l-.1,.1-.1-.1Zm0,.58l.1-.1,.1,.1v.5l-.1,.1-.1-.1v-.5Z"/><path class="cls-1" d="M85.71,52.38l.1-.1,.1,.1v.5l-.1,.1-.1-.1v-.5Zm0,1.25v-.16l.1-.1,.1,.1v.16l-.1,.1-.1-.1Zm.22-1.47h.54l.1,.1-.1,.1h-.54l-.1-.1,.1-.1Zm0,.74h.54l.1,.1-.1,.1h-.54l-.1-.1,.1-.1Zm0,.74h.54l.1,.1-.1,.1h-.54l-.1-.1,.1-.1Zm.56-1.1v-.16l.1-.1,.1,.1v.16l-.1,.1-.1-.1Zm0,.58l.1-.1,.1,.1v.5l-.1,.1-.1-.1v-.5Z"/><path class="cls-1" d="M93.19,52.17l.2,.2v.5l-.1,.1-.1-.1v-.71Zm0,.94l.1-.1,.1,.1v.62l-.1,.1-.1-.1v-.62Zm.02-.96h.75l.1,.1-.1,.1h-.55l-.2-.2Zm.2,.74h.55l.1,.1-.1,.1h-.55l-.1-.1,.1-.1Z"/><path class="cls-1" d="M94.09,54.14l.1-.1h1.49l.1,.1-.1,.1h-1.49l-.1-.1Z"/><path class="cls-1" d="M96.25,53.84h-.35l-.09-.1,.1-.1h.34l.1,.1-.1,.1Zm0-1.48h-.15l-.1-.1,.1-.1h.35l-.2,.2Zm.22,.54l-.1,.1,.1,.1v.52l-.1,.1-.1-.1v-.52l.1-.1-.1-.1v-.52l.2-.2v.72Zm-.08,.84l.1-.1h.34l.1,.1-.1,.1h-.35l-.09-.1Z"/><path class="cls-1" d="M97.43,53.84h-.35l-.09-.1,.1-.1h.34l.1,.1-.1,.1Zm0-1.48h-.15l-.1-.1,.1-.1h.35l-.2,.2Zm.22,.54l-.1,.1,.1,.1v.52l-.1,.1-.1-.1v-.52l.1-.1-.1-.1v-.52l.2-.2v.72Zm-.08,.84l.1-.1h.34l.1,.1-.1,.1h-.35l-.09-.1Z"/></g><g><path class="cls-1" d="M126.54,53.09l.12-.11-.12-.12v-.59l.12-.11,.11,.11v.59l-.11,.12,.11,.11v.59l-.11,.11-.12-.11v-.59Zm.25-1.07h.61l.11,.12-.11,.12h-.61l-.12-.12,.12-.12Zm0,1.69h.61l.11,.12-.11,.11h-.61l-.11-.11,.12-.12Zm.44-1.42h.16v.18l-.43,1.21h-.16v-.18l.43-1.21Zm.19,.81l.12-.11-.12-.11v-.6l.12-.11,.11,.11v.59l-.11,.12,.11,.11v.59l-.11,.11-.12-.11v-.59Z"/><path class="cls-1" d="M127.88,52.84v-.57l.11-.11,.12,.11v.57l-.12,.11-.11-.11Zm.25-.59l-.11-.12,.11-.12h.61l.12,.12-.12,.12h-.61Zm0,.84l-.11-.11,.11-.12h.61l.12,.12-.12,.11h-.61Zm0,.84l-.11-.11,.11-.12h.61l.12,.12-.12,.11h-.61Zm.63-1.66l.12-.11,.11,.11v.57l-.11,.11-.12-.11v-.57Zm0,1.41v-.57l.12-.11,.11,.11v.57l-.11,.11-.12-.11Z"/><path class="cls-1" d="M129.63,53.93h-.39l-.11-.11,.11-.12h.39l.11,.12-.11,.11Zm0-1.68h-.17l-.11-.12,.11-.12h.4l-.23,.23Zm.25,.61l-.11,.12,.11,.11v.59l-.11,.11-.12-.11v-.59l.12-.11-.12-.12v-.59l.23-.23v.82Zm-.09,.96l.12-.12h.38l.11,.12-.11,.11h-.39l-.11-.11Z"/><path class="cls-1" d="M130.97,53.93h-.39l-.11-.11,.12-.12h.38l.12,.12-.12,.11Zm0-1.68h-.17l-.12-.12,.12-.12h.4l-.23,.23Zm.25,.61l-.12,.12,.12,.11v.59l-.12,.11-.11-.11v-.59l.11-.11-.11-.12v-.59l.23-.23v.82Zm-.1,.96l.12-.12h.39l.11,.12-.11,.11h-.39l-.11-.11Z"/><path class="cls-1" d="M131.88,52.86h.87l.12,.12-.12,.11h-.87l-.11-.11,.11-.12Zm.67-.84h.29l-.81,.81h-.15v-.16l.67-.66Zm.22,.12l.11-.12,.12,.12v.71l-.12,.11-.11-.11v-.71Zm0,.98l.11-.11,.12,.11v.71l-.12,.11-.11-.11v-.71Z"/><path class="cls-1" d="M133.33,54.03l-.11-.11v-.15l.11-.11,.12,.11v.15l-.12,.11Z"/><path class="cls-1" d="M134.09,53.93h-.39l-.11-.11,.11-.12h.39l.12,.12-.12,.11Zm0-1.68h-.17l-.12-.12,.12-.12h.4l-.23,.23Zm.25,.61l-.11,.12,.11,.11v.59l-.11,.11-.11-.11v-.59l.11-.11-.11-.12v-.59l.23-.23v.82Zm-.09,.96l.12-.12h.38l.12,.12-.12,.11h-.39l-.11-.11Z"/><path class="cls-1" d="M135,52.27l.12-.11,.11,.11v.57l-.11,.11-.12-.11v-.57Zm0,.84l.12-.11,.11,.11v.57l-.11,.11-.12-.11v-.57Zm.25-1.09h.61l.11,.12-.11,.12h-.61l-.11-.12,.11-.12Zm0,.84h.61l.11,.12-.11,.11h-.61l-.11-.11,.11-.12Zm0,.84h.61l.11,.12-.11,.11h-.61l-.11-.11,.11-.12Zm.63-1.44l.12-.11,.11,.11v.57l-.11,.11-.12-.11v-.57Zm0,.84l.12-.11,.11,.11v.57l-.11,.11-.12-.11v-.57Z"/><path class="cls-1" d="M136.45,54.03l-.11-.11v-.15l.11-.11,.12,.11v.15l-.12,.11Z"/><path class="cls-1" d="M137.22,53.93h-.39l-.1-.11,.11-.12h.39l.12,.12-.12,.11Zm0-1.68h-.17l-.11-.12,.11-.12h.4l-.23,.23Zm.25,.61l-.12,.12,.12,.11v.59l-.12,.11-.12-.11v-.59l.12-.11-.12-.12v-.59l.23-.23v.82Zm-.09,.96l.11-.12h.39l.11,.12-.11,.11h-.39l-.11-.11Z"/><path class="cls-1" d="M138.13,52.84v-.57l.12-.11,.12,.11v.57l-.12,.11-.12-.11Zm0,.27l.12-.11,.12,.11v.57l-.12,.11-.12-.11v-.57Zm.25-.86l-.12-.12,.12-.12h.61l.12,.12-.12,.12h-.61Zm0,.84l-.12-.11,.12-.12h.61l.12,.12-.12,.11h-.61Zm0,.84l-.12-.11,.12-.12h.61l.12,.12-.12,.11h-.61Zm.63-.25v-.57l.11-.11,.12,.11v.57l-.12,.11-.11-.11Z"/><path class="cls-1" d="M142.06,52.03l.23,.23v.57l-.12,.11-.11-.11v-.8Zm0,1.07l.11-.11,.12,.11v.57l-.23,.23v-.8Zm.02-1.09h.83l.12,.12-.12,.12h-.61l-.23-.23Zm.23,1.69h.61l.12,.12-.12,.11h-.83l.23-.23Zm0-.84h.61l.12,.12-.12,.11h-.61l-.11-.11,.11-.12Zm.63-.59l.11-.11,.12,.11v.57l-.12,.11-.11-.11v-.57Zm0,.84l.11-.11,.12,.11v.57l-.12,.11-.11-.11v-.57Z"/><path class="cls-1" d="M143.82,53.93h-.39l-.11-.11,.11-.12h.39l.11,.12-.11,.11Zm0-1.68h-.17l-.12-.12,.12-.12h.4l-.23,.23Zm.25,.61l-.12,.12,.12,.11v.59l-.12,.11-.11-.11v-.59l.11-.11-.11-.12v-.59l.23-.23v.82Zm-.09,.96l.11-.12h.39l.12,.12-.12,.11h-.39l-.11-.11Z"/><path class="cls-1" d="M145.38,52.03l.23,.23v.57l-.12,.11-.11-.11v-.8Zm0,1.07l.11-.11,.12,.11v.57l-.23,.23v-.8Zm.02-1.09h.83l.11,.12-.11,.12h-.61l-.23-.23Zm.23,1.69h.61l.11,.12-.11,.11h-.83l.23-.23Zm0-.84h.61l.11,.12-.11,.11h-.61l-.12-.11,.12-.12Zm.63-.59l.11-.11,.11,.11v.57l-.11,.11-.11-.11v-.57Zm0,.84l.11-.11,.11,.11v.57l-.11,.11-.11-.11v-.57Z"/><path class="cls-1" d="M146.71,53.11l.11-.11,.12,.11v.57l-.23,.23v-.8Zm.25,.59h.74l.12,.12-.12,.11h-.97l.23-.23Zm0-1.69h.61l.12,.12-.12,.12h-.61l-.11-.12,.11-.12Zm0,.84h.61l.12,.12-.12,.11h-.61l-.11-.11,.11-.12Zm.63-.59l.11-.11,.12,.11v.57l-.12,.11-.11-.11v-.57Z"/><path class="cls-1" d="M148.7,52.03l.23,.23v.57l-.11,.11-.12-.11v-.8Zm0,1.07l.12-.11,.11,.11v.57l-.23,.23v-.8Zm.02-1.09h.84l.11,.12-.11,.12h-.61l-.23-.23Zm.23,1.69h.61l.11,.12-.11,.11h-.84l.23-.23Zm0-.84h.61l.11,.12-.11,.11h-.61l-.12-.11,.12-.12Zm.63-.59l.11-.11,.11,.11v.57l-.11,.11-.11-.11v-.57Zm0,.84l.11-.11,.11,.11v.57l-.11,.11-.11-.11v-.57Z"/><path class="cls-1" d="M150.12,53.7h.77l.12,.12-.12,.11h-.77l-.11-.11,.11-.12Zm1.02-1.57l-.12,.12h-.86l-.11-.12,.11-.12h.86l.12,.12Zm-.85,.73h.6l.12,.12-.12,.11h-.6l-.11-.11,.11-.12Zm.41-.58h.29l-.55,.55h-.15v-.16l.41-.4Zm.21,.83l.12-.11,.12,.11v.57l-.12,.11-.12-.11v-.57Z"/><path class="cls-1" d="M152.05,52.86h.61l.12,.12-.12,.11h-.61l-.12-.11,.12-.12Z"/><path class="cls-1" d="M153.56,53.09l.12-.11-.12-.12v-.59l.12-.11,.11,.11v.59l-.11,.12,.11,.11v.59l-.11,.11-.12-.11v-.59Zm.25-1.07h.61l.12,.12-.12,.12h-.61l-.12-.12,.12-.12Zm0,1.69h.61l.12,.12-.12,.11h-.61l-.11-.11,.12-.12Zm.63-.61l.11-.11-.11-.11v-.6l.11-.11,.12,.11v.59l-.12,.12,.12,.11v.59l-.12,.11-.11-.11v-.59Z"/><path class="cls-1" d="M155.13,52.86l-.12,.12,.12,.11v.73l-.12,.11-.12-.11v-.73l.12-.11-.12-.12v-.73l.12-.12,.12,.12v.73Zm.62,0h-.15l-.44-.58v-.15h.15l.44,.57v.15Zm.03-.73l.12-.12,.11,.12v.73l-.11,.12,.11,.11v.73l-.11,.11-.12-.11v-.73l.12-.11-.12-.12v-.73Z"/><path class="cls-1" d="M157.95,53.93h-.39l-.1-.11,.12-.12h.38l.12,.12-.12,.11Zm0-1.68h-.17l-.12-.12,.12-.12h.4l-.23,.23Zm.25,.61l-.12,.12,.12,.11v.59l-.12,.11-.11-.11v-.59l.11-.11-.11-.12v-.59l.23-.23v.82Zm-.09,.96l.11-.12h.39l.11,.12-.11,.11h-.39l-.11-.11Z"/><path class="cls-1" d="M159.29,53.93h-.39l-.11-.11,.12-.12h.39l.12,.12-.12,.11Zm0-1.68h-.17l-.11-.12,.11-.12h.4l-.23,.23Zm.25,.61l-.12,.12,.12,.11v.59l-.12,.11-.11-.11v-.59l.11-.11-.11-.12v-.59l.23-.23v.82Zm-.09,.96l.11-.12h.39l.11,.12-.11,.11h-.39l-.11-.11Z"/><path class="cls-1" d="M160.29,53.7h.77l.12,.12-.12,.11h-.77l-.11-.11,.11-.12Zm1.02-1.57l-.12,.12h-.86l-.11-.12,.11-.12h.86l.12,.12Zm-.85,.73h.6l.12,.12-.12,.11h-.6l-.11-.11,.11-.12Zm.41-.58h.29l-.55,.55h-.15v-.16l.41-.4Zm.21,.83l.11-.11,.12,.11v.57l-.12,.11-.11-.11v-.57Z"/><path class="cls-1" d="M161.65,54.03l-.12-.11v-.15l.12-.11,.12,.11v.15l-.12,.11Z"/><path class="cls-1" d="M161.99,53.09l.12-.11-.12-.12v-.59l.12-.11,.11,.11v.59l-.11,.12,.11,.11v.59l-.11,.11-.12-.11v-.59Zm.25-1.07h.61l.11,.12-.11,.12h-.61l-.11-.12,.11-.12Zm0,1.69h.61l.11,.12-.11,.11h-.61l-.11-.11,.11-.12Zm.44-1.42h.16v.18l-.43,1.21h-.16v-.18l.43-1.21Zm.19,.81l.12-.11-.12-.11v-.6l.12-.11,.11,.11v.59l-.11,.12,.11,.11v.59l-.11,.11-.12-.11v-.59Z"/><path class="cls-1" d="M164.09,52.6h.61l.11,.12-.11,.11h-.61l-.12-.11,.12-.12Zm0,.51h.61l.11,.12-.11,.11h-.61l-.12-.11,.12-.12Z"/><path class="cls-1" d="M165.69,53.09l.12-.11-.12-.12v-.59l.12-.11,.11,.11v.59l-.11,.12,.11,.11v.59l-.11,.11-.12-.11v-.59Zm.25-1.07h.61l.11,.12-.11,.12h-.61l-.12-.12,.12-.12Zm0,1.69h.61l.11,.12-.11,.11h-.61l-.11-.11,.12-.12Zm.44-1.42h.16v.18l-.43,1.21h-.16v-.18l.43-1.21Zm.19,.81l.12-.11-.12-.11v-.6l.12-.11,.11,.11v.59l-.11,.12,.11,.11v.59l-.11,.11-.12-.11v-.59Z"/><path class="cls-1" d="M167.02,53.09l.11-.11-.11-.12v-.59l.11-.11,.12,.11v.59l-.12,.12,.12,.11v.59l-.12,.11-.11-.11v-.59Zm.25-1.07h.61l.12,.12-.12,.12h-.61l-.11-.12,.11-.12Zm0,1.69h.61l.12,.12-.12,.11h-.61l-.11-.11,.11-.12Zm.44-1.42h.16v.18l-.43,1.21h-.16v-.18l.43-1.21Zm.19,.81l.12-.11-.12-.11v-.6l.12-.11,.12,.11v.59l-.12,.12,.12,.11v.59l-.12,.11-.12-.11v-.59Z"/><path class="cls-1" d="M168.35,53.09l.11-.11-.11-.12v-.59l.11-.11,.11,.11v.59l-.11,.12,.11,.11v.59l-.11,.11-.11-.11v-.59Zm.25-1.07h.61l.11,.12-.11,.12h-.61l-.12-.12,.12-.12Zm0,1.69h.61l.11,.12-.11,.11h-.61l-.11-.11,.12-.12Zm.44-1.42h.16v.18l-.43,1.21h-.16v-.18l.43-1.21Zm.19,.81l.11-.11-.11-.11v-.6l.11-.11,.11,.11v.59l-.11,.12,.11,.11v.59l-.11,.11-.11-.11v-.59Z"/><path class="cls-1" d="M169.69,53.09l.11-.11-.11-.12v-.59l.11-.11,.11,.11v.59l-.11,.12,.11,.11v.59l-.11,.11-.11-.11v-.59Zm.25-1.07h.61l.11,.12-.11,.12h-.61l-.11-.12,.11-.12Zm0,1.69h.61l.11,.12-.11,.11h-.61l-.11-.11,.11-.12Zm.44-1.42h.16v.18l-.43,1.21h-.16v-.18l.43-1.21Zm.19,.81l.12-.11-.12-.11v-.6l.12-.11,.11,.11v.59l-.11,.12,.11,.11v.59l-.11,.11-.12-.11v-.59Z"/><path class="cls-1" d="M171.02,53.09l.12-.11-.12-.12v-.59l.12-.11,.12,.11v.59l-.12,.12,.12,.11v.59l-.12,.11-.12-.11v-.59Zm.25-1.07h.61l.12,.12-.12,.12h-.61l-.12-.12,.12-.12Zm0,1.69h.61l.12,.12-.12,.11h-.61l-.11-.11,.12-.12Zm.44-1.42h.16v.18l-.42,1.21h-.16v-.18l.43-1.21Zm.19,.81l.12-.11-.12-.11v-.6l.12-.11,.11,.11v.59l-.11,.12,.11,.11v.59l-.11,.11-.12-.11v-.59Z"/><path class="cls-1" d="M172.36,53.09l.11-.11-.11-.12v-.59l.11-.11,.12,.11v.59l-.12,.12,.12,.11v.59l-.12,.11-.11-.11v-.59Zm.25-1.07h.61l.12,.12-.12,.12h-.61l-.11-.12,.11-.12Zm0,1.69h.61l.12,.12-.12,.11h-.61l-.11-.11,.11-.12Zm.44-1.42h.16v.18l-.43,1.21h-.16v-.18l.43-1.21Zm.19,.81l.11-.11-.11-.11v-.6l.11-.11,.12,.11v.59l-.12,.12,.12,.11v.59l-.12,.11-.11-.11v-.59Z"/><path class="cls-1" d="M173.69,53.09l.12-.11-.12-.12v-.59l.12-.11,.11,.11v.59l-.11,.12,.11,.11v.59l-.11,.11-.12-.11v-.59Zm.25-1.07h.61l.11,.12-.11,.12h-.61l-.12-.12,.12-.12Zm0,1.69h.61l.11,.12-.11,.11h-.61l-.11-.11,.12-.12Zm.43-1.42h.16v.18l-.43,1.21h-.16v-.18l.43-1.21Zm.19,.81l.11-.11-.11-.11v-.6l.11-.11,.12,.11v.59l-.12,.12,.12,.11v.59l-.12,.11-.11-.11v-.59Z"/><path class="cls-1" d="M175.02,53.09l.12-.11-.12-.12v-.59l.12-.11,.11,.11v.59l-.11,.12,.11,.11v.59l-.11,.11-.12-.11v-.59Zm.25-1.07h.61l.11,.12-.11,.12h-.61l-.12-.12,.12-.12Zm0,1.69h.61l.11,.12-.11,.11h-.61l-.11-.11,.12-.12Zm.43-1.42h.16v.18l-.43,1.21h-.16v-.18l.42-1.21Zm.19,.81l.12-.11-.12-.11v-.6l.12-.11,.11,.11v.59l-.11,.12,.11,.11v.59l-.11,.11-.12-.11v-.59Z"/><path class="cls-1" d="M176.36,53.09l.11-.11-.11-.12v-.59l.11-.11,.11,.11v.59l-.11,.12,.11,.11v.59l-.11,.11-.11-.11v-.59Zm.25-1.07h.61l.11,.12-.11,.12h-.61l-.12-.12,.12-.12Zm0,1.69h.61l.11,.12-.11,.11h-.61l-.11-.11,.12-.12Zm.44-1.42h.16v.18l-.43,1.21h-.16v-.18l.43-1.21Zm.19,.81l.12-.11-.12-.11v-.6l.12-.11,.11,.11v.59l-.11,.12,.11,.11v.59l-.11,.11-.12-.11v-.59Z"/><path class="cls-1" d="M177.69,53.09l.11-.11-.11-.12v-.59l.11-.11,.11,.11v.59l-.11,.12,.11,.11v.59l-.11,.11-.11-.11v-.59Zm.25-1.07h.61l.11,.12-.11,.12h-.61l-.11-.12,.11-.12Zm0,1.69h.61l.11,.12-.11,.11h-.61l-.11-.11,.11-.12Zm.44-1.42h.16v.18l-.43,1.21h-.16v-.18l.43-1.21Zm.19,.81l.11-.11-.11-.11v-.6l.11-.11,.11,.11v.59l-.11,.12,.11,.11v.59l-.11,.11-.11-.11v-.59Z"/><path class="cls-1" d="M179.02,53.09l.12-.11-.12-.12v-.59l.12-.11,.12,.11v.59l-.12,.12,.12,.11v.59l-.12,.11-.12-.11v-.59Zm.25-1.07h.61l.11,.12-.11,.12h-.61l-.11-.12,.11-.12Zm0,1.69h.61l.11,.12-.11,.11h-.61l-.11-.11,.11-.12Zm.44-1.42h.16v.18l-.43,1.21h-.16v-.18l.43-1.21Zm.19,.81l.11-.11-.11-.11v-.6l.11-.11,.11,.11v.59l-.11,.12,.11,.11v.59l-.11,.11-.11-.11v-.59Z"/><path class="cls-1" d="M180.36,53.09l.11-.11-.11-.12v-.59l.11-.11,.12,.11v.59l-.12,.12,.12,.11v.59l-.12,.11-.11-.11v-.59Zm.25-1.07h.61l.12,.12-.12,.12h-.61l-.11-.12,.11-.12Zm0,1.69h.61l.12,.12-.12,.11h-.61l-.11-.11,.11-.12Zm.44-1.42h.16v.18l-.43,1.21h-.16v-.18l.42-1.21Zm.19,.81l.11-.11-.11-.11v-.6l.11-.11,.12,.11v.59l-.12,.12,.12,.11v.59l-.12,.11-.11-.11v-.59Z"/><path class="cls-1" d="M181.69,53.09l.12-.11-.12-.12v-.59l.12-.11,.12,.11v.59l-.12,.12,.12,.11v.59l-.12,.11-.12-.11v-.59Zm.25-1.07h.61l.12,.12-.12,.12h-.61l-.12-.12,.12-.12Zm0,1.69h.61l.12,.12-.12,.11h-.61l-.11-.11,.12-.12Zm.43-1.42h.16v.18l-.43,1.21h-.16v-.18l.43-1.21Zm.19,.81l.11-.11-.11-.11v-.6l.11-.11,.12,.11v.59l-.12,.12,.12,.11v.59l-.12,.11-.11-.11v-.59Z"/><path class="cls-1" d="M183.03,53.09l.11-.11-.11-.12v-.59l.11-.11,.11,.11v.59l-.11,.12,.11,.11v.59l-.11,.11-.11-.11v-.59Zm.25-1.07h.61l.11,.12-.11,.12h-.61l-.12-.12,.12-.12Zm0,1.69h.61l.11,.12-.11,.11h-.61l-.11-.11,.12-.12Zm.44-1.42h.16v.18l-.43,1.21h-.16v-.18l.43-1.21Zm.19,.81l.11-.11-.11-.11v-.6l.11-.11,.11,.11v.59l-.11,.12,.11,.11v.59l-.11,.11-.11-.11v-.59Z"/><path class="cls-1" d="M184.36,53.09l.11-.11-.11-.12v-.59l.11-.11,.11,.11v.59l-.11,.12,.11,.11v.59l-.11,.11-.11-.11v-.59Zm.25-1.07h.61l.11,.12-.11,.12h-.61l-.12-.12,.12-.12Zm0,1.69h.61l.11,.12-.11,.11h-.61l-.11-.11,.12-.12Zm.43-1.42h.16v.18l-.43,1.21h-.16v-.18l.43-1.21Zm.19,.81l.12-.11-.12-.11v-.6l.12-.11,.11,.11v.59l-.11,.12,.11,.11v.59l-.11,.11-.12-.11v-.59Z"/><path class="cls-1" d="M185.69,53.09l.11-.11-.11-.12v-.59l.11-.11,.12,.11v.59l-.12,.12,.12,.11v.59l-.12,.11-.11-.11v-.59Zm.25-1.07h.61l.11,.12-.11,.12h-.61l-.11-.12,.11-.12Zm0,1.69h.61l.11,.12-.11,.11h-.61l-.11-.11,.11-.12Zm.44-1.42h.16v.18l-.43,1.21h-.16v-.18l.42-1.21Zm.19,.81l.11-.11-.11-.11v-.6l.11-.11,.11,.11v.59l-.11,.12,.11,.11v.59l-.11,.11-.11-.11v-.59Z"/><path class="cls-1" d="M187.03,53.09l.11-.11-.11-.12v-.59l.11-.11,.12,.11v.59l-.12,.12,.12,.11v.59l-.12,.11-.11-.11v-.59Zm.25-1.07h.61l.12,.12-.12,.12h-.61l-.11-.12,.11-.12Zm0,1.69h.61l.12,.12-.12,.11h-.61l-.11-.11,.11-.12Zm.44-1.42h.16v.18l-.43,1.21h-.16v-.18l.43-1.21Zm.19,.81l.11-.11-.11-.11v-.6l.11-.11,.12,.11v.59l-.12,.12,.12,.11v.59l-.12,.11-.11-.11v-.59Z"/><path class="cls-1" d="M188.36,53.09l.12-.11-.12-.12v-.59l.12-.11,.12,.11v.59l-.12,.12,.12,.11v.59l-.12,.11-.12-.11v-.59Zm.25-1.07h.61l.12,.12-.12,.12h-.61l-.12-.12,.12-.12Zm0,1.69h.61l.12,.12-.12,.11h-.61l-.11-.11,.12-.12Zm.44-1.42h.16v.18l-.43,1.21h-.16v-.18l.43-1.21Zm.19,.81l.12-.11-.12-.11v-.6l.12-.11,.11,.11v.59l-.11,.12,.11,.11v.59l-.11,.11-.12-.11v-.59Z"/><path class="cls-1" d="M189.81,54.03l-.11-.11v-.15l.11-.11,.12,.11v.15l-.12,.11Z"/><path class="cls-1" d="M190.15,52.18v-.16h.16l.42,.78v.16h-.16l-.42-.78Zm0,1.59l.42-.79h.16v.17l-.42,.78h-.16v-.16Zm.61-.97l.42-.78h.16v.16l-.43,.78h-.16v-.16Zm0,.35v-.17h.16l.43,.79v.16h-.16l-.42-.78Z"/><path class="cls-1" d="M191.56,52.18v-.16h.16l.42,.78v.16h-.15l-.43-.78Zm0,1.59l.43-.79h.15v.17l-.42,.78h-.16v-.16Zm.61-.97l.42-.78h.16v.16l-.42,.78h-.16v-.16Zm0,.35v-.17h.16l.42,.79v.16h-.16l-.42-.78Z"/><path class="cls-1" d="M193.4,53.93h-.39l-.11-.11,.12-.12h.38l.12,.12-.12,.11Zm0-1.68h-.17l-.11-.12,.11-.12h.4l-.23,.23Zm.25,.61l-.12,.12,.12,.11v.59l-.12,.11-.11-.11v-.59l.11-.11-.11-.12v-.59l.23-.23v.82Zm-.09,.96l.11-.12h.39l.11,.12-.11,.11h-.4l-.1-.11Z"/><path class="cls-1" d="M194.31,52.86h.87l.12,.12-.12,.11h-.87l-.11-.11,.11-.12Zm.67-.84h.29l-.81,.81h-.15v-.16l.67-.66Zm.22,.12l.11-.12,.12,.12v.71l-.12,.11-.11-.11v-.71Zm0,.98l.11-.11,.12,.11v.71l-.12,.11-.11-.11v-.71Z"/><path class="cls-1" d="M196.72,53.93h-.39l-.11-.11,.12-.12h.38l.12,.12-.12,.11Zm0-1.68h-.17l-.12-.12,.12-.12h.4l-.23,.23Zm.25,.61l-.12,.12,.12,.11v.59l-.12,.11-.11-.11v-.59l.11-.11-.11-.12v-.59l.23-.23v.82Zm-.09,.96l.11-.12h.39l.12,.12-.12,.11h-.39l-.11-.11Z"/><path class="cls-1" d="M198.48,52.25h-.73l-.12-.12,.12-.12h.96l-.23,.23Zm-.42,.86l.11-.11,.11,.11v.71l-.11,.11-.11-.11v-.71Zm.54-.13l-.11,.11h-.17l-.12-.11,.12-.12h.17l.11,.12Zm.02-.02l-.11-.11v-.57l.23-.23v.8l-.12,.11Z"/><path class="cls-1" d="M198.97,52.27l.11-.11,.12,.11v.57l-.12,.11-.11-.11v-.57Zm0,.84l.11-.11,.12,.11v.57l-.12,.11-.11-.11v-.57Zm.25-1.09h.61l.12,.12-.12,.12h-.61l-.11-.12,.11-.12Zm0,.84h.61l.12,.12-.12,.11h-.61l-.11-.11,.11-.12Zm0,.84h.61l.12,.12-.12,.11h-.61l-.11-.11,.11-.12Zm.63-1.44l.11-.11,.12,.11v.57l-.12,.11-.11-.11v-.57Zm0,.84l.11-.11,.12,.11v.57l-.12,.11-.11-.11v-.57Z"/><path class="cls-1" d="M200.3,52.27l.11-.11,.12,.11v.57l-.12,.11-.11-.11v-.57Zm0,.84l.11-.11,.12,.11v.57l-.12,.11-.11-.11v-.57Zm.25-1.09h.61l.11,.12-.11,.12h-.61l-.12-.12,.12-.12Zm0,.84h.61l.11,.12-.11,.11h-.61l-.12-.11,.12-.12Zm0,.84h.61l.11,.12-.11,.11h-.61l-.12-.11,.12-.12Zm.63-1.44l.11-.11,.12,.11v.57l-.12,.11-.11-.11v-.57Zm0,.84l.11-.11,.12,.11v.57l-.12,.11-.11-.11v-.57Z"/><path class="cls-1" d="M202.48,52.25h-.73l-.12-.12,.12-.12h.96l-.23,.23Zm-.42,.86l.11-.11,.12,.11v.71l-.12,.11-.11-.11v-.71Zm.54-.13l-.12,.11h-.17l-.11-.11,.11-.12h.17l.12,.12Zm.02-.02l-.12-.11v-.57l.23-.23v.8l-.11,.11Z"/><path class="cls-1" d="M203.39,53.93h-.39l-.11-.11,.11-.12h.39l.12,.12-.12,.11Zm0-1.68h-.17l-.12-.12,.12-.12h.4l-.23,.23Zm.25,.61l-.11,.12,.11,.11v.59l-.11,.11-.11-.11v-.59l.11-.11-.11-.12v-.59l.23-.23v.82Zm-.09,.96l.11-.12h.39l.11,.12-.11,.11h-.39l-.11-.11Z"/><path class="cls-1" d="M204.42,54.03l-.11-.11v-.15l.11-.11,.11,.11v.15l-.11,.11Z"/><path class="cls-1" d="M204.76,53.11l.12-.11,.12,.11v.57l-.23,.23v-.8Zm.25,.59h.74l.12,.12-.12,.11h-.97l.23-.23Zm0-1.69h.61l.12,.12-.12,.12h-.61l-.11-.12,.11-.12Zm0,.84h.61l.12,.12-.12,.11h-.61l-.11-.11,.11-.12Zm.63-.59l.11-.11,.12,.11v.57l-.12,.11-.11-.11v-.57Z"/><path class="cls-1" d="M206.18,53.7h.77l.12,.12-.12,.11h-.77l-.11-.11,.11-.12Zm1.02-1.57l-.12,.12h-.86l-.11-.12,.11-.12h.86l.12,.12Zm-.85,.73h.6l.12,.12-.12,.11h-.6l-.11-.11,.11-.12Zm.41-.58h.3l-.55,.55h-.15v-.16l.41-.4Zm.21,.83l.11-.11,.12,.11v.57l-.12,.11-.11-.11v-.57Z"/><path class="cls-1" d="M224.56,53.09v.73l-.11,.11-.12-.11v-.73l.12-.11-.12-.12v-.73l.12-.12,.11,.12v.73l-.11,.12,.11,.11Zm.53,.24l-.35,.49h-.15v-.15l.5-.69v.35Zm.03,0v-.35l.5,.69v.15h-.15l-.35-.49Zm.53-.24l.12-.11-.12-.12v-.73l.12-.12,.11,.12v.73l-.11,.12,.11,.11v.73l-.11,.11-.12-.11v-.73Z"/><path class="cls-1" d="M226.11,52.03l.23,.23v.57l-.11,.11-.12-.11v-.8Zm0,1.07l.12-.11,.11,.11v.57l-.23,.23v-.8Zm.02-1.09h.84l.11,.12-.11,.12h-.61l-.23-.23Zm.23,1.69h.61l.11,.12-.11,.11h-.84l.23-.23Zm0-.84h.61l.11,.12-.11,.11h-.61l-.11-.11,.11-.12Zm.63-.59l.11-.11,.12,.11v.57l-.12,.11-.11-.11v-.57Zm0,.84l.11-.11,.12,.11v.57l-.12,.11-.11-.11v-.57Z"/><path class="cls-1" d="M227.33,54.27l.12-.12h1.69l.12,.12-.12,.12h-1.69l-.12-.12Z"/><path class="cls-1" d="M229.79,53.93h-.39l-.11-.11,.12-.12h.38l.12,.12-.12,.11Zm0-1.68h-.17l-.11-.12,.11-.12h.4l-.23,.23Zm.25,.61l-.12,.12,.12,.11v.59l-.12,.11-.11-.11v-.59l.11-.11-.11-.12v-.59l.23-.23v.82Zm-.09,.96l.11-.12h.39l.11,.12-.11,.11h-.39l-.1-.11Z"/><path class="cls-1" d="M230.7,52.84v-.8l.23,.23v.57l-.12,.11-.11-.11Zm.97,.98l-.12,.11h-.74l-.11-.11,.11-.12h.74l.12,.12Zm-.72-1.57l-.23-.23h1.08l-.23,.23h-.63Zm0,.84l-.11-.11,.11-.12h.61l.12,.12-.12,.11h-.61Zm.63,.59v-.57l.11-.11,.12,.11v.57l-.12,.11-.11-.11Z"/><path class="cls-1" d="M247.22,53.09v.73l-.12,.11-.11-.11v-.73l.11-.11-.11-.12v-.73l.11-.12,.12,.12v.73l-.12,.12,.12,.11Zm.53,.24l-.35,.49h-.15v-.15l.5-.69v.35Zm.03,0v-.35l.5,.69v.15h-.15l-.35-.49Zm.53-.24l.11-.11-.11-.12v-.73l.11-.12,.12,.12v.73l-.12,.12,.12,.11v.73l-.12,.11-.11-.11v-.73Z"/><path class="cls-1" d="M248.77,52.27l.12-.11,.12,.11v.59l-.12,.12,.12,.11v.59l-.12,.11-.12-.11v-.59l.12-.11-.12-.12v-.59Zm.25-.25h.61l.11,.12-.11,.12h-.61l-.12-.12,.12-.12Zm0,1.69h.61l.11,.12-.11,.11h-.61l-.12-.11,.12-.12Zm.61-.61h-.27l-.11-.11,.11-.12h.5l-.23,.23Zm.25-.6l-.11,.12-.12-.12v-.22l.12-.11,.11,.11v.22Zm-.23,.62l.23-.23v.8l-.11,.11-.12-.11v-.57Z"/><path class="cls-1" d="M249.98,54.27l.12-.12h1.69l.11,.12-.11,.12h-1.69l-.12-.12Z"/><path class="cls-1" d="M252.44,53.93h-.39l-.11-.11,.11-.12h.39l.11,.12-.11,.11Zm0-1.68h-.17l-.12-.12,.12-.12h.4l-.23,.23Zm.25,.61l-.11,.12,.11,.11v.59l-.11,.11-.11-.11v-.59l.11-.11-.11-.12v-.59l.23-.23v.82Zm-.09,.96l.11-.12h.39l.11,.12-.11,.11h-.39l-.11-.11Z"/><path class="cls-1" d="M253.35,53.09l.11-.11-.11-.12v-.59l.11-.11,.11,.11v.59l-.11,.12,.11,.11v.59l-.11,.11-.11-.11v-.59Zm.25-1.07h.61l.11,.12-.11,.12h-.61l-.11-.12,.11-.12Zm0,1.69h.61l.11,.12-.11,.11h-.61l-.11-.11,.11-.12Zm.44-1.42h.16v.18l-.43,1.21h-.16v-.18l.43-1.21Zm.19,.81l.11-.11-.11-.11v-.6l.11-.11,.11,.11v.59l-.11,.12,.11,.11v.59l-.11,.11-.11-.11v-.59Z"/></g></g><g><path class="cls-1" d="M309.43,27.06c0-.15-.12-.27-.27-.27s-.28,.12-.28,.27c0,.14,.1,.25,.24,.27v6.42l-.83,.38v-.5l.4-.23v-7.88l-.69-.67v-3.76l.42-.44v-5.52l.68,.68v5.28l-.72,.59v1.03c-.13,.02-.23,.13-.23,.27,0,.15,.12,.27,.27,.27s.27-.12,.27-.27c0-.14-.1-.25-.23-.27v-1l.72-.59v-5.35l-.76-.76v-.59l-4.15-3.71h-2.34l-.14,.25h-1.67l-.14-.25h-2.07l-.77,.54-.67-.41s-8.62,0-8.62,0c-.02-.13-.13-.24-.27-.24-.15,0-.27,.12-.27,.27s.12,.27,.27,.27c.14,0,.25-.1,.27-.23h8.59l.63,.39s.84,.64,.84,.64h5.91l.88,.79h.46l2.35,2.1v3.52l-.3,.31v1.99l.51,.53v3.67l-.69,.67v.64l.46,.27v9.31l-.46,.27v1.06l.69,.81v4.2l-.47,.48v1.99l.3,.31v3.52l-2.35,2.1h-.46l-.88,.79h-5.91l-.87,.62,.87,.62h2.07l.14-.25h1.67l.14,.25h2.35l3.54-3.16v1.13l-3.41,3.03h-8.16l-1.21-.82-8.32-.02c-.02-.16-.16-.28-.32-.28-.18,0-.33,.15-.33,.33s.14,.33,.33,.33c.17,0,.31-.13,.32-.3l8.29,.03,1.21,.82h8.21l3.45-3.06s.01-1.25,.01-1.25l.54-.48v-6.22l-.47-.48v-4.21l.69-.84v-.72l-.4-.23v-1.88l.91-.41v-6.46c.13-.02,.24-.13,.24-.27Z"/><path class="cls-1" d="M0,37.12c0,.15,.12,.28,.27,.28s.28-.13,.28-.28c0-.14-.1-.25-.23-.27v-6.42l.83-.38v.49l-.4,.23v7.88l.69,.67v3.77l-.42,.43v5.53l-.68-.68v-5.28l.72-.59v-1.03c.13-.02,.24-.13,.24-.27,0-.15-.12-.27-.27-.27s-.27,.12-.27,.27c0,.14,.1,.25,.23,.27v1l-.72,.59v5.35l.76,.76v.59l4.15,3.71h2.34l.14-.25h1.67l.14,.25h2.07l.78-.55,.67,.42s8.62,0,8.62,0c.02,.13,.13,.24,.27,.24,.15,0,.27-.12,.27-.27s-.12-.28-.27-.28c-.14,0-.25,.1-.27,.24H13l-.63-.39s-.84-.64-.84-.64H5.63l-.88-.79h-.46l-2.35-2.1v-3.52l.3-.31v-1.99l-.51-.52v-3.68l.69-.67v-.64l-.47-.27v-9.31l.47-.27v-1.06l-.69-.81v-4.2l.47-.48v-1.99l-.3-.31v-3.52l2.35-2.1h.46l.88-.79h5.91l.87-.61-.88-.62h-2.07l-.15,.25h-1.67l-.14-.25h-2.35l-3.53,3.16v-1.13l3.41-3.03H13.16l1.2,.82,8.32,.02c.02,.16,.16,.28,.32,.28,.18,0,.33-.14,.33-.33s-.15-.33-.33-.33-.31,.13-.33,.3l-8.29-.02-1.21-.82H4.97l-3.45,3.06s-.01,1.24-.01,1.24l-.54,.48v6.22l.47,.48v4.21l-.69,.84v.71l.4,.23v1.88l-.91,.41v6.47c-.13,.02-.23,.13-.23,.27Z"/></g><g><path class="cls-1" d="M131.52,33.34l4.91-8.5h-19.62l4.9,8.5,4.9,8.5s4.91-8.5,4.91-8.5Z"/><polygon class="cls-1" points="113.04 24.84 108.14 33.34 103.23 41.84 113.04 41.84 122.85 41.84 117.95 33.34 113.04 24.84"/><polygon class="cls-1" points="109.54 24.84 99.73 24.84 89.92 24.84 94.83 33.34 99.73 41.84 104.63 33.34 109.54 24.84"/><polygon class="cls-1" points="86.15 24.84 81.25 33.34 76.34 41.84 86.15 41.84 95.96 41.84 91.06 33.34 86.15 24.84"/><polygon class="cls-1" points="82.65 24.84 72.84 24.84 63.03 24.84 67.94 33.34 72.84 41.84 77.75 33.34 82.65 24.84"/><polygon class="cls-1" points="59.26 24.84 54.36 33.34 49.45 41.84 59.26 41.84 69.07 41.84 64.17 33.34 59.26 24.84"/><polygon class="cls-1" points="55.76 24.84 45.95 24.84 36.14 24.84 41.05 33.34 45.95 41.84 50.86 33.34 55.76 24.84"/><polygon class="cls-1" points="32.38 24.84 27.47 33.34 22.56 41.84 32.38 41.84 42.18 41.84 37.28 33.34 32.38 24.84"/><polygon class="cls-1" points="28.87 24.84 19.06 24.84 9.25 24.84 14.16 33.34 19.06 41.84 23.97 33.34 28.87 24.84"/><polygon class="cls-1" points="212.19 33.34 217.09 24.84 207.28 24.84 197.47 24.84 202.38 33.34 207.28 41.84 212.19 33.34"/><polygon class="cls-1" points="185.3 33.34 190.2 24.84 180.4 24.84 170.58 24.84 175.49 33.34 180.39 41.84 185.3 33.34"/><polygon class="cls-1" points="166.82 24.84 161.91 33.34 157 41.84 166.82 41.84 176.63 41.84 171.72 33.34 166.82 24.84"/><polygon class="cls-1" points="163.31 24.84 153.5 24.84 143.69 24.84 148.6 33.34 153.5 41.84 158.41 33.34 163.31 24.84"/><polygon class="cls-1" points="139.93 24.84 135.02 33.34 130.11 41.84 139.93 41.84 149.73 41.84 144.83 33.34 139.93 24.84"/><polygon class="cls-1" points="247.48 24.84 242.58 33.34 237.67 41.84 247.48 41.84 257.29 41.84 252.39 33.34 247.48 24.84"/><polygon class="cls-1" points="243.98 24.84 234.17 24.84 224.36 24.84 229.27 33.34 234.17 41.84 239.08 33.34 243.98 24.84"/><polygon class="cls-1" points="220.59 24.84 215.69 33.34 210.78 41.84 220.59 41.84 230.4 41.84 225.5 33.34 220.59 24.84"/><polygon class="cls-1" points="193.71 24.84 188.8 33.34 183.89 41.84 193.71 41.84 203.51 41.84 198.61 33.34 193.71 24.84"/></g></g></g></svg>