<svg width="43" height="48" viewBox="0 0 43 48" fill="none" xmlns="http://www.w3.org/2000/svg">
<path d="M16.7761 20.136C15.4081 20.136 14.3281 21.336 14.3281 22.8C14.3281 24.264 15.4321 25.464 16.7761 25.464C18.1441 25.464 19.2241 24.264 19.2241 22.8C19.2481 21.336 18.1441 20.136 16.7761 20.136ZM25.5361 20.136C24.1681 20.136 23.0881 21.336 23.0881 22.8C23.0881 24.264 24.1921 25.464 25.5361 25.464C26.9041 25.464 27.9841 24.264 27.9841 22.8C27.9841 21.336 26.9041 20.136 25.5361 20.136Z" fill="#FFECEC"/>
<path d="M37.2001 0H5.04012C2.32812 0 0.120117 2.208 0.120117 4.944V37.392C0.120117 40.128 2.32812 42.336 5.04012 42.336H32.2561L30.9841 37.896L34.0561 40.752L36.9601 43.44L42.1201 48V4.944C42.1201 2.208 39.9121 0 37.2001 0ZM27.9361 31.344C27.9361 31.344 27.0721 30.312 26.3521 29.4C29.4961 28.512 30.6961 26.544 30.6961 26.544C29.7121 27.192 28.7761 27.648 27.9361 27.96C26.7361 28.464 25.5841 28.8 24.4561 28.992C22.1521 29.424 20.0401 29.304 18.2401 28.968C16.8721 28.704 15.6961 28.32 14.7121 27.936C14.1601 27.72 13.5601 27.456 12.9601 27.12C12.8881 27.072 12.8161 27.048 12.7441 27C12.6961 26.976 12.6721 26.952 12.6481 26.928C12.2161 26.688 11.9761 26.52 11.9761 26.52C11.9761 26.52 13.1281 28.44 16.1761 29.352C15.4561 30.264 14.5681 31.344 14.5681 31.344C9.26412 31.176 7.24812 27.696 7.24812 27.696C7.24812 19.968 10.7041 13.704 10.7041 13.704C14.1601 11.112 17.4481 11.184 17.4481 11.184L17.6881 11.472C13.3681 12.72 11.3761 14.616 11.3761 14.616C11.3761 14.616 11.9041 14.328 12.7921 13.92C15.3601 12.792 17.4001 12.48 18.2401 12.408C18.3841 12.384 18.5041 12.36 18.6481 12.36C20.1121 12.168 21.7681 12.12 23.4961 12.312C25.7761 12.576 28.2241 13.248 30.7201 14.616C30.7201 14.616 28.8241 12.816 24.7441 11.568L25.0801 11.184C25.0801 11.184 28.3681 11.112 31.8241 13.704C31.8241 13.704 35.2801 19.968 35.2801 27.696C35.2801 27.696 33.2401 31.176 27.9361 31.344V31.344Z" fill="#FFECEC"/>
</svg>
