<svg width="110" height="104" viewBox="0 0 110 104" fill="none" xmlns="http://www.w3.org/2000/svg">
<g opacity="0.35">
<path d="M62.5145 97.0283C63.0318 96.912 63.5552 97.2609 63.6838 97.8425C63.8154 98.4179 63.4787 99.0117 62.9277 99.1342C62.3676 99.2138 61.835 98.8036 61.737 98.219C61.6391 97.6343 61.985 97.0987 62.5145 97.0252V97.0283Z" fill="#FFECEC"/>
</g>
<path d="M62.2695 97.7324C62.5175 97.6987 62.7685 97.6681 63.0072 97.5946L63.1725 98.3966C62.9276 98.4731 62.6736 98.5037 62.4195 98.5374L62.2695 97.7324V97.7324Z" fill="#FFECEC"/>
<path d="M64.0603 98.9843L64.2654 98.9323L64.3144 99.1496L64.1062 99.2016L64.0603 98.9843Z" fill="#FFECEC"/>
<path d="M61.6116 99.4496L61.8228 99.4189L61.8595 99.6393L61.6483 99.6699L61.6116 99.4496Z" fill="#FFECEC"/>
<path d="M63.4849 96.4284L63.6777 96.3794L63.7297 96.5967L63.5338 96.6457L63.4849 96.4284Z" fill="#FFECEC"/>
<path d="M61.186 96.863L61.385 96.8354L61.4217 97.0558L61.2228 97.0834L61.186 96.863Z" fill="#FFECEC"/>
<path d="M61.7216 99.5628C62.5634 99.4649 63.3929 99.3179 64.2071 99.0792L63.6194 96.4896C62.8603 96.7192 62.0798 96.8539 61.29 96.9426L61.7247 99.5597L61.7216 99.5628ZM64.1673 99.0516C63.3776 99.2843 62.5695 99.4281 61.7522 99.523L61.3237 96.9732C62.0951 96.8845 62.8542 96.7529 63.5949 96.5325L64.1673 99.0547V99.0516Z" fill="#FFECEC"/>
<g opacity="0.35">
<path d="M63.4297 96.7987L63.4573 96.8171C62.9981 97.6925 62.49 98.4975 61.9421 99.275L61.9146 99.2536C62.4625 98.4761 62.9706 97.6741 63.4297 96.7987Z" fill="#FFECEC"/>
</g>
<g opacity="0.35">
<path d="M61.5778 97.1599C62.3339 97.7843 63.1144 98.369 63.9133 98.8679L63.898 98.8985C63.0991 98.3996 62.3186 97.8088 61.5625 97.1875L61.5809 97.1599H61.5778Z" fill="#FFECEC"/>
</g>
<g opacity="0.35">
<path d="M62.7409 97.114C62.9001 97.114 63.0562 97.166 63.1909 97.2609C63.3164 97.3466 63.4235 97.4691 63.497 97.6099C63.5735 97.7568 63.6133 97.9252 63.6133 98.0935C63.6133 98.2313 63.5857 98.3598 63.5337 98.4853L63.3225 98.3843C63.3592 98.2925 63.3806 98.1945 63.3806 98.0935C63.3806 97.8395 63.2674 97.6068 63.0715 97.4721C62.9705 97.4017 62.8542 97.365 62.7348 97.365C62.3736 97.3375 62.0644 97.6068 62.0461 98.0047C62.0369 98.1945 62.0981 98.3812 62.2206 98.5282L62.0461 98.6843C61.8838 98.4853 61.8012 98.2343 61.8134 97.9772C61.8257 97.7231 61.9298 97.4936 62.1012 97.3344C62.2756 97.166 62.5022 97.1171 62.7348 97.1171L62.7409 97.114Z" fill="#FFECEC"/>
<path d="M63.2399 98.5343L63.4205 98.6873C63.3379 98.8037 63.2277 98.8986 63.1053 98.9628C62.9767 99.0394 62.8328 99.0455 62.689 99.0332L62.6981 98.7884C62.9155 98.822 63.1114 98.7118 63.2399 98.5343Z" fill="#FFECEC"/>
</g>
<path d="M106.834 75.3507L105.848 78.0107L105.759 77.7413L106.635 75.3752C104.924 70.6247 102.493 66.3699 99.7539 62.7886C99.9376 61.1878 99.959 59.5716 100.075 57.9646L99.8794 53.1314L100.054 53.1161L100.253 57.9309C100.143 59.5318 100.109 61.1419 99.9406 62.7366C102.683 66.3271 105.117 70.5879 106.834 75.3507V75.3507Z" fill="#FFECEC"/>
<path d="M35.9578 98.3843L36.0312 98.2251C43.9315 101.852 52.9154 103.126 61.5135 101.736L60.6167 95.8988C65.1897 95.1979 69.6189 93.698 73.6563 91.4574C78.5905 93.2297 84.2134 94.0653 90.2343 93.7807C92.3219 93.6735 94.388 93.3705 96.5858 93.0185C96.8827 92.6971 97.1735 92.3696 97.4245 92.0114L97.5806 91.9747C100.293 88.4699 102.793 84.754 104.59 80.6798L104.697 80.6278C102.689 85.2131 99.8089 89.3454 96.6592 93.196C94.3574 93.5572 92.227 93.897 90.0262 93.9674C84.1186 94.2429 78.5446 93.3674 73.6869 91.6411C69.6862 93.8449 65.3122 95.3295 60.7942 96.0457L61.7156 101.88C53.0317 103.309 43.9438 102.054 35.9578 98.3812V98.3843Z" fill="#FFECEC"/>
<path d="M87.3233 96.0703L85.5449 93.9705C86.9897 94.0164 88.4834 94.0194 90.0261 93.9705C90.4026 93.6429 90.7608 93.294 91.0852 92.9144C93.1146 92.7094 95.2971 92.4645 97.4244 92.0115L97.5805 91.9747C100.293 88.47 102.793 84.754 104.59 80.6799L105.793 80.0952C105.934 79.7891 106.096 79.4892 106.215 79.1739L105.759 77.7383C105.239 76.1466 104.682 74.6192 104.097 73.1622C103.442 71.6807 102.711 70.2543 101.988 68.9075C102.203 68.1055 102.423 67.3066 102.521 66.4802C101.655 65.1395 100.776 63.8723 99.8885 62.6816C100.081 60.2573 100.338 57.8208 100.152 55.3812L100.993 56.1801C101.125 57.6831 100.978 59.1829 100.902 60.6858C104.379 64.7508 107.161 69.6819 109.246 75.3416C107.746 79.6147 105.964 83.8204 103.494 87.619L101.214 88.4302C99.4691 90.9034 97.6662 93.3491 95.5572 95.5285C92.8208 96.0121 89.9374 96.055 87.3233 96.0641V96.0703Z" fill="#FFECEC"/>
<path d="M61.538 101.91L61.0085 102.611C57.0446 103.239 53.0011 103.172 49.0249 102.743L48.6484 102.244C45.615 101.831 42.6122 101.139 39.7319 100.105L39.4993 99.6087L41.1185 98.8281C42.851 99.3515 44.608 99.8382 46.3864 100.187L47.5342 101.816C52.1471 102.611 56.9068 102.667 61.5411 101.914L61.538 101.91Z" fill="#FFECEC"/>
<path d="M81.131 93.5021L79.7322 94.549C77.3293 94.0103 75.1285 93.444 73.0104 92.6236C69.1995 94.6898 64.9907 95.9233 60.7238 96.609L60.6411 96.0733C65.2356 95.3662 69.6831 93.8603 73.7419 91.6105C76.0223 92.3849 78.5843 93.1654 81.131 93.5021V93.5021Z" fill="#FFECEC"/>
<path d="M99.512 91.1789L100.075 90.4259L100.684 90.8667L100.112 91.6319L99.512 91.1789Z" fill="#FFECEC"/>
<path d="M98.6335 92.3451L99.2029 91.5952L99.7967 92.0513L99.2243 92.8135L98.6335 92.3451Z" fill="#FFECEC"/>
<path d="M97.7275 93.4899C97.9449 93.2634 98.1316 93.0093 98.3214 92.7583L98.906 93.2297C98.7162 93.4837 98.5264 93.7409 98.3061 93.9704L97.7306 93.4868L97.7275 93.4899Z" fill="#FFECEC"/>
<path d="M96.7542 94.5735L97.3816 93.8756L97.954 94.3623L97.3174 95.0694L96.7542 94.5735Z" fill="#FFECEC"/>
<path d="M95.7715 95.6539L96.4051 94.9561L96.9622 95.4581L96.3225 96.1651L95.7715 95.6539Z" fill="#FFECEC"/>
<path d="M57.0415 100.31L58.1679 101.935L57.3721 101.969L56.2732 100.343L57.0415 100.31Z" fill="#FFECEC"/>
<path d="M55.612 100.374L56.6834 101.999L55.8875 102.036L54.8438 100.411L55.612 100.374Z" fill="#FFECEC"/>
<path d="M54.1826 100.426C54.5071 101.001 54.8468 101.519 55.1988 102.067L54.3999 102.103L53.4143 100.377L54.1795 100.423L54.1826 100.426Z" fill="#FFECEC"/>
<path d="M58.471 100.248C58.8537 100.809 59.2424 101.28 59.6464 101.791L58.8567 101.904L57.7058 100.279L58.4741 100.248H58.471Z" fill="#FFECEC"/>
<path d="M59.8914 100.068L61.1189 101.577L60.3291 101.693L59.1323 100.181L59.8914 100.068Z" fill="#FFECEC"/>
<path d="M51.7003 100.989L52.2298 101.984L51.636 101.95L51.7003 100.989Z" fill="#FFECEC"/>
<path d="M61.0423 99.8964L61.1678 100.732L60.5464 99.9698L61.0423 99.8964Z" fill="#FFECEC"/>
<path d="M52.7533 100.34L53.7144 102.07L52.9186 102.024L51.988 100.297L52.7533 100.34Z" fill="#FFECEC"/>
<path d="M42.4652 94.8061L41.7489 96.9946L39.7471 96.2478L40.5735 94.1021L42.4652 94.8061Z" fill="#FFECEC"/>
<path d="M43.6132 95.1458L42.9642 97.3558L42.4316 97.218L43.1112 95.0172L43.6132 95.1458Z" fill="#FFECEC"/>
<path d="M44.5222 95.3815L43.9284 97.6068L43.6621 97.5364L44.2712 95.3173L44.5222 95.3815Z" fill="#FFECEC"/>
<path d="M45.3056 95.5865L44.7547 97.8241L44.623 97.7873L45.1801 95.5529L45.3056 95.5865Z" fill="#FFECEC"/>
<path d="M37.8677 94.2153L38.9053 94.0836C39.242 94.0469 39.6063 93.9398 39.9461 93.8694L39.5145 94.9376L39.0829 96.0029C38.8686 95.7121 38.6452 95.458 38.4493 95.1397L37.8677 94.2153V94.2153Z" fill="#FFECEC"/>
<path d="M90.9229 69.7247L90.7178 69.8043C91.333 70.8726 91.9391 72.0021 92.5207 73.1897L92.7227 73.1101C92.1411 71.9225 91.5381 70.793 90.9229 69.7247Z" fill="#FFECEC"/>
<path d="M90.6136 70.5511L90.4116 70.6246C90.9963 71.7051 91.688 72.8958 92.1349 74.0498L92.3523 73.9825C91.8778 72.8162 91.2075 71.6347 90.6167 70.5511H90.6136Z" fill="#FFECEC"/>
<path d="M90.3075 71.3807L90.1055 71.4511C90.7513 72.5806 91.238 73.7101 91.7155 74.9008L91.9298 74.8335C91.4676 73.6489 90.9472 72.5041 90.3044 71.3777L90.3075 71.3807Z" fill="#FFECEC"/>
<path d="M90.0076 72.2133L89.8086 72.2806C90.3412 73.3856 90.8279 74.5396 91.3054 75.7548L91.5197 75.6935C91.036 74.4753 90.5708 73.3336 90.0076 72.2133Z" fill="#FFECEC"/>
<path d="M89.6372 73.0153L89.426 73.0734C89.9372 74.1937 90.4269 75.3722 90.8953 76.6088L91.1034 76.5506C90.6382 75.3171 90.1484 74.1386 89.6372 73.0183V73.0153Z" fill="#FFECEC"/>
<path d="M89.2486 73.808L89.0374 73.8631C89.524 74.9956 90.075 76.2292 90.4393 77.4383L90.6627 77.3893C90.2679 76.168 89.7383 74.9436 89.2455 73.808H89.2486Z" fill="#FFECEC"/>
<path d="M88.8659 74.6039L88.6577 74.6559C89.1873 75.8374 89.6005 77.0251 89.9464 78.2433L90.1668 78.1974C89.8301 76.9822 89.3893 75.7793 88.8628 74.6039H88.8659Z" fill="#FFECEC"/>
<path d="M68.7341 95.712C75.3917 93.3796 81.2595 89.0729 85.8601 83.7438C85.5601 81.5552 85.0551 79.4248 84.501 77.4811C84.501 77.4811 85.2081 76.3026 86.2641 74.5304C86.7049 73.5998 87.2161 72.5163 87.767 71.3531C88.1527 70.1287 88.7435 68.8799 89.0771 67.5514C89.8148 64.919 90.2923 62.2131 90.4025 60.1654C90.4729 59.14 90.5311 58.2829 90.5739 57.686C90.5494 57.083 90.5464 56.7402 90.5678 56.7402C90.6994 56.7739 93.0716 54.5424 93.791 53.7435L95.1286 54.7965C95.1837 56.3331 95.3306 57.8758 95.1653 59.4093C95.1255 60.949 94.9878 62.4794 94.6878 63.9885L92.8819 63.6946C92.184 67.9616 90.7882 72.1122 88.7404 75.9384C89.27 77.4566 89.7505 79.0667 90.1821 80.7716C87.8068 84.2947 84.9602 87.4934 81.7186 90.2391C78.4006 92.899 74.7336 95.0876 70.8278 96.7558L68.7403 95.712H68.7341Z" fill="#FFECEC"/>
<path d="M88.6823 78.8646C88.6455 78.9962 87.3722 81.0348 85.0979 83.7223C82.8695 86.4527 79.3097 89.5228 75.3611 91.9073C71.3971 94.2642 67.0659 95.9722 63.6683 96.6211C62.0092 97.1109 60.5461 97.1323 59.5605 97.3374C58.5688 97.5149 57.9902 97.521 57.9902 97.521C70.3932 96.5477 82.138 89.483 88.6823 78.8677V78.8646Z" fill="#FFECEC"/>
<path d="M64.1152 96.9487L63.803 97.515C59.2636 98.5098 54.5559 98.7944 49.9369 98.3047L48.8442 96.6702L47.3535 96.4375L47.8678 96.0212C51.6174 96.7865 55.4926 96.713 59.2942 96.3396L59.787 96.765C59.0892 96.863 58.3943 97.0069 57.6842 96.9977L57.7576 97.9588C58.8382 97.968 59.8881 97.6803 60.9563 97.567C62.0277 97.4446 63.0837 97.2579 64.1152 96.9548V96.9487Z" fill="#FFECEC"/>
<path d="M39.2726 94.6744L42.2601 95.7794C43.2671 96.11 44.3109 96.3243 45.3333 96.612L45.774 96.312C46.7046 96.6151 47.6902 96.6457 48.6452 96.8355L49.7532 98.4914C50.3654 98.623 50.996 98.5833 51.6143 98.6383L51.0174 99.2016C50.6868 99.1771 50.3562 99.1801 50.0287 99.1373L48.587 97.0161L46.6709 96.7191L46.2087 97.065L42.7376 96.1559L39.3675 94.9316L39.2695 94.6744H39.2726Z" fill="#FFECEC"/>
<g opacity="0.35">
<path d="M16.4903 44.4384C16.3035 44.9373 15.6883 45.1944 15.1281 45.02C14.5557 44.8424 14.2619 44.2731 14.4578 43.7436C14.6537 43.214 15.2628 42.9538 15.8199 43.1589C16.377 43.3671 16.677 43.9395 16.4903 44.4353V44.4384Z" fill="#FFECEC"/>
</g>
<path d="M15.9913 43.8722L15.7311 44.5762L14.9536 44.316L15.2199 43.5997L15.9913 43.8722Z" fill="#FFECEC"/>
<path d="M13.9558 44.7751L13.9007 44.9832L13.6895 44.9159L13.7415 44.7108L13.9558 44.7751Z" fill="#FFECEC"/>
<path d="M14.8098 42.4365L14.7364 42.6355L14.5251 42.559L14.5986 42.3569L14.8098 42.4365Z" fill="#FFECEC"/>
<path d="M16.4566 45.5556L16.4076 45.7485L16.1934 45.6842L16.2423 45.4883L16.4566 45.5556Z" fill="#FFECEC"/>
<path d="M17.2615 43.3609L17.1911 43.5477L16.9829 43.4711L17.0503 43.2844L17.2615 43.3609Z" fill="#FFECEC"/>
<path d="M14.6566 42.4763C14.375 43.2722 14.0444 44.0496 13.7996 44.8577L16.3371 45.6413C16.5636 44.8853 16.8819 44.1537 17.1421 43.4099L14.6566 42.4794V42.4763ZM13.8424 44.8363C14.0842 44.0527 14.4056 43.2936 14.6781 42.5192L17.0993 43.4252C16.8421 44.1507 16.5391 44.8639 16.3126 45.5985L13.8424 44.8332V44.8363Z" fill="#FFECEC"/>
<g opacity="0.35">
<path d="M16.1566 45.323L16.1291 45.3383C15.6761 44.5271 15.2353 43.6885 14.8037 42.813L14.8343 42.8008C15.2659 43.6731 15.7067 44.5149 16.1566 45.323V45.323Z" fill="#FFECEC"/>
</g>
<g opacity="0.35">
<path d="M16.8178 43.5538C15.9332 43.9058 15.0302 44.2884 14.1273 44.7078L14.1089 44.6802C15.021 44.2639 15.9179 43.8783 16.8025 43.5262L16.8178 43.5569V43.5538Z" fill="#FFECEC"/>
</g>
<g opacity="0.35">
<path d="M16.2911 44.5883C16.1962 44.72 16.0646 44.8271 15.9055 44.8944C15.7585 44.9587 15.5932 44.9862 15.431 44.9771C15.2627 44.9679 15.0974 44.9189 14.9535 44.8363C14.8402 44.7689 14.7423 44.6832 14.6658 44.5761L14.8739 44.4506C14.929 44.5271 14.9994 44.5945 15.0851 44.6434C15.2994 44.772 15.5657 44.7873 15.7922 44.6893C15.9116 44.6373 16.0095 44.5608 16.0799 44.4598C16.2911 44.1629 16.1901 43.7527 15.8565 43.5415C15.6942 43.4405 15.5045 43.4007 15.3147 43.4313L15.2627 43.2017C15.5137 43.1589 15.7708 43.214 15.985 43.3517C16.2024 43.4895 16.3523 43.6945 16.4074 43.9272C16.4656 44.1598 16.4228 44.3924 16.285 44.5853L16.2911 44.5883Z" fill="#FFECEC"/>
<path d="M14.7944 44.3067L14.5588 44.3832C14.5098 44.2547 14.4914 44.1169 14.5067 43.9823C14.522 43.8415 14.5741 43.7068 14.6567 43.5874L14.8648 43.719C14.7424 43.8935 14.7149 44.1108 14.7914 44.3098L14.7944 44.3067Z" fill="#FFECEC"/>
</g>
<path d="M13.0897 93.6521C12.4469 92.9603 11.8255 92.2471 11.2776 91.4727L11.5469 91.5369C12.0306 92.2257 12.5938 92.8501 13.1601 93.4684C15.6884 93.8694 18.0576 94.1877 20.5216 94.1724C22.9122 94.2336 25.2263 94.1204 27.5189 93.7653C30.0595 95.7488 32.8939 97.3435 35.811 98.7026L35.7375 98.8618C32.8327 97.5088 30.0105 95.9202 27.473 93.952C25.1773 94.304 22.851 94.4234 20.4635 94.3561C17.9994 94.3683 15.6149 94.0592 13.0897 93.649V93.6521Z" fill="#FFECEC"/>
<path d="M28.5687 20.7528L28.6728 20.8967C21.5837 25.935 15.9914 33.0853 12.8692 41.206L18.3728 43.3486C16.7046 47.6493 15.7495 52.2346 15.7097 56.8657C11.8193 60.2542 8.07577 64.7293 5.44642 70.0523C4.44856 71.9256 3.59149 73.8907 2.91503 75.9354L3.36192 77.172L3.30989 77.3251C4.0139 79.4402 5.13421 81.3808 6.05555 83.4041C7.19116 85.311 8.25942 87.2731 9.57257 89.0668L9.56644 89.1831C6.74426 85.0784 4.30469 80.6554 2.71606 75.9109C3.42008 73.7774 4.34448 71.7205 5.37602 69.7798C8.00843 64.5487 11.6846 60.1501 15.5383 56.8015C15.5751 52.2223 16.527 47.6891 18.1554 43.4313L12.6427 41.3101C15.7526 33.0853 21.4092 25.8523 28.5687 20.7559V20.7528Z" fill="#FFECEC"/>
<path d="M4.89837 66.3914L7.6073 65.9047C6.72575 67.1535 6.09826 68.4208 5.37588 69.7737L5.74319 71.2246C4.73308 73.1346 4.11783 75.063 3.36178 77.1659L3.30974 77.3189C4.01376 79.434 5.13406 81.3746 6.0554 83.3979C7.19101 85.3049 8.25928 87.267 9.57242 89.0607L9.50814 90.3707L10.1142 91.1819L11.5467 91.5339C14.7974 92.2287 17.9686 92.6358 21.0754 92.6664L22.915 94.3408C24.4363 94.35 26.0586 94.1143 27.5432 93.9306C29.4379 95.4672 31.5714 96.6855 33.6926 97.87L32.5692 98.222L28.7125 95.8835C23.5732 96.6946 17.7329 96.8599 11.9079 95.7243C8.82249 92.4032 6.31864 88.5893 4.06886 84.659L4.58003 82.2378C3.172 79.5381 2.16801 76.6669 1.17627 73.7988C2.35779 71.1266 3.45055 68.6809 4.89837 66.3883V66.3914Z" fill="#FFECEC"/>
<path d="M12.7038 41.1386L12.3457 40.3244C13.9068 36.6452 15.7893 33.0639 18.2809 29.9142L18.8869 29.8254C20.7327 27.3828 22.8815 25.1728 25.1894 23.1587L25.7251 23.1924L25.6302 25.0289C24.2344 26.2013 23.01 27.542 21.804 28.901C21.1428 28.9408 20.4235 28.95 19.7807 29.0449C16.7963 32.669 14.4486 36.789 12.7008 41.1356L12.7038 41.1386Z" fill="#FFECEC"/>
<path d="M10.1877 62.3234C10.0775 61.751 10.0714 61.1664 10.0469 60.5848C11.6937 58.7728 13.1966 57.1474 15.0638 55.721C15.1862 51.3928 16.0892 47.1014 17.7023 43.0854L18.2073 43.2813C16.5299 47.6003 15.5719 52.2101 15.5351 56.8597C13.7139 58.4483 11.8559 60.2818 10.1907 62.3234H10.1877Z" fill="#FFECEC"/>
<path d="M2.9762 79.4187L3.38024 80.2727L2.69153 80.5788L2.28442 79.7125L2.9762 79.4187Z" fill="#FFECEC"/>
<path d="M2.44667 78.0565L2.77419 78.9411L2.07936 79.2289L1.74878 78.332L2.44667 78.0565Z" fill="#FFECEC"/>
<path d="M1.9478 76.6823L2.2692 77.5699L1.56824 77.8393L1.24072 76.9424L1.9478 76.6823Z" fill="#FFECEC"/>
<path d="M1.45197 75.3048L1.77031 76.1955L1.06323 76.4465L0.73877 75.5466L1.45197 75.3048Z" fill="#FFECEC"/>
<path d="M0.96517 73.9274L1.27739 74.8181L0.564187 75.0507L0.24585 74.1478L0.96517 73.9274Z" fill="#FFECEC"/>
<path d="M16.3402 38.0502L14.3965 38.2246L14.7454 37.5084L16.6708 37.3584L16.3402 38.0502Z" fill="#FFECEC"/>
<path d="M16.9709 36.7676C16.3128 36.786 15.6945 36.8349 15.0425 36.887L15.3884 36.1676L17.3719 36.1125L16.9709 36.7676Z" fill="#FFECEC"/>
<path d="M17.7207 35.5493L15.7402 35.5769L16.1565 34.8943H18.1186L17.7207 35.5493Z" fill="#FFECEC"/>
<path d="M15.7157 39.3357L13.7476 39.5622L14.0965 38.8429L16.0524 38.647L15.7157 39.3357Z" fill="#FFECEC"/>
<path d="M15.0883 40.6244L13.1936 40.9397L13.4691 40.1897C14.0905 40.0765 14.7822 40.0091 15.425 39.9326L15.0883 40.6213V40.6244Z" fill="#FFECEC"/>
<path d="M18.3971 33.0669L17.2891 33.0394L17.5982 32.5282L18.3971 33.0669Z" fill="#FFECEC"/>
<path d="M14.6905 41.7171L13.9038 41.408L14.8619 41.2457L14.6905 41.7171Z" fill="#FFECEC"/>
<path d="M18.4645 34.325L16.5146 34.3066L16.9309 33.6271L18.8593 33.6699L18.4645 34.325Z" fill="#FFECEC"/>
<path d="M28.4464 28.2063L26.9067 26.4952C27.4455 26.0299 27.9383 25.5065 28.5076 25.0811L29.9585 26.8717C29.4167 27.2727 28.9545 27.7686 28.4464 28.2093V28.2063Z" fill="#FFECEC"/>
<path d="M27.5556 29.0112L25.9639 27.3461L26.374 26.9757L27.9412 28.6623L27.5556 29.0112Z" fill="#FFECEC"/>
<path d="M26.8577 29.6448L25.2292 28.0195C25.2874 27.9491 25.3639 27.894 25.4282 27.8297L27.0474 29.4673C26.9862 29.5255 26.9128 29.5775 26.8577 29.6448V29.6448Z" fill="#FFECEC"/>
<path d="M26.3159 30.2479L24.6538 28.6531L24.7456 28.5521L26.4047 30.1499L26.3159 30.2479Z" fill="#FFECEC"/>
<path d="M31.2317 24.4872L30.8552 25.4881L30.497 26.4676L29.7869 25.5616L29.0798 24.6555L30.1665 24.5637L31.2317 24.4872Z" fill="#FFECEC"/>
<path d="M25.9089 82.6665L25.9365 82.4553C24.6417 82.5073 23.3928 82.44 22.1287 82.3083L22.0889 82.5287C23.3408 82.6695 24.6172 82.7154 25.9089 82.6665V82.6665Z" fill="#FFECEC"/>
<path d="M25.309 82.0145L25.3396 81.8063C24.0907 81.7879 22.8633 81.6778 21.5624 81.5492L21.5195 81.7665C22.8266 81.892 24.0356 82.0175 25.309 82.0145V82.0145Z" fill="#FFECEC"/>
<path d="M24.7549 81.3258L24.8009 81.1116C23.5734 81.0503 22.3031 80.9463 20.993 80.7932L20.9502 81.0075C22.2572 81.1605 23.5275 81.2646 24.7549 81.3258Z" fill="#FFECEC"/>
<path d="M24.2315 80.6126L24.2804 80.4014C23.0499 80.3188 21.7184 80.227 20.4573 80.0157L20.3992 80.2361C21.6878 80.429 22.9979 80.533 24.2345 80.6126H24.2315Z" fill="#FFECEC"/>
<path d="M23.7021 79.9055L23.751 79.6974C22.4654 79.6239 21.1982 79.4648 19.9677 79.2046L19.9065 79.4219C21.1339 79.6821 22.4287 79.8229 23.7021 79.9055V79.9055Z" fill="#FFECEC"/>
<path d="M23.1695 79.1985L23.2215 78.9934C21.9512 78.8801 20.7666 78.6414 19.481 78.3934L19.4167 78.6077C20.7085 78.8495 21.8747 79.1036 23.1695 79.1985Z" fill="#FFECEC"/>
<path d="M22.6704 78.4699L22.7378 78.2618C21.5256 78.0873 20.2737 77.8639 18.9881 77.5884L18.9238 77.7965C20.2094 78.072 21.4583 78.2955 22.6704 78.4699Z" fill="#FFECEC"/>
<path d="M14.4885 50.4685C13.2855 57.3923 13.864 64.6866 16.3189 71.289C18.2963 72.1522 20.3716 72.7797 22.4255 73.2235C22.4255 73.2235 22.955 74.4938 24.0967 76.2079C25.116 77.9894 26.8271 80.1627 28.7096 82.1523C29.6034 83.1991 30.7298 84.0103 31.6389 84.9194C32.6612 85.6999 33.6193 86.4284 34.4366 87.0498C35.309 87.5946 36.0375 88.0507 36.5456 88.369C37.0506 88.6935 37.3353 88.8894 37.3231 88.9078C37.2037 89.0486 37.9934 92.1126 38.3301 93.1257L36.7323 93.793C33.9407 92.4921 31.4093 90.7107 28.9698 88.8404L30.1268 87.4263C26.7873 84.6531 23.91 81.3381 21.6449 77.6496C20.0318 77.3742 18.2901 77.0466 16.7138 76.511C12.8692 68.9504 11.4551 60.1656 12.5693 51.7633L14.4823 50.4716L14.4885 50.4685Z" fill="#FFECEC"/>
<path d="M19.0706 76.1896C19.043 76.1314 18.7706 75.5621 18.3207 74.6101C17.8156 73.6827 17.2555 72.3175 16.7014 70.6493C15.5505 67.3496 14.4547 62.7674 14.4731 58.1178C14.3904 53.4835 15.2046 48.9197 16.2025 45.62C16.7902 43.9977 17.2769 42.6509 17.6197 41.7051C18.0605 40.8021 18.3145 40.2878 18.3145 40.2878C12.8018 51.4541 13.3558 65.2222 19.0737 76.1896H19.0706Z" fill="#FFECEC"/>
<path d="M15.7006 45.8464L15.3547 45.2924C16.7597 40.8632 18.9054 36.6728 21.6756 32.9415L23.5948 32.7762C23.8825 32.3599 24.1978 31.9681 24.5559 31.61L24.6386 32.2467C22.2265 35.2219 20.1849 38.4848 18.6299 41.9835L18.0178 42.1947C18.2657 41.5366 18.6238 40.9244 18.9146 40.2847L18.0484 39.8684C17.0383 41.7662 16.3832 43.8231 15.7067 45.8495L15.7006 45.8464Z" fill="#FFECEC"/>
<path d="M30.1483 25.5035C29.2667 26.1003 28.4831 26.8227 27.7056 27.5482C26.919 28.2644 26.0986 28.947 25.4222 29.7704L25.4742 30.3152C24.8436 31.056 24.106 31.7141 23.5489 32.5161L21.6021 32.6844L20.4757 34.1812L20.3196 33.4037L20.9165 32.6109L23.4172 32.3783C23.7784 31.8365 24.259 31.3958 24.6845 30.906L24.6263 30.3397C26.1874 28.5246 27.9934 26.9237 29.8728 25.4514L30.1513 25.5035H30.1483Z" fill="#FFECEC"/>
<g opacity="0.35">
<path d="M85.0153 30.8876C84.6572 30.4958 84.7184 29.8469 85.1531 29.4459C85.5877 29.0419 86.2489 29.0541 86.6284 29.4735C87.008 29.8898 86.9498 30.5356 86.4907 30.9152C86.0346 31.2917 85.3704 31.2825 85.0123 30.8907L85.0153 30.8876Z" fill="#FFECEC"/>
</g>
<path d="M85.7653 30.7253L85.2603 30.1713L85.8724 29.6265L86.3867 30.1927L85.7653 30.7253Z" fill="#FFECEC"/>
<path d="M85.9553 28.546L85.8145 28.3868L85.9767 28.2338L86.1205 28.3929L85.9553 28.546Z" fill="#FFECEC"/>
<path d="M87.6325 30.3918L87.4917 30.2295L87.6631 30.0887L87.8039 30.2479L87.6325 30.3918Z" fill="#FFECEC"/>
<path d="M84.0329 30.3244L83.8982 30.1744L84.0604 30.0244L84.1951 30.1713L84.0329 30.3244Z" fill="#FFECEC"/>
<path d="M85.6093 32.0538L85.4746 31.9069L85.6491 31.7631L85.7807 31.913L85.6093 32.0538Z" fill="#FFECEC"/>
<path d="M87.6723 30.2386L85.9674 28.3654L84.0237 30.1744L85.6276 31.9313L87.6754 30.2417L87.6723 30.2386ZM85.9613 28.4113L87.6233 30.2356L85.6307 31.8824L84.0696 30.1713L85.9643 28.4113H85.9613Z" fill="#FFECEC"/>
<g opacity="0.35">
<path d="M84.3787 30.1867V30.153C85.3306 30.1469 86.304 30.1653 87.2988 30.205V30.2387C86.2979 30.1959 85.3276 30.1806 84.3787 30.1867Z" fill="#FFECEC"/>
</g>
<g opacity="0.35">
<path d="M85.6521 31.5855C85.7623 30.661 85.8541 29.7091 85.9245 28.7357H85.9582C85.8878 29.7122 85.796 30.6641 85.6858 31.5855H85.6521Z" fill="#FFECEC"/>
</g>
<g opacity="0.35">
<path d="M84.9757 30.6458C84.9022 30.5019 84.8716 30.3397 84.8869 30.1713C84.9022 30.0152 84.9542 29.8622 85.043 29.7244C85.1348 29.5836 85.2573 29.4642 85.4042 29.3816C85.5205 29.3143 85.646 29.2745 85.7776 29.2592L85.7899 29.4979C85.6919 29.5102 85.597 29.5408 85.5113 29.5897C85.2909 29.7122 85.1471 29.9326 85.1256 30.1744C85.1134 30.2999 85.1379 30.4223 85.193 30.5264C85.3583 30.8478 85.7746 30.9519 86.1296 30.7682C86.301 30.6764 86.4296 30.5325 86.4908 30.358L86.7235 30.4193C86.6408 30.6549 86.4663 30.8478 86.2368 30.9702C86.0072 31.0896 85.7501 31.1233 85.5113 31.062C85.2756 31.0008 85.0859 30.857 84.9787 30.6488L84.9757 30.6458Z" fill="#FFECEC"/>
<path d="M85.9583 29.4979L86.0042 29.2592C86.1419 29.2775 86.2766 29.3265 86.3898 29.4061C86.5092 29.4857 86.6041 29.5928 86.6715 29.7183L86.4541 29.8346C86.3562 29.6479 86.1725 29.5224 85.9583 29.4948V29.4979Z" fill="#FFECEC"/>
</g>
<path d="M44.1029 3.28092L46.9037 2.86157L46.7139 3.06666L44.2254 3.44009C42.6092 5.41746 41.1797 7.47134 39.9125 9.43647C38.7004 11.5852 37.6229 13.6208 36.7597 15.7114C33.8243 17.0398 30.9715 18.5672 28.3605 20.465L28.2595 20.3212C30.8583 18.4326 33.6957 16.9021 36.622 15.5828C37.4821 13.4769 38.5657 11.4506 39.7809 9.29566C41.0481 7.31218 42.4868 5.27971 44.0999 3.28092H44.1029Z" fill="#FFECEC"/>
<path d="M99.5274 53.1681L99.3529 53.1865C98.8233 48.8675 97.8898 44.5883 96.246 40.5509C94.538 36.5564 92.3984 32.7272 89.6497 29.3418L85.0491 33.0455C82.1382 29.452 78.5875 26.3757 74.6175 24.0096C73.7175 18.7968 71.6361 13.5014 68.367 8.48761C67.2161 6.79185 65.9703 4.91855 64.5317 3.35441L63.2308 3.14627L63.1236 3.02689C58.7312 2.26166 54.2561 2.27084 49.8392 2.55551L49.7412 2.48817C54.703 2.16677 59.7382 2.21268 64.651 3.19525C66.157 4.82366 67.4457 6.80409 68.6394 8.55801C71.8259 13.5382 73.8767 18.7356 74.7644 23.8902C78.6854 26.2349 82.1994 29.2714 85.0981 32.8098L89.6834 29.0877C92.4505 32.516 94.6513 36.3605 96.3807 40.3979C98.0398 44.4812 99.0009 48.8002 99.5304 53.1681H99.5274Z" fill="#FFECEC"/>
<path d="M71.7983 9.86203L70.8647 12.4516C70.2005 11.1293 69.475 9.77326 68.6363 8.55807L67.1885 8.17851C66.0223 6.39398 64.6969 4.74414 63.2307 3.14633L63.1236 3.02695C58.7311 2.26172 54.256 2.2709 49.8391 2.55557C49.4748 2.28621 49.1075 2.06582 48.7372 1.83625L47.7362 1.97705L46.72 3.06674C44.4641 5.42061 42.5724 8.13566 40.9532 10.7007C40.139 10.8721 39.3829 11.2303 38.5963 11.4874C37.8678 12.9077 37.1699 14.2147 36.6158 15.6533L33.3039 17.2022C32.2295 17.7745 31.201 18.4357 30.145 19.0479L30.4236 17.9368C31.7 17.1409 32.9886 16.3665 34.3722 15.7666C36.1445 10.6824 39.0615 5.89505 42.9061 1.21794C45.1252 0.792467 47.3689 0.483313 49.6095 0.220072C51.8685 0.14967 54.1244 -0.0982656 56.3864 0.0425376L58.2322 1.66177C59.7504 1.71993 61.2595 1.84849 62.7563 2.12704C64.25 2.39946 65.7743 2.51884 67.2344 2.94737C68.9822 5.24613 70.5494 7.41634 71.8074 9.85897L71.7983 9.86203Z" fill="#FFECEC"/>
<path d="M89.7844 29.2317L90.6415 29.348C93.1821 32.461 95.0798 36.027 96.7511 39.6603L96.5124 40.2327C97.0113 41.6805 97.5929 43.1008 98.0337 44.567C98.3857 46.0577 98.8295 47.53 99.108 49.0329L98.7836 49.4859C98.2938 49.1339 97.8316 48.7911 97.2868 48.4758C96.7879 46.7311 96.5215 44.9159 95.8114 43.2385L96.6777 41.4234C94.9972 37.0616 92.7474 32.8834 89.7875 29.2286L89.7844 29.2317Z" fill="#FFECEC"/>
<path d="M72.6829 16.4584L74.2531 17.2205C75.0673 19.4214 75.5846 21.766 75.9519 23.9822C79.5945 26.3238 82.8666 29.2409 85.6061 32.5956L85.1837 32.9354C82.2605 29.3266 78.6945 26.235 74.7061 23.8567C74.3266 21.3314 73.5767 19.0081 72.6829 16.4584V16.4584Z" fill="#FFECEC"/>
<path d="M61.4646 1.69244C61.1524 1.65264 60.8432 1.58224 60.531 1.56694L60.6075 0.820068C60.9259 0.835373 61.2381 0.905775 61.5534 0.945567L61.4615 1.69244H61.4646Z" fill="#FFECEC"/>
<path d="M62.9123 1.91587L61.9788 1.77201L62.0767 1.0282L63.0225 1.17206L62.9123 1.91587Z" fill="#FFECEC"/>
<path d="M64.3572 2.14549L63.4236 1.99551L63.5399 1.25476L64.4857 1.40475L64.3572 2.14549Z" fill="#FFECEC"/>
<path d="M65.7989 2.3811L64.8684 2.22805L65.0062 1.4873L65.9489 1.64341L65.7989 2.3811Z" fill="#FFECEC"/>
<path d="M67.2222 2.70566L66.3101 2.47609L66.4662 1.7384L67.3906 1.9741L67.2222 2.70566Z" fill="#FFECEC"/>
<path d="M90.6506 33.924C90.9537 33.3302 91.2353 32.7333 91.4771 32.1487C91.6393 32.3599 91.7985 32.5711 91.927 32.8068L91.0455 34.5821L90.6506 33.924Z" fill="#FFECEC"/>
<path d="M91.3884 35.1484L92.2822 33.3976L92.6954 34.0802L91.7833 35.8065L91.3884 35.1484Z" fill="#FFECEC"/>
<path d="M92.1292 36.3728L93.0505 34.6678L93.4637 35.3504L92.5271 37.0278L92.1292 36.3728Z" fill="#FFECEC"/>
<path d="M89.8396 32.7517L90.5865 30.958L91.064 31.5977L90.2987 33.3639L89.8396 32.7517Z" fill="#FFECEC"/>
<path d="M88.9824 31.6039L89.6987 29.7673L90.1762 30.4071L89.4416 32.2191L88.9824 31.6039Z" fill="#FFECEC"/>
<path d="M93.8799 38.2247L94.489 37.2635L94.7461 37.8023L93.8799 38.2247Z" fill="#FFECEC"/>
<path d="M88.2876 30.6703L88.9457 30.1438L88.5876 31.0713L88.2876 30.6703Z" fill="#FFECEC"/>
<path d="M92.8118 37.6279C93.1607 37.0738 93.525 36.4953 93.8219 35.9382C93.9688 36.1617 94.0851 36.4004 94.1953 36.6422L93.1423 38.3196L92.8118 37.6279V37.6279Z" fill="#FFECEC"/>
<path d="M93.1267 49.3205L95.3796 48.8491C95.5755 49.5348 95.6061 50.2572 95.7285 50.9581L93.4542 51.3162C93.3379 50.652 93.3134 49.9694 93.1267 49.3205V49.3205Z" fill="#FFECEC"/>
<path d="M92.8298 48.1574L95.0674 47.6156L95.2021 48.1482L92.9584 48.6594L92.8298 48.1574Z" fill="#FFECEC"/>
<path d="M92.6003 47.2452L94.8256 46.6483L94.8899 46.9177L92.6616 47.4962L92.6003 47.2452Z" fill="#FFECEC"/>
<path d="M92.4075 46.4586L94.6175 45.8188L94.6511 45.9505L92.4381 46.5841L92.4075 46.4586Z" fill="#FFECEC"/>
<path d="M94.9603 53.6028L94.2532 52.7763L93.5522 51.9774L94.694 51.8182L95.8326 51.6591L95.398 52.6447L94.9603 53.6028Z" fill="#FFECEC"/>
<path d="M47.176 19.8712L47.3474 20.0151C47.9719 18.9683 48.6545 17.9061 49.3983 16.8317L49.2269 16.6909C48.483 17.7653 47.8005 18.8275 47.176 19.8743V19.8712Z" fill="#FFECEC"/>
<path d="M48.0544 19.7489L48.2228 19.8927C48.8687 18.8367 49.5727 17.7684 50.3348 16.6879L50.1696 16.5471C49.4043 17.6276 48.7003 18.6959 48.0544 19.7489V19.7489Z" fill="#FFECEC"/>
<path d="M48.9331 19.6233L49.0953 19.7672C49.7626 18.7295 50.4819 17.5725 51.2778 16.6022L51.1125 16.443C50.3197 17.45 49.6004 18.5826 48.9331 19.6233Z" fill="#FFECEC"/>
<path d="M49.8085 19.4947L49.9676 19.6355C50.6502 18.5305 51.4063 17.5296 52.2236 16.5593L52.0613 16.4032C51.2441 17.3582 50.4911 18.3928 49.8054 19.4947H49.8085Z" fill="#FFECEC"/>
<path d="M50.6838 19.3601L50.8399 19.5009C51.5531 18.4724 52.3337 17.5235 53.1693 16.5195L53.0132 16.3634C52.1776 17.3766 51.394 18.2979 50.6838 19.3601Z" fill="#FFECEC"/>
<path d="M51.5685 19.2866L51.7215 19.4458C52.4592 18.4632 53.2581 17.4745 54.1183 16.4767L53.9652 16.3206C53.1051 17.3154 52.3062 18.3071 51.5654 19.2897L51.5685 19.2866Z" fill="#FFECEC"/>
<path d="M52.4531 19.2499L52.6031 19.4091C53.3653 18.4265 54.1856 17.4164 55.0672 16.4369L54.9172 16.2716C54.0356 17.2695 53.2153 18.2673 52.4562 19.253L52.4531 19.2499Z" fill="#FFECEC"/>
<path d="M80.8127 26.0941C75.3398 21.6833 68.823 18.4112 61.8594 17.2878C60.1116 18.6683 58.5505 20.0029 57.1302 21.6252C57.1302 21.6956 55.7651 21.4079 53.6989 21.5793C51.642 21.6344 48.8749 21.916 46.2241 22.6108C40.8552 23.8566 36.1169 26.7002 36.1169 26.7002C36.0863 26.5778 32.9121 25.534 31.9387 25.4299C31.9938 24.8545 32.0459 24.2515 32.1316 23.676C34.7364 22.0506 37.427 20.5355 40.3288 19.5101L40.9746 21.2211C45.0028 19.6631 49.331 18.7969 53.6775 18.7418C54.7274 17.3858 55.8783 16.2226 57.1302 15.0533C61.3696 15.2431 65.5784 16.1216 69.5332 17.6613C73.5032 19.1428 77.2988 21.1752 80.6199 23.8321C80.6995 24.6035 80.7852 25.3289 80.8127 26.0972V26.0941Z" fill="#FFECEC"/>
<path d="M56.2333 17.2664C56.3588 17.3092 58.7677 17.2664 62.2235 17.9306C65.661 18.6132 70.133 19.9906 74.1796 22.2526C78.272 24.4473 81.7615 27.5542 84.1062 30.0672C85.3 31.3191 86.2213 32.4211 86.7814 33.2598C87.3844 34.0648 87.7273 34.5239 87.7273 34.5239C84.1582 29.4489 79.4321 25.185 74.0112 22.1516C68.5505 19.1825 62.4256 17.5174 56.2302 17.2694L56.2333 17.2664Z" fill="#FFECEC"/>
<path d="M84.1797 29.501H84.8133C87.9599 32.9078 90.626 36.8044 92.4197 41.0958C92.1902 41.6743 91.8749 42.2712 91.5719 42.8467L92.083 44.2669L91.4739 44.0251C90.2128 40.4224 88.3793 37.0186 86.0469 33.9883L86.1815 33.3425L87.4488 35.0321L88.2416 34.4903L86.3193 31.9099C85.6551 31.0682 84.8868 30.3121 84.1828 29.504L84.1797 29.501Z" fill="#FFECEC"/>
<path d="M94.5747 52.1611C94.3574 50.0337 93.8186 47.9768 93.2891 45.9198L92.8116 45.6872L91.8137 42.9416C92.1076 42.363 92.4596 41.7447 92.6892 41.157L91.878 39.4735L92.6524 39.7153L93.081 40.6061C92.7871 41.3682 92.3892 42.1488 91.9943 42.8987L92.6524 44.723L93.1881 44.9495C93.8646 47.2391 94.489 49.5593 94.7492 51.9468L94.5686 52.1611H94.5747Z" fill="#FFECEC"/>
<path d="M40.6509 72.9489V51.1307H47.5969V72.9489H40.6509ZM44.131 48.5881C43.1557 48.5881 42.3176 48.2661 41.6168 47.6221C40.9161 46.9687 40.5657 46.1828 40.5657 45.2642C40.5657 44.3551 40.9161 43.5786 41.6168 42.9346C42.3176 42.2812 43.1557 41.9545 44.131 41.9545C45.1159 41.9545 45.954 42.2812 46.6452 42.9346C47.346 43.5786 47.6964 44.3551 47.6964 45.2642C47.6964 46.1828 47.346 46.9687 46.6452 47.6221C45.954 48.2661 45.1159 48.5881 44.131 48.5881ZM52.0181 72.9489V51.1307H58.9641V72.9489H52.0181ZM55.4982 48.5881C54.5228 48.5881 53.6848 48.2661 52.984 47.6221C52.2833 46.9687 51.9329 46.1828 51.9329 45.2642C51.9329 44.3551 52.2833 43.5786 52.984 42.9346C53.6848 42.2812 54.5228 41.9545 55.4982 41.9545C56.4831 41.9545 57.3211 42.2812 58.0124 42.9346C58.7132 43.5786 59.0636 44.3551 59.0636 45.2642C59.0636 46.1828 58.7132 46.9687 58.0124 47.6221C57.3211 48.2661 56.4831 48.5881 55.4982 48.5881ZM63.3853 72.9489V51.1307H70.3313V72.9489H63.3853ZM66.8654 48.5881C65.89 48.5881 65.052 48.2661 64.3512 47.6221C63.6504 46.9687 63.3001 46.1828 63.3001 45.2642C63.3001 44.3551 63.6504 43.5786 64.3512 42.9346C65.052 42.2812 65.89 41.9545 66.8654 41.9545C67.8503 41.9545 68.6883 42.2812 69.3796 42.9346C70.0804 43.5786 70.4308 44.3551 70.4308 45.2642C70.4308 46.1828 70.0804 46.9687 69.3796 47.6221C68.6883 48.2661 67.8503 48.5881 66.8654 48.5881Z" fill="#FFECEC"/>
</svg>
