<svg width="110" height="104" viewBox="0 0 110 104" fill="none" xmlns="http://www.w3.org/2000/svg">
<g opacity="0.35">
<path d="M62.5145 97.0795C63.0318 96.9632 63.5552 97.3122 63.6838 97.8937C63.8154 98.4692 63.4787 99.063 62.9277 99.1855C62.3676 99.265 61.835 98.8549 61.737 98.2702C61.6391 97.6856 61.985 97.1499 62.5145 97.0765V97.0795Z" fill="#FFECEC"/>
</g>
<path d="M62.2695 97.7836C62.5175 97.7499 62.7685 97.7193 63.0072 97.6458L63.1725 98.4478C62.9276 98.5243 62.6736 98.5549 62.4195 98.5886L62.2695 97.7836Z" fill="#FFECEC"/>
<path d="M64.0603 99.0355L64.2654 98.9835L64.3144 99.2008L64.1062 99.2528L64.0603 99.0355Z" fill="#FFECEC"/>
<path d="M61.6116 99.5007L61.8228 99.4701L61.8595 99.6905L61.6483 99.7211L61.6116 99.5007Z" fill="#FFECEC"/>
<path d="M63.4849 96.4796L63.6777 96.4306L63.7297 96.6479L63.5338 96.6969L63.4849 96.4796Z" fill="#FFECEC"/>
<path d="M61.186 96.9143L61.385 96.8867L61.4217 97.1071L61.2228 97.1347L61.186 96.9143Z" fill="#FFECEC"/>
<path d="M61.7216 99.614C62.5634 99.516 63.3929 99.3691 64.2071 99.1303L63.6194 96.5408C62.8603 96.7703 62.0798 96.905 61.29 96.9938L61.7247 99.6109L61.7216 99.614ZM64.1673 99.1028C63.3776 99.3354 62.5695 99.4793 61.7522 99.5742L61.3237 97.0244C62.0951 96.9356 62.8542 96.804 63.5949 96.5836L64.1673 99.1058V99.1028Z" fill="#FFECEC"/>
<g opacity="0.35">
<path d="M63.4297 96.85L63.4573 96.8683C62.9981 97.7438 62.49 98.5488 61.9421 99.3263L61.9146 99.3048C62.4625 98.5274 62.9706 97.7254 63.4297 96.85Z" fill="#FFECEC"/>
</g>
<g opacity="0.35">
<path d="M61.5778 97.2111C62.3339 97.8356 63.1144 98.4202 63.9133 98.9191L63.898 98.9497C63.0991 98.4508 62.3186 97.86 61.5625 97.2387L61.5809 97.2111H61.5778Z" fill="#FFECEC"/>
</g>
<g opacity="0.35">
<path d="M62.7409 97.1652C62.9001 97.1652 63.0562 97.2173 63.1909 97.3121C63.3164 97.3978 63.4235 97.5203 63.497 97.6611C63.5735 97.808 63.6133 97.9764 63.6133 98.1447C63.6133 98.2825 63.5857 98.411 63.5337 98.5365L63.3225 98.4355C63.3592 98.3437 63.3806 98.2457 63.3806 98.1447C63.3806 97.8907 63.2674 97.658 63.0715 97.5233C62.9705 97.4529 62.8542 97.4162 62.7348 97.4162C62.3736 97.3887 62.0644 97.658 62.0461 98.056C62.0369 98.2457 62.0981 98.4324 62.2206 98.5794L62.0461 98.7355C61.8838 98.5365 61.8012 98.2855 61.8134 98.0284C61.8257 97.7743 61.9298 97.5448 62.1012 97.3856C62.2756 97.2173 62.5022 97.1683 62.7348 97.1683L62.7409 97.1652Z" fill="#FFECEC"/>
<path d="M63.2399 98.5855L63.4205 98.7386C63.3379 98.8549 63.2277 98.9498 63.1053 99.014C62.9767 99.0906 62.8328 99.0967 62.689 99.0844L62.6981 98.8396C62.9155 98.8732 63.1114 98.763 63.2399 98.5855Z" fill="#FFECEC"/>
</g>
<path d="M106.834 75.4019L105.848 78.0619L105.759 77.7925L106.635 75.4264C104.924 70.6759 102.493 66.4212 99.7539 62.8399C99.9376 61.239 99.959 59.6228 100.075 58.0158L99.8794 53.1826L100.054 53.1673L100.253 57.9822C100.143 59.583 100.109 61.1931 99.9406 62.7878C102.683 66.3783 105.117 70.6391 106.834 75.4019Z" fill="#FFECEC"/>
<path d="M35.9578 98.4355L36.0312 98.2764C43.9315 101.904 52.9154 103.177 61.5135 101.787L60.6167 95.95C65.1897 95.2491 69.6189 93.7492 73.6563 91.5086C78.5905 93.2809 84.2134 94.1165 90.2343 93.8319C92.3219 93.7247 94.388 93.4217 96.5858 93.0697C96.8827 92.7483 97.1735 92.4208 97.4245 92.0626L97.5806 92.0259C100.293 88.5211 102.793 84.8052 104.59 80.7311L104.697 80.679C102.689 85.2643 99.8089 89.3966 96.6592 93.2472C94.3574 93.6084 92.227 93.9482 90.0262 94.0186C84.1186 94.2941 78.5446 93.4186 73.6869 91.6923C69.6862 93.8961 65.3122 95.3807 60.7942 96.097L61.7156 101.931C53.0317 103.361 43.9438 102.106 35.9578 98.4325V98.4355Z" fill="#FFECEC"/>
<path d="M87.3233 96.1214L85.5449 94.0216C86.9897 94.0675 88.4834 94.0706 90.0261 94.0216C90.4026 93.6941 90.7608 93.3452 91.0852 92.9656C93.1146 92.7605 95.2971 92.5156 97.4244 92.0626L97.5805 92.0259C100.293 88.5211 102.793 84.8051 104.59 80.731L105.793 80.1464C105.934 79.8403 106.096 79.5403 106.215 79.225L105.759 77.7895C105.239 76.1978 104.682 74.6704 104.097 73.2134C103.442 71.7319 102.711 70.3055 101.988 68.9587C102.203 68.1567 102.423 67.3578 102.521 66.5313C101.655 65.1906 100.776 63.9234 99.8885 62.7327C100.081 60.3084 100.338 57.8719 100.152 55.4324L100.993 56.2313C101.125 57.7342 100.978 59.2341 100.902 60.737C104.379 64.8019 107.161 69.7331 109.246 75.3927C107.746 79.6658 105.964 83.8715 103.494 87.6702L101.214 88.4813C99.4691 90.9546 97.6662 93.4002 95.5572 95.5796C92.8208 96.0633 89.9374 96.1061 87.3233 96.1153V96.1214Z" fill="#FFECEC"/>
<path d="M61.538 101.962L61.0085 102.663C57.0446 103.29 53.0011 103.223 49.0249 102.794L48.6484 102.295C45.615 101.882 42.6122 101.19 39.7319 100.156L39.4993 99.6599L41.1185 98.8793C42.851 99.4028 44.608 99.8894 46.3864 100.238L47.5342 101.867C52.1471 102.663 56.9068 102.718 61.5411 101.965L61.538 101.962Z" fill="#FFECEC"/>
<path d="M81.131 93.5533L79.7322 94.6001C77.3293 94.0614 75.1285 93.4951 73.0104 92.6748C69.1995 94.7409 64.9907 95.9745 60.7238 96.6601L60.6411 96.1245C65.2356 95.4174 69.6831 93.9114 73.7419 91.6616C76.0223 92.436 78.5843 93.2166 81.131 93.5533Z" fill="#FFECEC"/>
<path d="M99.512 91.23L100.075 90.4771L100.684 90.9178L100.112 91.6831L99.512 91.23Z" fill="#FFECEC"/>
<path d="M98.6335 92.3962L99.2029 91.6463L99.7967 92.1024L99.2243 92.8645L98.6335 92.3962Z" fill="#FFECEC"/>
<path d="M97.7275 93.5411C97.9449 93.3146 98.1316 93.0605 98.3214 92.8095L98.906 93.2809C98.7162 93.535 98.5264 93.7921 98.3061 94.0216L97.7306 93.538L97.7275 93.5411Z" fill="#FFECEC"/>
<path d="M96.7542 94.6246L97.3816 93.9267L97.954 94.4134L97.3174 95.1205L96.7542 94.6246Z" fill="#FFECEC"/>
<path d="M95.7715 95.7052L96.4051 95.0073L96.9622 95.5093L96.3225 96.2163L95.7715 95.7052Z" fill="#FFECEC"/>
<path d="M57.0415 100.361L58.1679 101.986L57.3721 102.02L56.2732 100.395L57.0415 100.361Z" fill="#FFECEC"/>
<path d="M55.612 100.425L56.6834 102.05L55.8875 102.087L54.8438 100.462L55.612 100.425Z" fill="#FFECEC"/>
<path d="M54.1826 100.477C54.5071 101.053 54.8468 101.57 55.1988 102.118L54.3999 102.155L53.4143 100.428L54.1795 100.474L54.1826 100.477Z" fill="#FFECEC"/>
<path d="M58.471 100.3C58.8537 100.86 59.2424 101.331 59.6464 101.842L58.8567 101.956L57.7058 100.33L58.4741 100.3H58.471Z" fill="#FFECEC"/>
<path d="M59.8914 100.119L61.1189 101.628L60.3291 101.744L59.1323 100.232L59.8914 100.119Z" fill="#FFECEC"/>
<path d="M51.7003 101.04L52.2298 102.035L51.636 102.002L51.7003 101.04Z" fill="#FFECEC"/>
<path d="M61.0423 99.9476L61.1678 100.783L60.5464 100.021L61.0423 99.9476Z" fill="#FFECEC"/>
<path d="M52.7533 100.391L53.7144 102.121L52.9186 102.075L51.988 100.349L52.7533 100.391Z" fill="#FFECEC"/>
<path d="M42.4652 94.8573L41.7489 97.0458L39.7471 96.299L40.5735 94.1533L42.4652 94.8573Z" fill="#FFECEC"/>
<path d="M43.6132 95.197L42.9642 97.407L42.4316 97.2693L43.1112 95.0685L43.6132 95.197Z" fill="#FFECEC"/>
<path d="M44.5222 95.4327L43.9284 97.658L43.6621 97.5876L44.2712 95.3685L44.5222 95.4327Z" fill="#FFECEC"/>
<path d="M45.3056 95.6379L44.7547 97.8754L44.623 97.8387L45.1801 95.6042L45.3056 95.6379Z" fill="#FFECEC"/>
<path d="M37.8677 94.2665L38.9053 94.1349C39.242 94.0982 39.6063 93.9911 39.9461 93.9207L39.5145 94.9889L39.0829 96.0541C38.8686 95.7633 38.6452 95.5093 38.4493 95.1909L37.8677 94.2665Z" fill="#FFECEC"/>
<path d="M90.9229 69.7759L90.7178 69.8555C91.333 70.9238 91.9391 72.0533 92.5207 73.2409L92.7227 73.1613C92.1411 71.9737 91.5381 70.8442 90.9229 69.7759Z" fill="#FFECEC"/>
<path d="M90.6136 70.6024L90.4116 70.6759C90.9963 71.7564 91.688 72.9471 92.1349 74.1011L92.3523 74.0337C91.8778 72.8675 91.2075 71.686 90.6167 70.6024H90.6136Z" fill="#FFECEC"/>
<path d="M90.3075 71.4319L90.1055 71.5023C90.7513 72.6318 91.238 73.7613 91.7155 74.952L91.9298 74.8846C91.4676 73.7001 90.9472 72.5553 90.3044 71.4288L90.3075 71.4319Z" fill="#FFECEC"/>
<path d="M90.0076 72.2645L89.8086 72.3318C90.3412 73.4368 90.8279 74.5908 91.3054 75.806L91.5197 75.7448C91.036 74.5265 90.5708 73.3848 90.0076 72.2645Z" fill="#FFECEC"/>
<path d="M89.6372 73.0665L89.426 73.1246C89.9372 74.2449 90.4269 75.4234 90.8953 76.66L91.1034 76.6019C90.6382 75.3683 90.1484 74.1898 89.6372 73.0695V73.0665Z" fill="#FFECEC"/>
<path d="M89.2486 73.8593L89.0374 73.9144C89.524 75.0469 90.075 76.2805 90.4393 77.4895L90.6627 77.4406C90.2679 76.2192 89.7383 74.9949 89.2455 73.8593H89.2486Z" fill="#FFECEC"/>
<path d="M88.8659 74.6551L88.6577 74.7071C89.1873 75.8886 89.6005 77.0763 89.9464 78.2945L90.1668 78.2486C89.8301 77.0334 89.3893 75.8305 88.8628 74.6551H88.8659Z" fill="#FFECEC"/>
<path d="M68.7341 95.7633C75.3917 93.4309 81.2595 89.1241 85.8601 83.795C85.5601 81.6065 85.0551 79.4761 84.501 77.5324C84.501 77.5324 85.2081 76.3539 86.2641 74.5816C86.7049 73.6511 87.2161 72.5675 87.767 71.4044C88.1527 70.18 88.7435 68.9311 89.0771 67.6027C89.8148 64.9703 90.2923 62.2644 90.4025 60.2166C90.4729 59.1912 90.5311 58.3342 90.5739 57.7373C90.5494 57.1343 90.5464 56.7915 90.5678 56.7915C90.6994 56.8251 93.0716 54.5937 93.791 53.7948L95.1286 54.8478C95.1837 56.3843 95.3306 57.9271 95.1653 59.4606C95.1255 61.0002 94.9878 62.5307 94.6878 64.0398L92.8819 63.7459C92.184 68.0129 90.7882 72.1635 88.7404 75.9897C89.27 77.5079 89.7505 79.1179 90.1821 80.8229C87.8068 84.346 84.9602 87.5447 81.7186 90.2904C78.4006 92.9503 74.7336 95.1389 70.8278 96.8071L68.7403 95.7633H68.7341Z" fill="#FFECEC"/>
<path d="M88.6823 78.9159C88.6455 79.0475 87.3722 81.0861 85.0979 83.7736C82.8695 86.504 79.3097 89.5741 75.3611 91.9585C71.3971 94.3155 67.0659 96.0235 63.6683 96.6724C62.0092 97.1621 60.5461 97.1836 59.5605 97.3886C58.5688 97.5662 57.9902 97.5723 57.9902 97.5723C70.3932 96.5989 82.138 89.5343 88.6823 78.9189V78.9159Z" fill="#FFECEC"/>
<path d="M64.1152 96.9999L63.803 97.5662C59.2636 98.561 54.5559 98.8457 49.9369 98.3559L48.8442 96.7214L47.3535 96.4887L47.8678 96.0724C51.6174 96.8377 55.4926 96.7642 59.2942 96.3908L59.787 96.8163C59.0892 96.9142 58.3943 97.0581 57.6842 97.0489L57.7576 98.01C58.8382 98.0192 59.8881 97.7315 60.9563 97.6182C62.0277 97.4958 63.0837 97.3091 64.1152 97.006V96.9999Z" fill="#FFECEC"/>
<path d="M39.2726 94.7256L42.2601 95.8306C43.2671 96.1612 44.3109 96.3755 45.3333 96.6632L45.774 96.3633C46.7046 96.6663 47.6902 96.6969 48.6452 96.8867L49.7532 98.5426C50.3654 98.6743 50.996 98.6345 51.6143 98.6896L51.0174 99.2528C50.6868 99.2283 50.3562 99.2313 50.0287 99.1885L48.587 97.0673L46.6709 96.7704L46.2087 97.1162L42.7376 96.2071L39.3675 94.9828L39.2695 94.7256H39.2726Z" fill="#FFECEC"/>
<g opacity="0.35">
<path d="M16.4903 44.4896C16.3035 44.9885 15.6883 45.2457 15.1281 45.0712C14.5557 44.8936 14.2619 44.3243 14.4578 43.7948C14.6537 43.2652 15.2628 43.0051 15.8199 43.2101C16.377 43.4183 16.677 43.9907 16.4903 44.4865V44.4896Z" fill="#FFECEC"/>
</g>
<path d="M15.9913 43.9233L15.7311 44.6273L14.9536 44.3671L15.2199 43.6509L15.9913 43.9233Z" fill="#FFECEC"/>
<path d="M13.9558 44.8263L13.9007 45.0344L13.6895 44.9671L13.7415 44.762L13.9558 44.8263Z" fill="#FFECEC"/>
<path d="M14.8098 42.4877L14.7364 42.6867L14.5251 42.6102L14.5986 42.4081L14.8098 42.4877Z" fill="#FFECEC"/>
<path d="M16.4566 45.6068L16.4076 45.7997L16.1934 45.7354L16.2423 45.5395L16.4566 45.6068Z" fill="#FFECEC"/>
<path d="M17.2615 43.4122L17.1911 43.5989L16.9829 43.5223L17.0503 43.3356L17.2615 43.4122Z" fill="#FFECEC"/>
<path d="M14.6566 42.5275C14.375 43.3234 14.0444 44.1008 13.7996 44.9089L16.3371 45.6925C16.5636 44.9365 16.8819 44.2049 17.1421 43.4611L14.6566 42.5306V42.5275ZM13.8424 44.8875C14.0842 44.1039 14.4056 43.3448 14.6781 42.5704L17.0993 43.4764C16.8421 44.2019 16.5391 44.9151 16.3126 45.6497L13.8424 44.8845V44.8875Z" fill="#FFECEC"/>
<g opacity="0.35">
<path d="M16.1566 45.3742L16.1291 45.3895C15.6761 44.5784 15.2353 43.7397 14.8037 42.8642L14.8343 42.852C15.2659 43.7244 15.7067 44.5661 16.1566 45.3742Z" fill="#FFECEC"/>
</g>
<g opacity="0.35">
<path d="M16.8178 43.6049C15.9332 43.9569 15.0302 44.3396 14.1273 44.7589L14.1089 44.7314C15.021 44.3151 15.9179 43.9294 16.8025 43.5774L16.8178 43.608V43.6049Z" fill="#FFECEC"/>
</g>
<g opacity="0.35">
<path d="M16.2911 44.6395C16.1962 44.7712 16.0646 44.8783 15.9055 44.9456C15.7585 45.0099 15.5932 45.0375 15.431 45.0283C15.2627 45.0191 15.0974 44.9701 14.9535 44.8875C14.8402 44.8201 14.7423 44.7344 14.6658 44.6273L14.8739 44.5018C14.929 44.5783 14.9994 44.6457 15.0851 44.6946C15.2994 44.8232 15.5657 44.8385 15.7922 44.7406C15.9116 44.6885 16.0095 44.612 16.0799 44.511C16.2911 44.2141 16.1901 43.8039 15.8565 43.5927C15.6942 43.4917 15.5045 43.4519 15.3147 43.4825L15.2627 43.2529C15.5137 43.2101 15.7708 43.2652 15.985 43.4029C16.2024 43.5407 16.3523 43.7457 16.4074 43.9784C16.4656 44.211 16.4228 44.4436 16.285 44.6365L16.2911 44.6395Z" fill="#FFECEC"/>
<path d="M14.7944 44.3579L14.5588 44.4345C14.5098 44.3059 14.4914 44.1682 14.5067 44.0335C14.522 43.8927 14.5741 43.758 14.6567 43.6386L14.8648 43.7702C14.7424 43.9447 14.7149 44.162 14.7914 44.361L14.7944 44.3579Z" fill="#FFECEC"/>
</g>
<path d="M13.0897 93.7033C12.4469 93.0115 11.8255 92.2983 11.2776 91.5239L11.5469 91.5882C12.0306 92.2769 12.5938 92.9014 13.1601 93.5197C15.6884 93.9206 18.0576 94.239 20.5216 94.2237C22.9122 94.2849 25.2263 94.1716 27.5189 93.8166C30.0595 95.8001 32.8939 97.3948 35.811 98.7539L35.7375 98.913C32.8327 97.5601 30.0105 95.9715 27.473 94.0033C25.1773 94.3553 22.851 94.4747 20.4635 94.4073C17.9994 94.4196 15.6149 94.1104 13.0897 93.7003V93.7033Z" fill="#FFECEC"/>
<path d="M28.5687 20.804L28.6728 20.9479C21.5837 25.9862 15.9914 33.1365 12.8692 41.2572L18.3728 43.3999C16.7046 47.7005 15.7495 52.2858 15.7097 56.917C11.8193 60.3054 8.07577 64.7805 5.44642 70.1035C4.44856 71.9768 3.59149 73.9419 2.91503 75.9866L3.36192 77.2232L3.30989 77.3763C4.0139 79.4914 5.13421 81.432 6.05555 83.4553C7.19116 85.3622 8.25942 87.3243 9.57257 89.118L9.56644 89.2343C6.74426 85.1296 4.30469 80.7066 2.71606 75.9621C3.42008 73.8286 4.34448 71.7717 5.37602 69.8311C8.00843 64.5999 11.6846 60.2013 15.5383 56.8527C15.5751 52.2735 16.527 47.7403 18.1554 43.4825L12.6427 41.3613C15.7526 33.1365 21.4092 25.9035 28.5687 20.8071V20.804Z" fill="#FFECEC"/>
<path d="M4.89837 66.4426L7.6073 65.9559C6.72575 67.2048 6.09826 68.472 5.37588 69.825L5.74319 71.2758C4.73308 73.1859 4.11783 75.1143 3.36178 77.2171L3.30974 77.3702C4.01376 79.4853 5.13406 81.4259 6.0554 83.4492C7.19101 85.3562 8.25928 87.3182 9.57242 89.1119L9.50814 90.422L10.1142 91.2332L11.5467 91.5852C14.7974 92.28 17.9686 92.6871 21.0754 92.7177L22.915 94.392C24.4363 94.4012 26.0586 94.1655 27.5432 93.9819C29.4379 95.5185 31.5714 96.7367 33.6926 97.9213L32.5692 98.2733L28.7125 95.9348C23.5732 96.7459 17.7329 96.9112 11.9079 95.7756C8.82249 92.4545 6.31865 88.6405 4.06886 84.7103L4.58003 82.2891C3.172 79.5893 2.16801 76.7182 1.17627 73.8501C2.35779 71.1779 3.45055 68.7322 4.89837 66.4396V66.4426Z" fill="#FFECEC"/>
<path d="M12.7038 41.1898L12.3457 40.3756C13.9068 36.6964 15.7893 33.1151 18.2809 29.9654L18.8869 29.8766C20.7327 27.434 22.8815 25.224 25.1894 23.2099L25.7251 23.2436L25.6302 25.0801C24.2344 26.2525 23.01 27.5932 21.804 28.9522C21.1428 28.992 20.4235 29.0012 19.7807 29.0961C16.7963 32.7202 14.4486 36.8403 12.7008 41.1868L12.7038 41.1898Z" fill="#FFECEC"/>
<path d="M10.1877 62.3746C10.0775 61.8022 10.0714 61.2176 10.0469 60.636C11.6937 58.8239 13.1966 57.1985 15.0638 55.7721C15.1862 51.444 16.0892 47.1525 17.7023 43.1366L18.2073 43.3325C16.5299 47.6515 15.5719 52.2613 15.5351 56.9108C13.7139 58.4994 11.8559 60.3329 10.1907 62.3746H10.1877Z" fill="#FFECEC"/>
<path d="M2.9762 79.47L3.38024 80.324L2.69153 80.6301L2.28442 79.7638L2.9762 79.47Z" fill="#FFECEC"/>
<path d="M2.44667 78.1078L2.77419 78.9925L2.07936 79.2802L1.74878 78.3833L2.44667 78.1078Z" fill="#FFECEC"/>
<path d="M1.9478 76.7335L2.2692 77.6211L1.56824 77.8905L1.24072 76.9936L1.9478 76.7335Z" fill="#FFECEC"/>
<path d="M1.45197 75.3561L1.77031 76.2468L1.06323 76.4978L0.73877 75.5979L1.45197 75.3561Z" fill="#FFECEC"/>
<path d="M0.96517 73.9786L1.27739 74.8694L0.564187 75.102L0.24585 74.199L0.96517 73.9786Z" fill="#FFECEC"/>
<path d="M16.3402 38.1014L14.3965 38.2759L14.7454 37.5596L16.6708 37.4096L16.3402 38.1014Z" fill="#FFECEC"/>
<path d="M16.9709 36.8189C16.3128 36.8372 15.6945 36.8862 15.0425 36.9382L15.3884 36.2189L17.3719 36.1638L16.9709 36.8189Z" fill="#FFECEC"/>
<path d="M17.7207 35.6006L15.7402 35.6281L16.1565 34.9456H18.1186L17.7207 35.6006Z" fill="#FFECEC"/>
<path d="M15.7157 39.387L13.7476 39.6135L14.0965 38.8942L16.0524 38.6983L15.7157 39.387Z" fill="#FFECEC"/>
<path d="M15.0883 40.6757L13.1936 40.9909L13.4691 40.241C14.0905 40.1277 14.7822 40.0604 15.425 39.9839L15.0883 40.6726V40.6757Z" fill="#FFECEC"/>
<path d="M18.3971 33.1182L17.2891 33.0906L17.5982 32.5795L18.3971 33.1182Z" fill="#FFECEC"/>
<path d="M14.6905 41.7684L13.9038 41.4592L14.8619 41.297L14.6905 41.7684Z" fill="#FFECEC"/>
<path d="M18.4645 34.3762L16.5146 34.3579L16.9309 33.6783L18.8593 33.7212L18.4645 34.3762Z" fill="#FFECEC"/>
<path d="M28.4464 28.2574L26.9067 26.5463C27.4455 26.081 27.9383 25.5576 28.5076 25.1321L29.9585 26.9228C29.4167 27.3238 28.9545 27.8196 28.4464 28.2604V28.2574Z" fill="#FFECEC"/>
<path d="M27.5556 29.0624L25.9639 27.3972L26.374 27.0269L27.9412 28.7134L27.5556 29.0624Z" fill="#FFECEC"/>
<path d="M26.8577 29.696L25.2292 28.0706C25.2874 28.0002 25.3639 27.9451 25.4282 27.8809L27.0474 29.5185C26.9862 29.5766 26.9128 29.6287 26.8577 29.696Z" fill="#FFECEC"/>
<path d="M26.3159 30.299L24.6538 28.7043L24.7456 28.6033L26.4047 30.2011L26.3159 30.299Z" fill="#FFECEC"/>
<path d="M31.2317 24.5383L30.8552 25.5393L30.497 26.5188L29.7869 25.6127L29.0798 24.7067L30.1665 24.6149L31.2317 24.5383Z" fill="#FFECEC"/>
<path d="M25.9089 82.7176L25.9365 82.5064C24.6417 82.5584 23.3928 82.4911 22.1287 82.3594L22.0889 82.5798C23.3408 82.7206 24.6172 82.7665 25.9089 82.7176Z" fill="#FFECEC"/>
<path d="M25.309 82.0656L25.3396 81.8575C24.0907 81.8391 22.8633 81.7289 21.5624 81.6003L21.5195 81.8177C22.8266 81.9432 24.0356 82.0687 25.309 82.0656Z" fill="#FFECEC"/>
<path d="M24.7549 81.3768L24.8009 81.1626C23.5734 81.1014 22.3031 80.9973 20.993 80.8442L20.9502 81.0585C22.2572 81.2116 23.5275 81.3156 24.7549 81.3768Z" fill="#FFECEC"/>
<path d="M24.2315 80.6637L24.2804 80.4525C23.0499 80.3698 21.7184 80.278 20.4573 80.0668L20.3992 80.2872C21.6878 80.48 22.9979 80.5841 24.2345 80.6637H24.2315Z" fill="#FFECEC"/>
<path d="M23.7021 79.9566L23.751 79.7484C22.4654 79.675 21.1982 79.5158 19.9677 79.2556L19.9065 79.4729C21.1339 79.7331 22.4287 79.8739 23.7021 79.9566Z" fill="#FFECEC"/>
<path d="M23.1695 79.2495L23.2215 79.0445C21.9512 78.9312 20.7666 78.6925 19.481 78.4445L19.4167 78.6588C20.7085 78.9006 21.8747 79.1547 23.1695 79.2495Z" fill="#FFECEC"/>
<path d="M22.6704 78.521L22.7378 78.3129C21.5256 78.1384 20.2737 77.9149 18.9881 77.6395L18.9238 77.8476C20.2094 78.1231 21.4583 78.3465 22.6704 78.521Z" fill="#FFECEC"/>
<path d="M14.4885 50.5195C13.2855 57.4434 13.864 64.7376 16.3189 71.34C18.2963 72.2032 20.3716 72.8307 22.4255 73.2745C22.4255 73.2745 22.955 74.5448 24.0967 76.259C25.116 78.0404 26.8271 80.2137 28.7096 82.2033C29.6034 83.2501 30.7298 84.0613 31.6389 84.9704C32.6612 85.7509 33.6193 86.4794 34.4366 87.1008C35.309 87.6456 36.0375 88.1017 36.5456 88.4201C37.0506 88.7445 37.3353 88.9404 37.3231 88.9588C37.2037 89.0996 37.9934 92.1636 38.3301 93.1768L36.7323 93.844C33.9407 92.5431 31.4093 90.7617 28.9698 88.8915L30.1268 87.4773C26.7873 84.7041 23.91 81.3891 21.6449 77.7007C20.0318 77.4252 18.2901 77.0977 16.7138 76.562C12.8692 69.0015 11.4551 60.2166 12.5693 51.8143L14.4823 50.5226L14.4885 50.5195Z" fill="#FFECEC"/>
<path d="M19.0706 76.2406C19.043 76.1824 18.7706 75.6131 18.3207 74.6612C17.8156 73.7337 17.2555 72.3685 16.7014 70.7003C15.5505 67.4006 14.4547 62.8184 14.4731 58.1688C14.3904 53.5346 15.2046 48.9707 16.2025 45.671C16.7902 44.0487 17.2769 42.7019 17.6197 41.7561C18.0605 40.8531 18.3145 40.3389 18.3145 40.3389C12.8018 51.5052 13.3558 65.2733 19.0737 76.2406H19.0706Z" fill="#FFECEC"/>
<path d="M15.7006 45.8976L15.3547 45.3435C16.7597 40.9143 18.9054 36.7239 21.6756 32.9926L23.5948 32.8273C23.8825 32.4111 24.1978 32.0193 24.5559 31.6611L24.6386 32.2978C22.2265 35.273 20.1849 38.536 18.6299 42.0346L18.0178 42.2459C18.2657 41.5878 18.6238 40.9756 18.9146 40.3358L18.0484 39.9195C17.0383 41.8173 16.3832 43.8743 15.7067 45.9006L15.7006 45.8976Z" fill="#FFECEC"/>
<path d="M30.1483 25.5545C29.2667 26.1514 28.4831 26.8738 27.7056 27.5992C26.919 28.3155 26.0986 28.9981 25.4222 29.8215L25.4742 30.3663C24.8436 31.1071 24.106 31.7652 23.5489 32.5671L21.6021 32.7355L20.4757 34.2323L20.3196 33.4548L20.9165 32.662L23.4172 32.4294C23.7784 31.8876 24.259 31.4468 24.6845 30.9571L24.6263 30.3908C26.1874 28.5757 27.9934 26.9748 29.8728 25.5025L30.1513 25.5545H30.1483Z" fill="#FFECEC"/>
<g opacity="0.35">
<path d="M85.0153 30.9387C84.6572 30.5469 84.7184 29.898 85.1531 29.497C85.5877 29.093 86.2489 29.1052 86.6284 29.5246C87.008 29.9409 86.9498 30.5867 86.4907 30.9663C86.0346 31.3428 85.3704 31.3336 85.0123 30.9418L85.0153 30.9387Z" fill="#FFECEC"/>
</g>
<path d="M85.7653 30.7765L85.2603 30.2225L85.8724 29.6776L86.3867 30.2439L85.7653 30.7765Z" fill="#FFECEC"/>
<path d="M85.9553 28.5971L85.8145 28.438L85.9767 28.2849L86.1205 28.4441L85.9553 28.5971Z" fill="#FFECEC"/>
<path d="M87.6325 30.4429L87.4917 30.2806L87.6631 30.1398L87.8039 30.299L87.6325 30.4429Z" fill="#FFECEC"/>
<path d="M84.0329 30.3755L83.8982 30.2255L84.0604 30.0756L84.1951 30.2225L84.0329 30.3755Z" fill="#FFECEC"/>
<path d="M85.6093 32.1049L85.4746 31.958L85.6491 31.8141L85.7807 31.9641L85.6093 32.1049Z" fill="#FFECEC"/>
<path d="M87.6723 30.2898L85.9674 28.4165L84.0237 30.2255L85.6276 31.9825L87.6754 30.2929L87.6723 30.2898ZM85.9613 28.4624L87.6233 30.2867L85.6307 31.9335L84.0696 30.2225L85.9643 28.4624H85.9613Z" fill="#FFECEC"/>
<g opacity="0.35">
<path d="M84.3787 30.2378V30.2041C85.3306 30.198 86.304 30.2163 87.2988 30.2561V30.2898C86.2979 30.2469 85.3276 30.2316 84.3787 30.2378Z" fill="#FFECEC"/>
</g>
<g opacity="0.35">
<path d="M85.6521 31.6367C85.7623 30.7123 85.8541 29.7603 85.9245 28.7869H85.9582C85.8878 29.7634 85.796 30.7153 85.6858 31.6367H85.6521Z" fill="#FFECEC"/>
</g>
<g opacity="0.35">
<path d="M84.9757 30.6969C84.9022 30.553 84.8716 30.3908 84.8869 30.2225C84.9022 30.0664 84.9542 29.9133 85.043 29.7756C85.1348 29.6348 85.2573 29.5154 85.4042 29.4327C85.5205 29.3654 85.646 29.3256 85.7776 29.3103L85.7899 29.5491C85.6919 29.5613 85.597 29.5919 85.5113 29.6409C85.2909 29.7633 85.1471 29.9837 85.1256 30.2255C85.1134 30.351 85.1379 30.4735 85.193 30.5775C85.3583 30.8989 85.7746 31.003 86.1296 30.8193C86.301 30.7275 86.4296 30.5837 86.4908 30.4092L86.7235 30.4704C86.6408 30.7061 86.4663 30.8989 86.2368 31.0214C86.0072 31.1407 85.7501 31.1744 85.5113 31.1132C85.2756 31.052 85.0859 30.9081 84.9787 30.7L84.9757 30.6969Z" fill="#FFECEC"/>
<path d="M85.9583 29.5491L86.0042 29.3103C86.1419 29.3287 86.2766 29.3776 86.3898 29.4572C86.5092 29.5368 86.6041 29.6439 86.6715 29.7694L86.4541 29.8858C86.3562 29.699 86.1725 29.5735 85.9583 29.546V29.5491Z" fill="#FFECEC"/>
</g>
<path d="M44.1029 3.33219L46.9037 2.91284L46.7139 3.11792L44.2254 3.49136C42.6092 5.46872 41.1797 7.52261 39.9125 9.48774C38.7004 11.6365 37.6229 13.672 36.7597 15.7627C33.8243 17.0911 30.9715 18.6185 28.3605 20.5163L28.2595 20.3724C30.8583 18.4838 33.6957 16.9534 36.622 15.6341C37.4821 13.5282 38.5657 11.5018 39.7809 9.34693C41.0481 7.36345 42.4868 5.33098 44.0999 3.33219H44.1029Z" fill="#FFECEC"/>
<path d="M99.5274 53.2193L99.3529 53.2377C98.8233 48.9187 97.8898 44.6395 96.246 40.6021C94.538 36.6076 92.3984 32.7784 89.6497 29.393L85.0491 33.0967C82.1382 29.5032 78.5875 26.4269 74.6175 24.0608C73.7175 18.8481 71.6361 13.5526 68.367 8.53882C67.2161 6.84306 65.9703 4.96976 64.5317 3.40562L63.2308 3.19748L63.1236 3.0781C58.7312 2.31287 54.2561 2.32205 49.8392 2.60672L49.7412 2.53938C54.703 2.21798 59.7382 2.26389 64.651 3.24645C66.157 4.87487 67.4457 6.8553 68.6394 8.60922C71.8259 13.5894 73.8767 18.7868 74.7644 23.9415C78.6854 26.2861 82.1994 29.3226 85.0981 32.861L89.6834 29.1389C92.4505 32.5672 94.6513 36.4117 96.3807 40.4491C98.0398 44.5324 99.0009 48.8514 99.5304 53.2193H99.5274Z" fill="#FFECEC"/>
<path d="M71.7983 9.91317L70.8647 12.5027C70.2005 11.1804 69.475 9.82441 68.6363 8.60921L67.1885 8.22966C66.0223 6.44513 64.6969 4.79529 63.2307 3.19748L63.1236 3.0781C58.7311 2.31287 54.256 2.32205 49.8391 2.60672C49.4748 2.33735 49.1075 2.11696 48.7372 1.88739L47.7362 2.0282L46.72 3.11789C44.4641 5.47175 42.5724 8.1868 40.9532 10.7519C40.139 10.9233 39.3829 11.2814 38.5963 11.5385C37.8678 12.9588 37.1699 14.2658 36.6158 15.7045L33.3039 17.2533C32.2295 17.8257 31.201 18.4869 30.145 19.099L30.4236 17.9879C31.7 17.1921 32.9886 16.4177 34.3722 15.8177C36.1445 10.7335 39.0615 5.9462 42.9061 1.26909C45.1252 0.843615 47.3689 0.53446 49.6095 0.271219C51.8685 0.200818 54.1244 -0.0471181 56.3864 0.093685L58.2322 1.71292C59.7504 1.77108 61.2595 1.89964 62.7563 2.17818C64.25 2.45061 65.7743 2.56998 67.2344 2.99852C68.9822 5.29728 70.5494 7.46748 71.8074 9.91011L71.7983 9.91317Z" fill="#FFECEC"/>
<path d="M89.7844 29.2828L90.6415 29.3991C93.1821 32.5121 95.0798 36.0781 96.7511 39.7114L96.5124 40.2838C97.0113 41.7316 97.5929 43.1519 98.0337 44.6181C98.3857 46.1088 98.8295 47.5811 99.108 49.084L98.7836 49.537C98.2938 49.185 97.8316 48.8422 97.2868 48.5269C96.7879 46.7822 96.5215 44.967 95.8114 43.2896L96.6777 41.4745C94.9972 37.1127 92.7474 32.9345 89.7875 29.2797L89.7844 29.2828Z" fill="#FFECEC"/>
<path d="M72.6829 16.5095L74.2531 17.2717C75.0673 19.4725 75.5846 21.8172 75.9519 24.0333C79.5945 26.3749 82.8666 29.292 85.6061 32.6468L85.1837 32.9865C82.2605 29.3777 78.6945 26.2862 74.7061 23.9078C74.3266 21.3825 73.5767 19.0593 72.6829 16.5095Z" fill="#FFECEC"/>
<path d="M61.4646 1.74352C61.1524 1.70373 60.8432 1.63333 60.531 1.61802L60.6075 0.871155C60.9259 0.886459 61.2381 0.956861 61.5534 0.996653L61.4615 1.74352H61.4646Z" fill="#FFECEC"/>
<path d="M62.9123 1.96696L61.9788 1.82309L62.0767 1.07928L63.0225 1.22315L62.9123 1.96696Z" fill="#FFECEC"/>
<path d="M64.3572 2.19652L63.4236 2.04653L63.5399 1.30579L64.4857 1.45577L64.3572 2.19652Z" fill="#FFECEC"/>
<path d="M65.7989 2.43225L64.8684 2.2792L65.0062 1.53845L65.9489 1.69456L65.7989 2.43225Z" fill="#FFECEC"/>
<path d="M67.2222 2.75669L66.3101 2.52711L66.4662 1.78943L67.3906 2.02512L67.2222 2.75669Z" fill="#FFECEC"/>
<path d="M90.6506 33.9752C90.9537 33.3814 91.2353 32.7845 91.4771 32.1999C91.6393 32.4111 91.7985 32.6223 91.927 32.858L91.0455 34.6333L90.6506 33.9752Z" fill="#FFECEC"/>
<path d="M91.3884 35.1996L92.2822 33.4487L92.6954 34.1313L91.7833 35.8577L91.3884 35.1996Z" fill="#FFECEC"/>
<path d="M92.1292 36.424L93.0505 34.7191L93.4637 35.4016L92.5271 37.079L92.1292 36.424Z" fill="#FFECEC"/>
<path d="M89.8396 32.8029L90.5865 31.0092L91.064 31.6489L90.2987 33.4151L89.8396 32.8029Z" fill="#FFECEC"/>
<path d="M88.9824 31.655L89.6987 29.8185L90.1762 30.4582L89.4416 32.2703L88.9824 31.655Z" fill="#FFECEC"/>
<path d="M93.8799 38.2758L94.489 37.3147L94.7461 37.8534L93.8799 38.2758Z" fill="#FFECEC"/>
<path d="M88.2876 30.7215L88.9457 30.195L88.5876 31.1225L88.2876 30.7215Z" fill="#FFECEC"/>
<path d="M92.8118 37.679C93.1607 37.1249 93.525 36.5464 93.8219 35.9893C93.9688 36.2128 94.0851 36.4515 94.1953 36.6933L93.1423 38.3707L92.8118 37.679Z" fill="#FFECEC"/>
<path d="M93.1267 49.3717L95.3796 48.9003C95.5755 49.586 95.6061 50.3084 95.7285 51.0093L93.4542 51.3674C93.3379 50.7032 93.3134 50.0206 93.1267 49.3717Z" fill="#FFECEC"/>
<path d="M92.8298 48.2085L95.0674 47.6667L95.2021 48.1993L92.9584 48.7105L92.8298 48.2085Z" fill="#FFECEC"/>
<path d="M92.6003 47.2964L94.8256 46.6995L94.8899 46.9689L92.6616 47.5474L92.6003 47.2964Z" fill="#FFECEC"/>
<path d="M92.4075 46.5097L94.6175 45.87L94.6511 46.0016L92.4381 46.6352L92.4075 46.5097Z" fill="#FFECEC"/>
<path d="M94.9603 53.654L94.2532 52.8275L93.5522 52.0286L94.694 51.8694L95.8326 51.7103L95.398 52.6959L94.9603 53.654Z" fill="#FFECEC"/>
<path d="M47.176 19.9224L47.3474 20.0663C47.9719 19.0195 48.6545 17.9573 49.3983 16.8829L49.2269 16.7421C48.483 17.8165 47.8005 18.8787 47.176 19.9255V19.9224Z" fill="#FFECEC"/>
<path d="M48.0544 19.8L48.2228 19.9439C48.8687 18.8878 49.5727 17.8196 50.3348 16.7391L50.1696 16.5983C49.4043 17.6788 48.7003 18.747 48.0544 19.8Z" fill="#FFECEC"/>
<path d="M48.9331 19.6745L49.0953 19.8183C49.7626 18.7807 50.4819 17.6236 51.2778 16.6533L51.1125 16.4941C50.3197 17.5012 49.6004 18.6337 48.9331 19.6745Z" fill="#FFECEC"/>
<path d="M49.8085 19.5459L49.9676 19.6867C50.6502 18.5817 51.4063 17.5808 52.2236 16.6105L52.0613 16.4543C51.2441 17.4094 50.4911 18.444 49.8054 19.5459H49.8085Z" fill="#FFECEC"/>
<path d="M50.6838 19.4113L50.8399 19.5521C51.5531 18.5236 52.3337 17.5747 53.1693 16.5707L53.0132 16.4146C52.1776 17.4278 51.394 18.3491 50.6838 19.4113Z" fill="#FFECEC"/>
<path d="M51.5685 19.3378L51.7215 19.4969C52.4592 18.5144 53.2581 17.5257 54.1183 16.5278L53.9652 16.3717C53.1051 17.3665 52.3062 18.3583 51.5654 19.3408L51.5685 19.3378Z" fill="#FFECEC"/>
<path d="M52.4531 19.301L52.6031 19.4602C53.3653 18.4777 54.1856 17.4675 55.0672 16.488L54.9172 16.3228C54.0356 17.3206 53.2153 18.3185 52.4562 19.3041L52.4531 19.301Z" fill="#FFECEC"/>
<path d="M80.8127 26.1453C75.3398 21.7345 68.823 18.4623 61.8594 17.339C60.1116 18.7195 58.5505 20.054 57.1302 21.6763C57.1302 21.7467 55.7651 21.459 53.6989 21.6304C51.642 21.6855 48.8749 21.9671 46.2241 22.6619C40.8552 23.9077 36.1169 26.7514 36.1169 26.7514C36.0863 26.6289 32.9121 25.5851 31.9387 25.4811C31.9938 24.9056 32.0459 24.3026 32.1316 23.7272C34.7364 22.1018 37.427 20.5866 40.3287 19.5612L40.9746 21.2723C45.0028 19.7143 49.331 18.848 53.6775 18.7929C54.7274 17.4369 55.8783 16.2738 57.1302 15.1045C61.3696 15.2943 65.5784 16.1728 69.5332 17.7124C73.5032 19.1939 77.2988 21.2264 80.6199 23.8833C80.6995 24.6546 80.7852 25.3801 80.8127 26.1484V26.1453Z" fill="#FFECEC"/>
<path d="M56.2333 17.3176C56.3588 17.3604 58.7677 17.3176 62.2235 17.9818C65.661 18.6644 70.133 20.0418 74.1796 22.3038C78.272 24.4985 81.7615 27.6054 84.1062 30.1184C85.3 31.3703 86.2213 32.4723 86.7814 33.311C87.3844 34.116 87.7273 34.5751 87.7273 34.5751C84.1582 29.5001 79.4321 25.2362 74.0112 22.2028C68.5505 19.2337 62.4256 17.5686 56.2302 17.3206L56.2333 17.3176Z" fill="#FFECEC"/>
<path d="M84.1797 29.5521H84.8133C87.9599 32.9589 90.626 36.8555 92.4197 41.147C92.1902 41.7255 91.8749 42.3224 91.5719 42.8978L92.083 44.3181L91.4739 44.0763C90.2128 40.4736 88.3793 37.0698 86.0469 34.0395L86.1815 33.3936L87.4488 35.0832L88.2416 34.5415L86.3193 31.9611C85.6551 31.1193 84.8868 30.3633 84.1828 29.5552L84.1797 29.5521Z" fill="#FFECEC"/>
<path d="M94.5747 52.2122C94.3574 50.0849 93.8186 48.0279 93.2891 45.971L92.8116 45.7384L91.8137 42.9927C92.1076 42.4142 92.4596 41.7959 92.6892 41.2082L91.878 39.5247L92.6524 39.7665L93.081 40.6572C92.7871 41.4194 92.3892 42.1999 91.9943 42.9498L92.6524 44.7742L93.1881 45.0007C93.8646 47.2903 94.489 49.6104 94.7492 51.998L94.5686 52.2122H94.5747Z" fill="#FFECEC"/>
<path d="M52.0181 72V50.1818H58.9641V72H52.0181ZM55.4982 47.6392C54.5228 47.6392 53.6848 47.3172 52.984 46.6733C52.2833 46.0199 51.9329 45.2339 51.9329 44.3153C51.9329 43.4062 52.2833 42.6297 52.984 41.9858C53.6848 41.3324 54.5228 41.0057 55.4982 41.0057C56.4831 41.0057 57.3211 41.3324 58.0124 41.9858C58.7132 42.6297 59.0636 43.4062 59.0636 44.3153C59.0636 45.2339 58.7132 46.0199 58.0124 46.6733C57.3211 47.3172 56.4831 47.6392 55.4982 47.6392Z" fill="#FFECEC"/>
</svg>
